<?xml version="1.0" encoding="UTF-8"?>
<svg version="1.1" xmlns="http://www.w3.org/2000/svg" width="209" height="215">
<path d="M0 0 C36.96 0 73.92 0 112 0 C108.54912389 43.71109737 108.54912389 43.71109737 107.17578125 58.3359375 C107.02290254 59.98554438 106.87025553 61.63517274 106.71781921 63.28482056 C106.3304936 67.47008127 105.94018897 71.65505792 105.54907227 75.83996582 C105.14470133 80.17307791 104.74341107 84.50647544 104.34179688 88.83984375 C103.56407012 97.22683132 102.78316973 105.61351894 102 114 C101.33286484 114.19339462 100.66572968 114.38678925 99.9783783 114.58604431 C96.89019706 115.48198917 93.80251966 116.37965902 90.71484375 117.27734375 C89.66598999 117.58136108 88.61713623 117.88537842 87.53649902 118.1986084 C78.16970009 120.92405288 68.86053566 123.81776695 59.56860352 126.78735352 C55.53394779 127.12136978 51.8926704 125.99961935 48 125 C47.27105026 124.82084549 46.54210052 124.64169098 45.7910614 124.45710754 C41.05575705 123.28574959 36.33909415 122.04175328 31.62280273 120.79638672 C29.90507458 120.34594785 28.18562889 119.9020122 26.46459961 119.46435547 C23.96299461 118.82751431 21.46764852 118.17002296 18.97265625 117.5078125 C18.20188248 117.31599396 17.4311087 117.12417542 16.63697815 116.92654419 C11.3108803 115.47856681 11.3108803 115.47856681 9.81884193 113.18173409 C8.98403329 110.95745806 8.62711549 109.11374555 8.41781616 106.75192261 C8.33933945 105.91104599 8.26086273 105.07016937 8.18000793 104.20381165 C8.10304184 103.28947861 8.02607574 102.37514557 7.94677734 101.43310547 C7.85870316 100.46347366 7.77062897 99.49384186 7.67988586 98.49482727 C7.39057522 95.28627194 7.1130457 92.07681795 6.8359375 88.8671875 C6.63759877 86.63236377 6.4386665 84.39759265 6.23916626 82.16287231 C5.82234108 77.47424671 5.41103724 72.78518026 5.00390625 68.09570312 C4.48344423 62.1031401 3.95201739 56.11161514 3.41673851 50.12035942 C3.00487594 45.50168269 2.59757767 40.88261258 2.19176102 36.26340103 C1.99748962 34.05544579 1.80212811 31.84758617 1.60563278 29.63982773 C1.33081939 26.54133924 1.06183518 23.44239755 0.79443359 20.34326172 C0.71341904 19.44107407 0.63240448 18.53888641 0.54893494 17.60935974 C0.47609787 16.75156418 0.4032608 15.89376862 0.32821655 15.00997925 C0.2644451 14.27958372 0.20067364 13.54918819 0.13496971 12.79665947 C-0.07066246 8.53582819 0 4.26579041 0 0 Z M21 24 C21.21810589 30.72242951 21.21810589 30.72242951 23 37 C40.49 37 57.98 37 76 37 C75.67 38.32 75.34 39.64 75 41 C75 44.63 75 48.26 75 52 C58.17 52 41.34 52 24 52 C24.33 56.29 24.66 60.58 25 65 C40.84 65 56.68 65 73 65 C72.505 69.95 72.505 69.95 72 75 C71.94338455 76.70752203 71.90994777 78.41676182 71.9375 80.125 C71.958125 81.40375 71.97875 82.6825 72 84 C68.67507963 84.714962 65.34188271 85.36927847 62 86 C61.27039063 86.15210938 60.54078125 86.30421875 59.7890625 86.4609375 C52.87224564 87.61802582 46.67671789 85.82655188 40 84 C39.67 80.37 39.34 76.74 39 73 C34.71 73 30.42 73 26 73 C26.08684744 76.10554454 26.19370554 79.20815428 26.3125 82.3125 C26.33505859 83.19357422 26.35761719 84.07464844 26.38085938 84.98242188 C26.41630859 85.82998047 26.45175781 86.67753906 26.48828125 87.55078125 C26.51446533 88.33106689 26.54064941 89.11135254 26.56762695 89.9152832 C27.11626816 92.56059504 27.84454211 93.3913518 30 95 C32.27942369 95.95114963 32.27942369 95.95114963 34.859375 96.60546875 C36.28636719 96.99702148 36.28636719 96.99702148 37.7421875 97.39648438 C39.23105469 97.78803711 39.23105469 97.78803711 40.75 98.1875 C41.72710937 98.46013672 42.70421875 98.73277344 43.7109375 99.01367188 C54.17833972 101.82802058 61.63904949 100.53274438 71.9375 97.5 C73.09830078 97.16613281 74.25910156 96.83226562 75.45507812 96.48828125 C78.3058748 95.6670641 81.15393322 94.83743407 84 94 C84.78501198 85.61165684 85.56753784 77.22308702 86.34690857 68.83421803 C86.70889567 64.93876162 87.0717321 61.04338825 87.43652344 57.14819336 C87.78866614 53.38771995 88.13855966 49.62704339 88.48690796 45.86621666 C88.62006889 44.43286393 88.75403417 42.99958569 88.88882446 41.56638527 C89.0777647 39.55593162 89.26355635 37.54518283 89.44921875 35.53442383 C89.55580811 34.39080887 89.66239746 33.24719391 89.7722168 32.06892395 C89.97138038 29.3855922 90 26.69071281 90 24 C67.23 24 44.46 24 21 24 Z " fill="#0B72B7" transform="translate(51,54)"/>
<path d="M0 0 C5.94 0 11.88 0 18 0 C18 7.26 18 14.52 18 22 C12.06 22 6.12 22 0 22 C0 14.74 0 7.48 0 0 Z " fill="#0B72B7" transform="translate(117,23)"/>
<path d="M0 0 C5.94 0 11.88 0 18 0 C18 7.26 18 14.52 18 22 C12.06 22 6.12 22 0 22 C0 14.74 0 7.48 0 0 Z " fill="#0B72B7" transform="translate(97,23)"/>
<path d="M0 0 C5.94 0 11.88 0 18 0 C18 2.64 18 5.28 18 8 C14.7 8 11.4 8 8 8 C8 9.98 8 11.96 8 14 C11.3 14 14.6 14 18 14 C18 16.64 18 19.28 18 22 C12.06 22 6.12 22 0 22 C0 14.74 0 7.48 0 0 Z " fill="#0B73B7" transform="translate(77,23)"/>
</svg>
