<?xml version="1.0" encoding="UTF-8"?>
<svg version="1.1" xmlns="http://www.w3.org/2000/svg" width="2400" height="2016">
<path d="M0 0 C85.14 0 170.28 0 258 0 C258 141.24 258 282.48 258 428 C328.95 428 399.9 428 473 428 C473 500.6 473 573.2 473 648 C491.459375 647.87625 509.91875 647.7525 528.9375 647.625 C537.57087524 647.57400146 537.57087524 647.57400146 546.37866211 647.52197266 C634.10566561 646.90619239 721.77958236 635.9003488 799 591 C798.40517113 586.86644345 796.03324535 583.94575172 793.6875 580.625 C771.57954175 548.18116784 759.01858379 510.60175008 753 472 C752.83628906 470.98115723 752.67257812 469.96231445 752.50390625 468.91259766 C747.47247319 436.11992079 747.96893938 400.75068667 753 368 C753.20882813 366.53796143 753.20882813 366.53796143 753.421875 365.04638672 C755.68266306 349.37001951 759.47915978 334.16954768 764 319 C764.26119629 318.12279297 764.52239258 317.24558594 764.79150391 316.34179688 C774.16621196 285.69162597 790.25468717 259.1023167 811.7265625 235.55859375 C814.9593237 231.92034876 818.00813104 228.14220237 821.0546875 224.34765625 C822.62860416 222.44821064 824.21668596 220.69919545 826 219 C829.83337697 220.6707212 832.94438638 223.16093268 836.1875 225.75 C836.79335937 226.23025635 837.39921875 226.7105127 838.0234375 227.20532227 C870.21939575 252.83392544 870.21939575 252.83392544 880.4453125 263.44140625 C882.14162726 265.1419831 883.92306297 266.690867 885.75 268.25 C893.11273151 274.61197189 899.97473805 281.60063573 906.28125 289.0078125 C907.48347961 290.40130591 908.71547441 291.7694189 909.96875 293.1171875 C916.60990048 300.26364291 922.48230059 307.92623033 928.31054688 315.73681641 C929.41690635 317.21889044 930.52743493 318.69786352 931.64257812 320.17333984 C940.74380169 332.2343777 948.59414017 344.83568099 956 358 C956.43328613 358.76731445 956.86657227 359.53462891 957.31298828 360.32519531 C973.39386135 389.04333459 987.29808185 423.75460404 988 457 C989.51400391 456.54560547 989.51400391 456.54560547 991.05859375 456.08203125 C1012.33990506 449.84808641 1033.94828184 446.15561287 1056 444 C1056.70785645 443.92797363 1057.41571289 443.85594727 1058.14501953 443.78173828 C1099.05161636 439.79780984 1141.71782513 444.27258932 1181 456 C1182.33466309 456.39807861 1182.33466309 456.39807861 1183.69628906 456.80419922 C1210.16286384 464.85192361 1234.53259971 477.69751996 1258.16699219 491.90966797 C1261.0882926 493.64735146 1264.04346047 495.32309967 1267 497 C1265.31852624 502.94983024 1262.44054256 508.18899878 1259.5625 513.625 C1259.02898926 514.63755859 1258.49547852 515.65011719 1257.94580078 516.69335938 C1256.30408394 519.79928394 1254.65336034 522.90026033 1253 526 C1252.51225098 526.9187793 1252.02450195 527.83755859 1251.52197266 528.78417969 C1234.7357641 560.30850479 1212.63091941 590.21009673 1184 612 C1183.3620752 612.49790039 1182.72415039 612.99580078 1182.06689453 613.50878906 C1134.05608489 650.8983238 1075.03068532 669.78348466 1015 676 C1013.99469238 676.10441406 1012.98938477 676.20882812 1011.95361328 676.31640625 C996.17789438 677.86819681 980.46334952 678.18292797 964.625 678.1875 C963.69360199 678.18849701 962.76220398 678.18949402 961.80258179 678.19052124 C959.13132773 678.19019667 956.46028135 678.18116489 953.7890625 678.16796875 C952.99020126 678.16676025 952.19134003 678.16555176 951.36827087 678.16430664 C947.13904773 678.12892111 943.16593505 677.83210797 939 677 C938.88406494 677.70044434 938.76812988 678.40088867 938.64868164 679.12255859 C937.93650156 682.28166827 936.86711917 685.04961099 935.62109375 688.0390625 C934.86928833 689.84395142 934.86928833 689.84395142 934.10229492 691.68530273 C933.54794789 692.99878204 932.99299913 694.31200753 932.4375 695.625 C932.15532623 696.29540314 931.87315247 696.96580627 931.58242798 697.65652466 C926.80151008 709.00037689 921.80225954 720.24061595 916.6875 731.4375 C916.36192108 732.1518219 916.03634216 732.8661438 915.70089722 733.60211182 C911.32823509 743.17782641 906.74124282 752.62625609 901.99533081 762.02200317 C900.34928156 765.293157 898.72867138 768.57684296 897.10546875 771.859375 C889.72043238 786.75778096 882.20786405 801.53190066 874 816 C878.70954425 816.29065058 883.41940974 816.57515637 888.12963867 816.85449219 C889.72478728 816.94989696 891.31984435 817.04684766 892.91479492 817.14550781 C962.9580772 821.46943957 1041.90287831 809.82296577 1096.37890625 762.078125 C1102.11960275 756.93041386 1107.62016818 751.52223914 1113 746 C1114 749 1114 749 1113.5625 751.4375 C1111.69406128 763.27094524 1113.26377585 774.5943835 1119.8125 784.8125 C1120.85265831 786.22506067 1121.91481176 787.62173173 1123 789 C1123.47824219 789.65226563 1123.95648437 790.30453125 1124.44921875 790.9765625 C1150.1908881 823.52648193 1205.20842711 831.71082588 1242.99047852 840.37060547 C1243.96938553 840.59739487 1244.94829254 840.82418427 1245.9568634 841.05784607 C1247.81183366 841.48696796 1249.6682303 841.90998248 1251.52616882 842.32606506 C1252.35123428 842.51744553 1253.17629974 842.70882599 1254.02636719 842.90600586 C1254.74862488 843.06983261 1255.47088257 843.23365936 1256.21502686 843.40245056 C1258 844 1258 844 1260 846 C1258.72455735 845.99235193 1258.72455735 845.99235193 1257.42334819 845.98454934 C1207.01942497 845.68472247 1156.61593691 845.48403156 1106.21114676 845.41194101 C1100.15801589 845.40319795 1094.10488659 845.39362724 1088.05175781 845.38354492 C1086.84669717 845.38155164 1085.64163653 845.37955836 1084.4000589 845.37750467 C1064.89175634 845.34326271 1045.38434916 845.24198695 1025.87644872 845.11590228 C1005.85698317 844.98800468 985.83825162 844.93222625 965.81837583 844.94328564 C953.46590806 844.94783949 941.11630086 844.89625949 928.76443949 844.77268257 C920.29227314 844.69331182 911.82182887 844.68404703 903.34942088 844.72964362 C898.46105432 844.75388911 893.57784724 844.74748695 888.69013214 844.65772057 C870.24182343 843.44163628 870.24182343 843.44163628 853.28608418 848.87590957 C849.11792171 853.26371357 846.74931844 858.0883651 844.80810785 863.7725805 C843.71123184 866.79594306 842.06630858 869.31940645 840.2578125 871.96484375 C839.73670898 872.79371094 839.21560547 873.62257813 838.67871094 874.4765625 C831.46372608 885.9044455 823.84650621 896.99868764 816 908 C815.12964996 909.23007386 814.25981186 910.4605102 813.390625 911.69140625 C802.97072386 926.41175095 792.25807683 940.90947709 781 955 C780.29359375 955.88945313 779.5871875 956.77890625 778.859375 957.6953125 C776.91493316 960.13734773 774.9605905 962.57091499 773 965 C772.31679687 965.84691406 771.63359375 966.69382812 770.9296875 967.56640625 C765.75661833 973.93540002 760.45446117 980.18424029 755.09765625 986.3984375 C753.07255881 988.74782976 751.0597527 991.1067514 749.05859375 993.4765625 C742.28550959 1001.47998672 735.24882389 1009.18919193 728.04785156 1016.80859375 C726.02503805 1018.97320678 724.02836128 1021.16052488 722.03179932 1023.34931946 C714.98682103 1031.05097288 707.68103634 1038.47248323 700.28955078 1045.84082031 C698.23482492 1047.89013511 696.18556897 1049.94481263 694.13671875 1052 C692.80500835 1053.33105025 691.47298812 1054.66179061 690.140625 1055.9921875 C689.54147278 1056.59336395 688.94232056 1057.19454041 688.32501221 1057.81393433 C684.6000511 1061.51869667 680.7470597 1065.0235648 676.77352905 1068.46005249 C674.83637442 1070.14207537 672.95874955 1071.87457156 671.10546875 1073.6484375 C670.46561035 1074.25671387 669.82575195 1074.86499023 669.16650391 1075.49169922 C668.51343262 1076.11318848 667.86036133 1076.73467773 667.1875 1077.375 C661.78915165 1082.47768573 656.31756024 1087.33048184 650.5078125 1091.9609375 C647.92396966 1094.06181906 645.4600648 1096.25586565 643 1098.5 C637.82453026 1103.20423388 632.4485611 1107.61715487 627 1112 C625.89043217 1112.90210662 624.78106559 1113.80446083 623.671875 1114.70703125 C614.11886326 1122.44869613 604.32342171 1129.84586187 594.44970703 1137.17236328 C592.24482154 1138.81734761 590.0554526 1140.48026716 587.87109375 1142.15234375 C576.72977669 1150.61002446 565.13423464 1158.3678809 553.5 1166.125 C552.68018646 1166.67217682 551.86037292 1167.21935364 551.01571655 1167.78311157 C535.24380621 1178.29633917 519.35999128 1188.65015254 502.9375 1198.125 C501.92204102 1198.7135376 500.90658203 1199.3020752 499.86035156 1199.90844727 C491.80583147 1204.5633405 483.7205661 1209.15605752 475.55224609 1213.60839844 C473.72274134 1214.60592829 471.89516057 1215.60698991 470.06884766 1216.61035156 C399.30406223 1255.42702974 323.58228765 1285.60755771 -131.39930344 1358.31805801 C-134.37396041 1358.31238274 -137.34861161 1358.30958504 -140.32327271 1358.30697632 C-169.30920602 1358.2700563 -198.13448035 1357.88086154 -227 1355 C-228.84943921 1354.82121248 -230.69888604 1354.64250374 -232.54833984 1354.46386719 C-313.67840052 1346.50752684 -393.67169437 1328.04705283 -613.29003906 1208.40576172 C-615.6248891 1206.48627763 -617.99938939 1204.61866567 -620.375 1202.75 C-624.61413792 1199.37149243 -628.63929453 1195.79191057 -632.64453125 1192.140625 C-634.67741834 1190.29315879 -636.73381416 1188.48292676 -638.8125 1186.6875 C-648.32375262 1178.36279969 -657.42424817 1169.67371276 -666.375 1160.75 C-667.21901367 1159.91057861 -668.06302734 1159.07115723 -668.93261719 1158.20629883 C-673.27492039 1153.85324735 -677.46811578 1149.43198037 -681.47607422 1144.76904297 C-683.55380448 1142.35711835 -685.71497502 1140.02570886 -687.875 1137.6875 C-691.91279322 1133.25503526 -695.77307434 1128.72257823 -699.53515625 1124.0546875 C-701.34085175 1121.8168842 -703.15979312 1119.59518101 -704.99609375 1117.3828125 C-721.24063613 1097.7404925 -735.70486379 1076.62384858 -749.375 1055.125 C-749.81400635 1054.43801025 -750.2530127 1053.75102051 -750.70532227 1053.04321289 C-759.1309658 1039.63303418 -766.39518707 1025.6084207 -773.3125 1011.375 C-773.72452667 1010.52828735 -774.13655334 1009.68157471 -774.56106567 1008.8092041 C-782.15778833 993.1456242 -789.00684781 977.35522172 -795 961 C-795.2447406 960.33669678 -795.4894812 959.67339355 -795.74163818 958.98999023 C-809.14822513 922.60299049 -818.62619055 885.24285671 -825 847 C-924 846.67 -1023 846.34 -1125 846 C-1122.64674591 843.64674591 -1121.35969192 843.4214677 -1118.15600586 842.66235352 C-1116.63253036 842.29476677 -1116.63253036 842.29476677 -1115.07827759 841.91975403 C-1113.96834442 841.65877426 -1112.85841125 841.39779449 -1111.71484375 841.12890625 C-1109.33812614 840.55507136 -1106.96158684 839.98049756 -1104.58520508 839.40527344 C-1103.33575104 839.10488159 -1102.086297 838.80448975 -1100.79898071 838.49499512 C-1036.73478932 824.86509 -1036.73478932 824.86509 -986.3125 786.1796875 C-981.36414129 777.96187751 -978.82211711 770.73286243 -978.875 761.1875 C-978.87113281 760.50107422 -978.86726562 759.81464844 -978.86328125 759.10742188 C-978.87173153 754.64144643 -979.27416434 750.40685936 -980 746 C-976.70166953 747.09944349 -976.16260652 747.75654658 -974.0625 750.375 C-940.31980093 789.79994153 -884.4164134 807.87112727 -834.65625 814.45703125 C-831 815 -831 815 -829 816 C-829.08564209 815.18998535 -829.17128418 814.3799707 -829.25952148 813.54541016 C-834.99028795 757.97129269 -832.04610265 703.50712912 -827 648 C-766.28 648 -705.56 648 -643 648 C-643 575.4 -643 502.8 -643 428 C-572.38 428 -501.76 428 -429 428 C-429 357.38 -429 286.76 -429 214 C-287.43 214 -145.86 214 0 214 C0 143.38 0 72.76 0 0 Z " fill="#354548" transform="translate(1125,0)"/>
<path d="M0 0 C528.66 0 1057.32 0 1602 0 C1594.1202864 13.50808046 1594.1202864 13.50808046 1590.58203125 18.69921875 C1590.20288574 19.25756409 1589.82374023 19.81590942 1589.43310547 20.39117432 C1588.23045758 22.15953901 1587.02191985 23.92376146 1585.8125 25.6875 C1584.96236005 26.93228859 1584.1123452 28.17716263 1583.26245117 29.42211914 C1580.84894271 32.95313523 1578.42565898 36.47731989 1576 40 C1575.11441406 41.28874023 1575.11441406 41.28874023 1574.2109375 42.60351562 C1566.43345071 53.88868804 1558.17073835 64.78685569 1549.81103516 75.64550781 C1548.22685888 77.70506511 1546.64863925 79.76892053 1545.07421875 81.8359375 C1537.69049949 91.51721687 1529.97189333 100.89616595 1522.08178711 110.16625977 C1519.20812163 113.54830834 1516.4013944 116.97463446 1513.625 120.4375 C1509.00591376 126.119973 1504.02540953 131.43052979 1499.015625 136.765625 C1496.6616963 139.27628878 1494.37005786 141.82837871 1492.125 144.4375 C1489.49068637 147.49356334 1486.69671568 150.32637487 1483.81713867 153.15039062 C1482.1715241 154.82541091 1480.66235221 156.54338928 1479.15234375 158.33984375 C1474.03348156 164.22497835 1468.47028808 169.67878879 1462.94848633 175.18188477 C1461.06671726 177.05829475 1459.19035262 178.93998969 1457.31445312 180.82226562 C1451.92988872 186.20986384 1446.56124941 191.55528235 1440.75561523 196.49389648 C1437.57374065 199.22355638 1434.55029564 202.12524662 1431.5 205 C1426.41372753 209.76678456 1421.29875408 214.4693222 1416 219 C1414.96706354 219.89799555 1413.9345526 220.79648068 1412.90234375 221.6953125 C1406.5220684 227.23173626 1400.05502947 232.61177505 1393.38110352 237.79077148 C1389.63574437 240.70026537 1385.94906486 243.66969501 1382.2890625 246.68579102 C1373.53577158 253.8897408 1364.50535637 260.65548443 1355.32763672 267.30761719 C1353.15926972 268.88419785 1351.00194752 270.47457939 1348.84765625 272.0703125 C1321.12248194 292.4974885 1291.86450726 310.89342137 1262 328 C1261.01821777 328.56444824 1260.03643555 329.12889648 1259.02490234 329.71044922 C1209.22383504 358.26591806 1156.97051086 382.44262795 1103 402 C1102.28384521 402.26063232 1101.56769043 402.52126465 1100.82983398 402.78979492 C1019.47960849 432.38044714 934.95675017 452.59338448 723 476 C722.08200623 476.04163269 721.16401245 476.08326538 720.21820068 476.12615967 C699.20626097 477.05680864 678.21571222 477.15649968 657.18701172 477.13037109 C652.5382914 477.12464909 647.889628 477.12808101 643.24090958 477.13380814 C594.70677784 477.18469458 594.70677784 477.18469458 580 475 C578.04340433 474.85455972 576.08473021 474.7348428 574.125 474.640625 C528.96336236 472.20502805 484.36089176 464.67108784 440.44384766 454.06713867 C436.67810571 453.15884117 432.90654444 452.27754255 429.13310242 451.40187073 C422.70594848 449.90717038 416.30949906 448.37825586 410 446.4375 C409.20279541 446.19410889 408.40559082 445.95071777 407.58422852 445.69995117 C404.7182727 444.81382146 401.85858025 443.9096495 399 443 C397.78683105 442.61424805 396.57366211 442.22849609 395.32373047 441.83105469 C376.17747775 435.71238704 357.48288291 428.93298878 339 421 C338.18644043 420.65404785 337.37288086 420.3080957 336.53466797 419.95166016 C331.3140771 417.72362083 326.14702271 415.39272957 321 413 C320.00564941 412.53899902 319.01129883 412.07799805 317.98681641 411.60302734 C302.8324946 404.53913252 288.07133084 397.00854162 273.64648438 388.55126953 C271.14118165 387.08275537 268.62615158 385.6323222 266.109375 384.18359375 C239.23581661 368.54791969 213.65334148 350.24081584 189.72363281 330.42382812 C187.28769935 328.41159527 184.82957525 326.4269225 182.375 324.4375 C171.79997242 315.76217797 161.55440075 306.77688981 151.55712891 297.44384766 C150.05223968 296.04843924 148.53528159 294.66794029 147.01171875 293.29296875 C141.28821623 288.11528369 135.71846889 282.82061145 130.25 277.375 C129.62875244 276.75834473 129.00750488 276.14168945 128.36743164 275.50634766 C124 271.12347903 124 271.12347903 124 270 C127.08339931 269.97213796 130.16652996 269.9527647 133.25 269.9375 C134.08402344 269.92912109 134.91804687 269.92074219 135.77734375 269.91210938 C141.04496702 269.89288447 146.28017557 270.05356427 151.53746033 270.35755348 C163.55065362 271.04201344 175.53271918 271.14664621 187.5625 271.1328125 C189.68969738 271.13348969 191.81689468 271.13446313 193.9440918 271.13571167 C198.38135522 271.13717429 202.81859834 271.13508427 207.25585938 271.13037109 C212.8266209 271.12472982 218.39733408 271.12802337 223.96809387 271.13380814 C244.56633933 271.15198948 265.15821567 271.11531384 285.75 270.5546875 C286.49520905 270.53527225 287.24041809 270.51585701 288.00820923 270.49585342 C290.08379906 270.43990404 292.1590671 270.37752162 294.234375 270.31201172 C295.38131836 270.2761496 296.52826172 270.24028748 297.70996094 270.20333862 C301.18164098 269.9887738 304.56156724 269.51699989 308 269 C310.77313095 268.78295599 313.5404737 268.58901542 316.31640625 268.421875 C317.96425001 268.31566402 319.61203425 268.2085264 321.25976562 268.10058594 C322.12255127 268.04414917 322.98533691 267.9877124 323.87426758 267.92956543 C345.05955651 266.51445508 366.01172535 264.19277196 387 261 C387.82435547 260.87496094 388.64871094 260.74992187 389.49804688 260.62109375 C445.99754241 252.10209522 445.99754241 252.10209522 500 234 C501.29165425 232.25160856 501.29165425 232.25160856 502 230 C502.391875 229.113125 502.78375 228.22625 503.1875 227.3125 C504.43913608 222.20967597 504.47313967 217.61012666 501.8359375 212.9375 C498.49888303 208.65464935 495.49817071 206.77167308 490 206 C485.40874713 206.4885956 481.20242126 207.42323012 476.80859375 208.8203125 C475.63264648 209.18729248 474.45669922 209.55427246 473.24511719 209.93237305 C471.98860352 210.32593994 470.73208984 210.71950684 469.4375 211.125 C443.0594518 219.22240779 416.21583252 224.64456134 389 229 C387.80149414 229.19190918 386.60298828 229.38381836 385.36816406 229.58154297 C369.94955231 231.99001993 354.46743132 233.64185451 338.9375 235.125 C338.11105988 235.20558655 337.28461975 235.2861731 336.43313599 235.36920166 C329.96112688 235.99350811 323.48394766 236.51634168 317 237 C315.83543274 237.08933807 314.67086548 237.17867615 313.4710083 237.27072144 C285.63228283 239.32772259 257.78561783 239.34226192 229.88330078 239.31567383 C224.67064696 239.31108147 219.45822869 239.317834 214.24560547 239.33618164 C196.1606041 239.39859998 178.08258554 239.31495797 160 239 C159.31497658 238.98841323 158.62995316 238.97682646 157.92417145 238.96488857 C148.8212211 238.80848144 139.72413848 238.57743486 130.62594604 238.24318504 C127.98230068 238.14741015 125.34173309 238.07728479 122.69656372 238.01918983 C119.03640813 237.9338285 115.38390812 237.78621872 111.7265625 237.62182617 C110.65241592 237.60879393 109.57826935 237.59576168 108.47157288 237.58233452 C103.85105621 237.31379524 101.06601004 236.97696826 97.58211231 233.78407383 C95.54751822 231.26802704 93.74337775 228.72364687 92 226 C91.20763817 224.89378351 90.41282542 223.7893121 89.61401367 222.68774414 C88.97181885 221.72989014 88.32962402 220.77203613 87.66796875 219.78515625 C86.93795654 218.6969458 86.20794434 217.60873535 85.45581055 216.48754883 C84.69899911 215.34633503 83.94291074 214.20464144 83.1875 213.0625 C82.79470856 212.47085052 82.40191711 211.87920105 81.9972229 211.2696228 C75.23885558 201.07464667 68.90134954 190.71476466 63 180 C62.50226074 179.10845215 62.00452148 178.2169043 61.49169922 177.29833984 C34.32580276 128.60002776 15.51086052 77.34229271 3.625 22.9375 C3.37379395 21.78958984 3.12258789 20.64167969 2.86376953 19.45898438 C2.63286621 18.36779297 2.40196289 17.27660156 2.1640625 16.15234375 C1.96248535 15.20351318 1.7609082 14.25468262 1.55322266 13.27709961 C0.81149908 8.88338579 0.44337673 4.43376725 0 0 Z " fill="#1D90B3" transform="translate(337,845)"/>
<path d="M0 0 C4.52106541 1.42987992 7.46172346 3.95904646 10.8125 7.1875 C11.79715528 8.11957022 12.78285283 9.05054046 13.76953125 9.98046875 C14.55082397 10.72031006 14.55082397 10.72031006 15.34790039 11.47509766 C17.04499037 13.0415265 18.78925176 14.53710545 20.546875 16.03515625 C26.15896047 20.92008333 31.38650899 26.20048644 36.64477539 31.45947266 C38.42510252 33.23761772 40.21328377 35.00759561 42.00195312 36.77734375 C48.80156453 43.54361997 55.06489544 50.45337698 61 58 C61.99978811 59.20914611 63.00318613 60.41532539 64.01171875 61.6171875 C77.61506031 78.07364572 88.92911377 96.20322333 99 115 C99.40557129 115.75361816 99.81114258 116.50723633 100.22900391 117.28369141 C112.15290153 139.83769132 119.28011534 164.85115573 123 190 C123.16580566 191.07000244 123.16580566 191.07000244 123.33496094 192.16162109 C124.25846014 199.0262985 124.15097288 205.94375396 124.13037109 212.85644531 C124.12501124 214.9955148 124.13034373 217.13437438 124.13671875 219.2734375 C124.13975975 226.25313531 123.97289347 233.08164645 123 240 C123.57105469 239.73896484 124.14210938 239.47792969 124.73046875 239.20898438 C152.72524728 226.50229237 181.55254586 217.55057706 212 213 C213.09320557 212.81759766 214.18641113 212.63519531 215.31274414 212.44726562 C228.86950719 210.42298111 242.50783116 210.60254657 256.1875 210.625 C258.13127533 210.62631424 258.13127533 210.62631424 260.11431885 210.62765503 C278.73977413 210.66929725 296.73886179 211.03802864 315 215 C316.12712402 215.23074219 317.25424805 215.46148437 318.41552734 215.69921875 C342.88629522 220.81180698 366.34402904 229.47047395 388 242 C387.40647067 246.63307224 385.46247548 250.30926755 383.1875 254.3125 C382.59678711 255.35603638 382.59678711 255.35603638 381.99414062 256.4206543 C377.6998864 263.80534456 372.6548039 270.55540487 367.37109375 277.25439453 C366.20699487 278.73646486 365.06927931 280.23919819 363.9375 281.74609375 C337.09564542 316.43486147 299.47315453 338.84539026 259 354 C258.1838623 354.30566895 257.36772461 354.61133789 256.52685547 354.92626953 C234.7307443 362.94545955 211.97994989 367.13867087 189 370 C187.84951172 370.15098145 186.69902344 370.30196289 185.51367188 370.45751953 C154.455953 374.44071065 115.60736519 378.17708303 85 370 C84.86464844 370.51812256 84.72929688 371.03624512 84.58984375 371.57006836 C82.09172715 380.50139617 78.50773168 388.99284732 75 397.5625 C74.66541779 398.38324005 74.33083557 399.2039801 73.9861145 400.04959106 C68.23769774 414.14480823 62.31585288 428.14823528 56 442 C55.48147461 443.13856445 54.96294922 444.27712891 54.42871094 445.45019531 C41.92894711 472.78743691 28.70232446 499.77365554 14 526 C13.54415527 526.8156543 13.08831055 527.63130859 12.61865234 528.47167969 C10.09280078 532.98894571 7.55385424 537.49850945 5 542 C-28.24158418 538.36224173 -66.55927689 524.74941268 -92.77734375 503.65234375 C-94.80591786 501.80113013 -94.80591786 501.80113013 -97 502 C-98.49825323 503.52029885 -98.49825323 503.52029885 -100.0625 505.5 C-124.63648376 534.16123773 -167.92756346 544.692329 -203.77368164 549.65869141 C-206.14122189 550.0216502 -208.47833164 550.48148669 -210.828125 550.9453125 C-238.72692695 556.04702691 -267.45633199 556.39281175 -295.73503494 556.37606049 C-297.89700354 556.3750195 -300.0589499 556.37731568 -302.22091675 556.37994385 C-329.15320093 556.39175284 -355.94294756 555.08194486 -382.6875 551.75 C-383.55644897 551.64395447 -384.42539795 551.53790894 -385.32067871 551.4286499 C-511.29832699 535.99475394 -511.29832699 535.99475394 -551 498 C-552.80571219 495.68507697 -554.38008733 493.36940797 -555.87890625 490.84765625 C-556.98984034 488.85167894 -556.98984034 488.85167894 -559 487 C-559.78761719 487.82242187 -560.57523438 488.64484375 -561.38671875 489.4921875 C-609.41260341 539.00141083 -684.60175811 555.17712071 -751.359375 556.25 C-770.2932398 556.4763311 -789.1705053 556.13657603 -808 554 C-809.12132324 553.87641113 -810.24264648 553.75282227 -811.39794922 553.62548828 C-847.28947785 549.5362035 -882.50312582 541.08871161 -915 525 C-915.69544922 524.65582031 -916.39089844 524.31164062 -917.10742188 523.95703125 C-936.37853559 514.29370622 -952.91024991 501.3042963 -968 486 C-968.24363281 486.88171875 -968.48726562 487.7634375 -968.73828125 488.671875 C-974.36831862 503.52262372 -992.81112045 512.42811364 -1006.35107422 518.67626953 C-1034.6644881 531.31131825 -1064.37709183 539.12398513 -1094.86401367 544.43847656 C-1097.77021868 544.95885582 -1100.66631614 545.52086686 -1103.56343079 546.08926392 C-1188.65369046 562.60688061 -1288.71194738 564.98221378 -1410 520 C-1417.23575899 514.7715806 -1423.32532453 508.87790179 -1429 502 C-1432.50473885 503.25298954 -1435.00144606 504.64075699 -1437.8125 507.0625 C-1451.54054523 517.90160912 -1467.78581436 523.89684729 -1484 530 C-1484.92103516 530.350625 -1485.84207031 530.70125 -1486.79101562 531.0625 C-1510.0383971 539.74906631 -1534.54027237 543.54345262 -1559 547 C-1560.25989746 547.18079102 -1561.51979492 547.36158203 -1562.81787109 547.54785156 C-1582.55476544 550.28840584 -1602.1228599 550.34180267 -1622 550 C-1625.82020554 527.64773355 -1626.33688814 505.02042748 -1626.26074219 482.39770508 C-1626.24940987 479.00924223 -1626.25591076 475.62109891 -1626.26788712 472.2326479 C-1626.27712095 468.85950451 -1626.27053319 465.48643347 -1626.265625 462.11328125 C-1626.26967346 460.95492264 -1626.27372192 459.79656403 -1626.27789307 458.60310364 C-1626.22734913 449.02183787 -1625.6188495 439.49421899 -1624.98382568 429.93864441 C-1624.88850129 428.48609681 -1624.79332532 427.03353947 -1624.69830132 425.58097219 C-1624.46724496 422.05386745 -1624.23418139 418.5268988 -1624 415 C-1622.79513756 414.99959982 -1621.59027512 414.99919963 -1620.3489017 414.99878732 C-1579.0908366 414.98506111 -1537.83277174 414.97067097 -1496.57470703 414.95581055 C-1495.74346778 414.95551121 -1494.91222853 414.95521187 -1494.05580022 414.95490346 C-1404.95076128 414.92279733 -1315.84572541 414.88631781 -1226.74069214 414.84101868 C-1224.76040911 414.84001305 -1222.78012609 414.83900743 -1220.79984307 414.83800181 C-1179.22902841 414.81687819 -1137.6582141 414.79514074 -1096.08740014 414.77269462 C-1075.2035928 414.76141909 -1054.3197854 414.75026145 -1033.43597794 414.73921531 C-1030.28582373 414.73754841 -1027.13566952 414.73587813 -1023.98551532 414.73420772 C-975.5036912 414.70852922 -927.0218675 414.68537213 -878.54003906 414.66955566 C-876.9775999 414.66904587 -876.9775999 414.66904587 -875.38359631 414.66852577 C-858.59054827 414.66306189 -841.79750016 414.6578105 -825.00445205 414.65258733 C-776.60844879 414.6375314 -728.21244839 414.62089239 -679.81645012 414.59387684 C-678.32216314 414.59304385 -678.32216314 414.59304385 -676.79768855 414.59219403 C-654.92366538 414.57997213 -633.04964277 414.56694295 -611.17562054 414.55315043 C-602.37292835 414.54761416 -593.57023608 414.542194 -584.76754379 414.53681374 C-583.80415509 414.53622211 -582.84076639 414.53563048 -581.84818409 414.53502092 C-550.85855101 414.51604742 -519.86892392 414.50650748 -488.87928563 414.50196405 C-457.63664277 414.49734004 -426.39401897 414.48336485 -395.15138682 414.45657366 C-390.82401575 414.45286518 -386.49664459 414.4492628 -382.16927338 414.44572449 C-380.8969542 414.44467841 -380.8969542 414.44467841 -379.5989316 414.44361119 C-366.22264543 414.43288737 -352.84637842 414.43212866 -339.4700892 414.43563199 C-326.28398428 414.43887726 -313.09792086 414.43132963 -299.91182839 414.41267589 C-292.87154589 414.40300465 -285.83134005 414.39786239 -278.79105414 414.40660437 C-244.82678835 414.44341986 -211.41768732 413.9146356 -177.81616211 408.42993164 C-175.50366469 408.05290763 -173.18879423 407.69436257 -170.87304688 407.33789062 C-154.39504816 404.75972949 -138.12183452 401.26519279 -122 397 C-121.29120697 396.81291473 -120.58241394 396.62582947 -119.85214233 396.43307495 C-94.51777282 389.69336751 -69.76027008 381.10040746 -46 370 C-45.03674805 369.5580127 -44.07349609 369.11602539 -43.08105469 368.66064453 C-21.17925248 358.60238291 -1.09756388 346.75976914 18 332 C18.68835937 331.46890625 19.37671875 330.9378125 20.0859375 330.390625 C21.43506615 329.31385565 22.72756426 328.16639943 24 327 C24 326.34 24 325.68 24 325 C22.54995757 323.53358246 22.54995757 323.53358246 20.625 322 C-21.30881749 286.01476258 -39.88672493 228.69532293 -44 175 C-44.14976434 171.23668973 -44.18693622 167.47697642 -44.203125 163.7109375 C-44.20882507 162.65000885 -44.21452515 161.5890802 -44.22039795 160.4960022 C-44.22979663 158.25548278 -44.23636137 156.01494985 -44.24023438 153.77441406 C-44.2498343 150.43267901 -44.28086366 147.09158846 -44.3125 143.75 C-44.409028 124.29924811 -42.5608648 105.19941827 -38.375 86.1875 C-38.12121582 85.03209717 -37.86743164 83.87669434 -37.60595703 82.6862793 C-31.1362078 54.44193592 -20.56006717 27.22266173 -3 4 C-2.40316406 3.20207031 -1.80632812 2.40414063 -1.19140625 1.58203125 C-0.79824219 1.05996094 -0.40507813 0.53789062 0 0 Z " fill="#36B0D8" transform="translate(1955,269)"/>
<path d="M0 0 C528.66 0 1057.32 0 1602 0 C1594.1202864 13.50808046 1594.1202864 13.50808046 1590.58203125 18.69921875 C1590.20288574 19.25756409 1589.82374023 19.81590942 1589.43310547 20.39117432 C1588.23045758 22.15953901 1587.02191985 23.92376146 1585.8125 25.6875 C1584.96236005 26.93228859 1584.1123452 28.17716263 1583.26245117 29.42211914 C1580.84894271 32.95313523 1578.42565898 36.47731989 1576 40 C1575.11441406 41.28874023 1575.11441406 41.28874023 1574.2109375 42.60351562 C1566.43345071 53.88868804 1558.17073835 64.78685569 1549.81103516 75.64550781 C1548.22685888 77.70506511 1546.64863925 79.76892053 1545.07421875 81.8359375 C1537.69049949 91.51721687 1529.97189333 100.89616595 1522.08178711 110.16625977 C1519.20812163 113.54830834 1516.4013944 116.97463446 1513.625 120.4375 C1509.00591376 126.119973 1504.02540953 131.43052979 1499.015625 136.765625 C1496.6616963 139.27628878 1494.37005786 141.82837871 1492.125 144.4375 C1489.49068637 147.49356334 1486.69671568 150.32637487 1483.81713867 153.15039062 C1482.1715241 154.82541091 1480.66235221 156.54338928 1479.15234375 158.33984375 C1474.03348156 164.22497835 1468.47028808 169.67878879 1462.94848633 175.18188477 C1461.06671726 177.05829475 1459.19035262 178.93998969 1457.31445312 180.82226562 C1451.92988872 186.20986384 1446.56124941 191.55528235 1440.75561523 196.49389648 C1437.57374065 199.22355638 1434.55029564 202.12524662 1431.5 205 C1426.41372753 209.76678456 1421.29875408 214.4693222 1416 219 C1414.96706354 219.89799555 1413.9345526 220.79648068 1412.90234375 221.6953125 C1406.5220684 227.23173626 1400.05502947 232.61177505 1393.38110352 237.79077148 C1389.63574437 240.70026537 1385.94906486 243.66969501 1382.2890625 246.68579102 C1373.53577158 253.8897408 1364.50535637 260.65548443 1355.32763672 267.30761719 C1353.15926972 268.88419785 1351.00194752 270.47457939 1348.84765625 272.0703125 C1321.12248194 292.4974885 1291.86450726 310.89342137 1262 328 C1261.01821777 328.56444824 1260.03643555 329.12889648 1259.02490234 329.71044922 C1209.22383504 358.26591806 1156.97051086 382.44262795 1103 402 C1102.28384521 402.26063232 1101.56769043 402.52126465 1100.82983398 402.78979492 C1019.47960849 432.38044714 934.95675017 452.59338448 726.10253906 475.84912109 C723.25863508 475.98742237 720.42515837 476.18332744 717.5859375 476.39453125 C707.16294353 477.01978393 700.13348531 474.49420109 691.25976562 469.28759766 C688.79806521 467.88493906 686.2958713 466.59894696 683.765625 465.32421875 C661.72597376 454.20483946 640.71406569 441.37584459 620.5625 427.125 C619.84368652 426.61670654 619.12487305 426.10841309 618.38427734 425.5847168 C600.76139085 413.05084445 582.95801017 399.53155148 567.92431641 383.92163086 C566.09114817 382.09102097 564.19741447 380.41365921 562.22265625 378.73828125 C558.16320465 375.20984627 554.46220436 371.44630432 550.8125 367.5 C549.84812012 366.46178101 549.84812012 366.46178101 548.86425781 365.40258789 C519 333.08146971 519 333.08146971 519 328 C519.63010986 328.03029297 520.26021973 328.06058594 520.90942383 328.09179688 C562.148628 329.96319806 603.83743591 330.43476624 645 327 C645.74807922 326.9391925 646.49615845 326.87838501 647.26690674 326.81573486 C689.90077223 323.33648997 732.16178947 316.85478611 774 308 C774.70626526 307.85089172 775.41253052 307.70178345 776.14019775 307.54815674 C861.08897664 289.55514193 944.31349347 262.07282477 1101 192 C1101.82939087 191.59078308 1102.65878174 191.18156616 1103.51330566 190.75994873 C1134.23883093 175.66301521 1134.23883093 175.66301521 1164.38964844 159.46337891 C1167.36695784 157.79428121 1170.35844237 156.15228994 1173.3515625 154.51171875 C1188.31231133 146.2927484 1203.05784587 137.75419502 1217.69775391 128.97753906 C1220.95442115 127.02729474 1224.21671816 125.08679961 1227.48046875 123.1484375 C1240.19119643 115.58419942 1252.74443806 107.81049197 1265.18261719 99.80664062 C1268.09657136 97.93807383 1271.01978971 96.08477053 1273.9453125 94.234375 C1296.7293389 79.79512293 1318.98923728 64.59010221 1341 49 C1341.62970703 48.55398438 1342.25941406 48.10796875 1342.90820312 47.6484375 C1346.33742589 45.21551775 1349.75709253 42.76962944 1353.17041016 40.31445312 C1355.19850344 38.85738691 1357.23021237 37.40542825 1359.26171875 35.953125 C1369.00306003 28.97197105 1378.57215442 21.79658897 1388.06640625 14.48388672 C1390.98857212 12.24134579 1393.92856272 10.02301361 1396.875 7.8125 C1397.80054688 7.11769531 1398.72609375 6.42289063 1399.6796875 5.70703125 C1401.42075361 4.42614592 1403.20154327 3.19897115 1405 2 C972.04 1.67 539.08 1.34 93 1 C105.13956539 40.14922356 105.13956539 40.14922356 120.96191406 77.87255859 C121.703029 79.39139104 122.43876872 80.91285118 123.17089844 82.43603516 C132.12394274 101.03322376 142.13617514 119.08571154 154 136 C154.37157227 136.53463867 154.74314453 137.06927734 155.12597656 137.62011719 C172.97705991 163.2655411 193.57787721 187.28149091 217 208 C217.58072266 208.52013672 218.16144531 209.04027344 218.75976562 209.57617188 C228.71262083 218.48135811 239.08363195 226.75165714 250.0234375 234.41796875 C251.69721991 235.59096084 253.35072203 236.79279654 255 238 C255 238.33 255 238.66 255 239 C162.52461205 239.5828725 162.52461205 239.5828725 128.34289551 238.26455688 C125.83832604 238.17209833 123.3330941 238.09601974 120.82751465 238.03695679 C102.44252276 237.57342645 102.44252276 237.57342645 97.03588867 234.09057617 C94.87854529 231.51193165 93.49278286 229.00792393 92 226 C90.57727204 223.91371186 89.13196351 221.84269663 87.66796875 219.78515625 C86.16752228 217.54847923 84.67323847 215.30885867 83.1875 213.0625 C82.79470856 212.47085052 82.40191711 211.87920105 81.9972229 211.2696228 C75.23885558 201.07464667 68.90134954 190.71476466 63 180 C62.50226074 179.10845215 62.00452148 178.2169043 61.49169922 177.29833984 C34.32580276 128.60002776 15.51086052 77.34229271 3.625 22.9375 C3.37379395 21.78958984 3.12258789 20.64167969 2.86376953 19.45898438 C2.63286621 18.36779297 2.40196289 17.27660156 2.1640625 16.15234375 C1.96248535 15.20351318 1.7609082 14.25468262 1.55322266 13.27709961 C0.81149908 8.88338579 0.44337673 4.43376725 0 0 Z " fill="#1B80A4" transform="translate(337,845)"/>
<path d="M0 0 C7.41479908 6.0516744 12.20876216 13.84156941 13.75 23.3125 C13.84005406 25.3052956 13.87904198 27.30071673 13.88142776 29.29554462 C13.88526891 30.50292075 13.88911005 31.71029688 13.8930676 32.95426017 C13.8922874 34.29073995 13.89140862 35.62721968 13.89044189 36.96369934 C13.89302651 38.38634134 13.89603994 39.80898261 13.8994453 41.23162287 C13.90750863 45.14174273 13.90930451 49.05184422 13.91004276 52.9619714 C13.91189472 57.17983754 13.91944326 61.39769417 13.92617798 65.61555481 C13.93976184 74.8438473 13.94578743 84.07213544 13.95018864 93.30043626 C13.95295361 99.07085846 13.95719169 104.84127899 13.96169281 110.61170006 C13.97389054 126.60791958 13.98418561 142.60413776 13.9875679 158.60036182 C13.98778747 159.62437744 13.98800703 160.64839306 13.98823325 161.70343946 C13.98845153 162.72984983 13.98866981 163.75626021 13.9888947 164.81377393 C13.98933816 166.89350879 13.98978472 168.97324365 13.99023438 171.05297852 C13.9904558 172.0845895 13.99067723 173.11620048 13.99090537 174.1790724 C13.99484379 190.85266605 14.01226621 207.52621572 14.0355939 224.19979242 C14.05938561 241.34461648 14.07177347 258.48941858 14.07293582 275.6342594 C14.07384874 285.24940519 14.07950278 294.86449386 14.09775543 304.47962379 C14.11326298 312.6774769 14.11821516 320.87525526 14.11001733 329.07312027 C14.10614676 333.2462087 14.1068608 337.41914714 14.12107468 341.59221649 C14.19262758 363.88399828 13.79271545 386.14067584 7.9375 407.8125 C7.67743164 408.80548096 7.41736328 409.79846191 7.14941406 410.8215332 C4.88802468 419.23081924 2.21291972 427.32459878 -1.25 435.3125 C-1.58451172 436.09625 -1.91902344 436.88 -2.26367188 437.6875 C-10.6959406 457.16739352 -22.03683527 474.56936902 -36.25 490.3125 C-37.35021484 491.59253906 -37.35021484 491.59253906 -38.47265625 492.8984375 C-74.09455092 533.88624371 -127.09189757 559.63947618 -180.94140625 563.875 C-238.30763748 567.72438299 -296.68769187 556.76929616 -341.25 518.3125 C-342.36761719 517.35923828 -342.36761719 517.35923828 -343.5078125 516.38671875 C-357.33365713 504.27199351 -369.59966229 491.29597477 -380.25 476.3125 C-380.69005371 475.70116211 -381.13010742 475.08982422 -381.58349609 474.45996094 C-393.9338966 457.17414127 -403.48166817 438.43005223 -410.25 418.3125 C-410.49830566 417.58788574 -410.74661133 416.86327148 -411.00244141 416.11669922 C-418.52763949 393.80185333 -420.46998998 370.7058439 -420.4375 347.3125 C-420.43656342 346.4430072 -420.43562683 345.5735144 -420.43466187 344.67767334 C-420.40533867 332.13052209 -420.30751747 319.7200295 -418.25 307.3125 C-418.09402344 306.35843262 -417.93804687 305.40436523 -417.77734375 304.42138672 C-410.70407515 262.66945399 -392.44072146 226.80800423 -363.25 196.3125 C-362.77981445 195.81508301 -362.30962891 195.31766602 -361.82519531 194.80517578 C-354.22869435 186.79979071 -346.09283097 179.90108363 -337.25 173.3125 C-336.69618652 172.89258789 -336.14237305 172.47267578 -335.57177734 172.04003906 C-309.13509545 152.04276152 -278.02172583 137.82537779 -245.25 132.3125 C-244.28199463 132.13734863 -243.31398926 131.96219727 -242.31665039 131.78173828 C-230.70323932 129.93473058 -219.10025685 129.94027717 -207.36547852 129.94189453 C-203.85057139 129.93754709 -200.33694979 129.90119267 -196.82226562 129.86328125 C-148.61041982 129.62308259 -104.6068302 146.50799435 -67.26953125 176.66015625 C-66.24841248 177.48102722 -66.24841248 177.48102722 -65.20666504 178.31848145 C-63.55310375 179.64815677 -61.9013563 180.98008724 -60.25 182.3125 C-60.24780016 181.08308323 -60.24780016 181.08308323 -60.24555588 179.82882977 C-60.20844978 159.85480238 -60.14938466 139.88094416 -60.06609726 119.90705395 C-60.02634501 110.24768495 -59.99393316 100.58839697 -59.97900391 90.92895508 C-59.9659676 82.50647008 -59.93895252 74.08416364 -59.89538693 65.66177922 C-59.87281655 61.20515834 -59.85708666 56.74875731 -59.85811615 52.2920742 C-59.85886539 48.09028482 -59.84080957 43.88898064 -59.80883217 39.68731689 C-59.80037031 38.15196765 -59.7985578 36.61656375 -59.80419731 35.08120155 C-59.84565101 22.05168189 -58.01977531 12.09395821 -48.7578125 2.48046875 C-36.10903576 -8.45422143 -13.78019318 -9.4884257 0 0 Z M-305.34375 245.40234375 C-307.06111713 247.3181802 -308.66074592 249.28914411 -310.25 251.3125 C-310.9925 252.20710938 -311.735 253.10171875 -312.5 254.0234375 C-319.85919905 263.15344383 -325.69904548 272.99915434 -331.25 283.3125 C-331.60223633 283.96476562 -331.95447266 284.61703125 -332.31738281 285.2890625 C-342.39199122 304.32450351 -346.65789483 325.53172907 -346.5625 346.9375 C-346.55758545 348.25129639 -346.5526709 349.56509277 -346.54760742 350.91870117 C-346.42326386 361.30298248 -345.60343462 371.19839071 -343.25 381.3125 C-343.01651855 382.35108154 -343.01651855 382.35108154 -342.77832031 383.41064453 C-337.40869442 406.38428348 -325.47897531 426.40163497 -309.25 443.3125 C-308.43144531 444.19421875 -307.61289062 445.0759375 -306.76953125 445.984375 C-282.18403283 471.69564956 -245.49452689 489.52617474 -209.82421875 490.515625 C-172.510438 491.01508089 -137.1886096 481.03783079 -109.8359375 454.7578125 C-107.25 452.3125 -107.25 452.3125 -104.67578125 450.30078125 C-100.17523662 446.61192905 -96.84337523 441.85991921 -93.25 437.3125 C-92.42886719 436.30703125 -91.60773438 435.3015625 -90.76171875 434.265625 C-84.21661944 426.15082307 -79.04635052 417.55628864 -74.25 408.3125 C-73.69441406 407.25546875 -73.13882812 406.1984375 -72.56640625 405.109375 C-66.05358331 391.91456489 -61.62182695 376.96847396 -60.25 362.3125 C-60.18441895 361.67763672 -60.11883789 361.04277344 -60.05126953 360.38867188 C-57.49190115 334.48810934 -61.51500892 308.59453435 -73.25 285.3125 C-73.57452148 284.65830078 -73.89904297 284.00410156 -74.23339844 283.33007812 C-91.02508207 250.00679502 -123.19621812 222.67543061 -158.43310547 210.56201172 C-166.88509566 207.81162811 -175.42682066 205.49075066 -184.25 204.3125 C-185.08015625 204.20164062 -185.9103125 204.09078125 -186.765625 203.9765625 C-231.38390364 199.03381906 -273.61049818 213.72829576 -305.34375 245.40234375 Z " fill="#354447" transform="translate(421.25,1446.6875)"/>
<path d="M0 0 C1.01094727 0.23605957 2.02189453 0.47211914 3.06347656 0.71533203 C37.29687878 8.99347466 71.17445659 23.83680914 98 47 C98.76828125 47.65871094 99.5365625 48.31742188 100.328125 48.99609375 C116.02864277 62.79735534 129.00597512 77.52729615 139.95947266 95.31103516 C140.96705687 96.94652732 141.98915757 98.57304865 143.01171875 100.19921875 C149.37800196 110.62283969 152.7762857 120.27483582 150.53125 132.56640625 C145.02264656 153.51877291 125.6245967 167.11016287 109.38061523 179.73022461 C100.50485088 186.67182683 92.08837726 194.17685357 83.75 201.75 C80.45707034 204.73863253 77.08683231 207.58383605 73.625 210.375 C69.07139288 214.05636689 64.76417484 217.92774473 60.48095703 221.91357422 C56.39357285 225.69476753 52.11965827 229.19682668 47.78125 232.6875 C44.75980664 235.19971133 41.87559922 237.82402457 39 240.5 C34.38998361 244.7895776 29.62216764 248.80410897 24.71484375 252.75390625 C21.89326505 255.0883059 19.19409288 257.51990598 16.5 260 C12.05272888 264.09351091 7.45282537 267.92442499 2.75 271.71875 C-0.08099578 274.06718968 -2.79383598 276.50909902 -5.5 279 C-9.94727112 283.09351091 -14.54717463 286.92442499 -19.25 290.71875 C-22.08099578 293.06718968 -24.79383598 295.50909902 -27.5 298 C-31.94727112 302.09351091 -36.54717463 305.92442499 -41.25 309.71875 C-45.03905407 312.86194258 -48.63269352 316.20158595 -52.25390625 319.53515625 C-54.91875166 321.92707297 -57.64831825 324.19254884 -60.4375 326.4375 C-65.01797107 330.12932048 -69.33785394 334.02432428 -73.63574219 338.03466797 C-77.37152234 341.49413302 -81.25882206 344.64118599 -85.35546875 347.66015625 C-87.13081748 348.91917936 -87.13081748 348.91917936 -88 351 C-87.33355469 351.12117188 -86.66710938 351.24234375 -85.98046875 351.3671875 C-85.05878906 351.53476563 -84.13710937 351.70234375 -83.1875 351.875 C-82.18074219 352.05675781 -81.17398437 352.23851562 -80.13671875 352.42578125 C-78.15825952 352.78796495 -76.18140533 353.15913938 -74.20703125 353.54296875 C-48.89463737 358.40090293 -19.06088261 358.44133911 4.77783203 347.94921875 C43.93418226 331.22323658 43.93418226 331.22323658 59 334 C69.59235578 338.35477747 77.26331966 345.16199308 82 355.5390625 C85.70565924 364.65845828 86.8524841 374.90880343 83.375 384.3125 C79.1276294 393.42664942 73.52457886 398.79112935 65 404 C64.4023584 404.36851074 63.8047168 404.73702148 63.18896484 405.11669922 C35.27493538 422.10451919 1.80177847 433.05812621 -31 434 C-32.24910156 434.03996094 -33.49820312 434.07992188 -34.78515625 434.12109375 C-91.53745537 435.32338662 -150.73276065 413.15916056 -192 374 C-193.43472656 372.64455078 -193.43472656 372.64455078 -194.8984375 371.26171875 C-225.77871486 341.54974937 -247.17059606 299.50372241 -257.3125 258.25 C-257.67649902 256.77901855 -257.67649902 256.77901855 -258.04785156 255.27832031 C-261.26584799 241.52787165 -262.3861522 227.89082762 -262.3125 213.8125 C-262.31100952 213.09932617 -262.30951904 212.38615234 -262.3079834 211.65136719 C-262.26286678 199.56819318 -261.39650628 187.85857416 -259 176 C-258.86078125 175.28070312 -258.7215625 174.56140625 -258.578125 173.8203125 C-248.68091167 123.78440067 -219.85644262 74.87357214 -178.7265625 44.28662109 C-177.07614716 43.05674428 -175.44418228 41.80533894 -173.8125 40.55078125 C-163.23610426 32.57068743 -151.63276233 26.29019932 -140 20 C-139.25427734 19.59475098 -138.50855469 19.18950195 -137.74023438 18.77197266 C-120.83200728 9.67346599 -102.74558317 3.10295691 -84 -1 C-83.29311035 -1.16371094 -82.5862207 -1.32742188 -81.85791016 -1.49609375 C-56.03887774 -7.25348223 -25.59105482 -6.00342529 0 0 Z M-149.5390625 117.46484375 C-175.79532441 145.34472609 -186.04850303 184.30369119 -185.24609375 221.828125 C-184.03610899 253.34792713 -173.18958484 280.82493867 -153 305 C-148.53965706 303.58079997 -145.67152442 301.13383273 -142.375 297.9375 C-137.63014498 293.45730997 -132.73381802 289.27422024 -127.6484375 285.1796875 C-125.02724881 283.02242601 -122.50845719 280.78689 -120 278.5 C-116.60401318 275.40444804 -113.13828469 272.44848793 -109.5625 269.5625 C-105.75912497 266.48663412 -102.09917348 263.31246834 -98.5 260 C-94.0301488 255.88621091 -89.40955107 252.02912703 -84.68359375 248.21484375 C-82.05291443 246.04367173 -79.52057576 243.79758643 -77 241.5 C-72.70008209 237.58108748 -68.24080453 233.90829131 -63.71875 230.25 C-60.22091849 227.35524289 -56.88214596 224.30410461 -53.52734375 221.24609375 C-50.93037607 218.93812402 -48.26595987 216.74444137 -45.5625 214.5625 C-41.75912497 211.48663412 -38.09917348 208.31246834 -34.5 205 C-30.0301488 200.88621091 -25.40955107 197.02912703 -20.68359375 193.21484375 C-18.05291443 191.04367173 -15.52057576 188.79758643 -13 186.5 C-9.60401318 183.40444804 -6.13828469 180.44848793 -2.5625 177.5625 C1.24087503 174.48663412 4.90082652 171.31246834 8.5 168 C12.87170463 163.98025464 17.37786886 160.20011805 21.99609375 156.46875 C26.80046742 152.52029206 31.47133012 148.42025185 36.16015625 144.3359375 C39.25148622 141.64422039 42.36272137 138.97705547 45.48266602 136.31860352 C52.10881538 130.67186841 58.60070001 124.90302774 65 119 C49.62290652 94.8552655 13.22195565 79.19825539 -13.61230469 73.1640625 C-64.26585697 62.82757947 -113.14996868 82.13943113 -149.5390625 117.46484375 Z " fill="#354447" transform="translate(1927,1578)"/>
<path d="M0 0 C3.25531104 0.01606719 6.50937481 0.00005385 9.76464844 -0.01904297 C28.04374229 -0.03824858 46.28362492 1.38370738 64.01464844 6.07861328 C64.99925049 6.33425049 65.98385254 6.5898877 66.99829102 6.85327148 C101.7739579 16.2117669 131.05023198 34.69219521 156.88964844 59.39111328 C157.56640625 60.02662109 158.24316406 60.66212891 158.94042969 61.31689453 C164.0747998 66.26241425 168.51742195 71.77277132 172.88964844 77.39111328 C173.66985352 78.38933105 173.66985352 78.38933105 174.46582031 79.40771484 C195.36429884 106.35829612 210.90566761 136.72281133 218.20214844 170.14111328 C218.34958496 170.81158691 218.49702148 171.48206055 218.64892578 172.17285156 C221.64891993 187.13765236 222.26706526 202.2397777 222.20214844 217.45361328 C222.19941422 218.79282333 222.19941422 218.79282333 222.19662476 220.15908813 C222.01343393 273.67885483 206.38483128 323.2993074 169.35449219 362.73876953 C167.39415976 364.84822392 165.52910161 366.9805727 163.70214844 369.20361328 C160.45675171 373.0282168 156.72459533 376.17365784 152.88964844 379.39111328 C152.02597656 380.14263672 151.16230469 380.89416016 150.27246094 381.66845703 C142.23732334 388.56038399 133.75130859 394.60750765 124.88964844 400.39111328 C124.29345703 400.78153809 123.69726562 401.17196289 123.08300781 401.57421875 C72.09276221 434.55191688 8.90496088 441.66028135 -49.94702148 429.5559082 C-86.05008759 421.60830008 -117.60598277 403.83076104 -144.54785156 378.70361328 C-145.52286621 377.79567017 -145.52286621 377.79567017 -146.51757812 376.86938477 C-165.03979981 359.31037569 -179.31946785 337.87989105 -191.11035156 315.39111328 C-191.59930908 314.46443848 -191.59930908 314.46443848 -192.09814453 313.51904297 C-199.72640379 298.83270934 -205.03482257 282.61168987 -208.48535156 266.45361328 C-208.6286792 265.78297852 -208.77200684 265.11234375 -208.91967773 264.42138672 C-211.8080169 249.62325754 -212.45807858 234.90551282 -212.42602539 219.86425781 C-212.42287687 216.79081299 -212.44638381 213.7183456 -212.47167969 210.64501953 C-212.57924926 177.0858255 -205.99025652 143.82104704 -190.02734375 114.10302734 C-189.1954272 112.54993926 -188.38962848 110.98293125 -187.58691406 109.41455078 C-179.67848594 94.25308913 -168.78374525 80.8037646 -157.11035156 68.39111328 C-156.58586426 67.83262695 -156.06137695 67.27414062 -155.52099609 66.69873047 C-146.14931037 56.8026988 -136.21020657 48.28865639 -125.11035156 40.39111328 C-124.40571777 39.88483398 -123.70108398 39.37855469 -122.97509766 38.85693359 C-86.09434014 12.58224156 -45.11839804 -0.26365261 0 0 Z M-85.11035156 104.39111328 C-85.61904785 104.82149902 -86.12774414 105.25188477 -86.65185547 105.6953125 C-104.51398718 120.96446281 -117.45464497 140.05798598 -127.11035156 161.39111328 C-127.39249512 162.01195801 -127.67463867 162.63280273 -127.96533203 163.27246094 C-135.66296214 180.52295434 -138.34554143 197.95623726 -138.36035156 216.76611328 C-138.36102631 217.53155457 -138.36170105 218.29699585 -138.36239624 219.08563232 C-138.34688404 230.13756403 -138.02231253 240.66344907 -135.11035156 251.39111328 C-134.84496582 252.38135498 -134.84496582 252.38135498 -134.57421875 253.39160156 C-128.62309002 275.13531974 -118.38934792 293.872068 -103.11035156 310.39111328 C-102.60052734 310.95008301 -102.09070313 311.50905273 -101.56542969 312.08496094 C-76.2949642 339.51284988 -40.98378662 358.8212284 -3.32275391 360.51660156 C10.66827783 360.96314772 24.20765279 360.45681415 37.88964844 357.39111328 C38.58928711 357.23545898 39.28892578 357.07980469 40.00976562 356.91943359 C64.19653692 351.25966133 84.2445859 338.43206526 101.88964844 321.39111328 C102.67984375 320.65248047 103.47003906 319.91384766 104.28417969 319.15283203 C114.54698827 309.32138493 122.61859397 297.54147145 129.88964844 285.39111328 C130.2430127 284.80104492 130.59637695 284.21097656 130.96044922 283.60302734 C148.30408737 254.13404919 152.88456485 216.51404404 144.88964844 183.39111328 C144.72867676 182.70082031 144.56770508 182.01052734 144.40185547 181.29931641 C140.274589 164.1558964 132.63066318 148.35630697 121.88964844 134.39111328 C120.82810547 132.99699219 120.82810547 132.99699219 119.74511719 131.57470703 C95.28544734 100.59245856 60.23557802 79.60529727 21.11230469 73.99267578 C-16.50896395 69.80624889 -56.10751766 79.61262542 -85.11035156 104.39111328 Z " fill="#354447" transform="translate(689.1103515625,1576.60888671875)"/>
<path d="M0 0 C0.98613281 -0.02449219 1.97226563 -0.04898437 2.98828125 -0.07421875 C12.6264837 -0.11231441 20.84489435 2.48078026 27.9296875 9.20703125 C39.36622819 22.82780396 38.05260437 40.50558912 38.06884766 57.20800781 C38.07815801 59.40679793 38.08832831 61.60558455 38.09928894 63.80436707 C38.12647811 69.74354229 38.14170538 75.68269393 38.15471697 81.62191486 C38.17039618 87.83990988 38.19717105 94.05785711 38.2227478 100.27581787 C38.26679967 111.36936881 38.30250868 122.46292538 38.33376019 133.55651924 C38.36220998 143.6237982 38.39521542 153.69105107 38.43261719 163.75830078 C38.43507874 164.42124811 38.43754028 165.08419545 38.44007643 165.76723209 C38.45245206 169.09343262 38.46491279 172.41963283 38.47740483 175.74583292 C38.58059878 203.28885292 38.66989983 230.83190384 38.75 258.375 C39.47503723 257.64663185 39.47503723 257.64663185 40.21472168 256.90354919 C45.27352946 251.82251395 50.33593622 246.74508467 55.40039062 241.66967773 C57.2870113 239.7786151 59.17214482 237.88610381 61.05664062 235.99291992 C63.77494285 233.26240545 66.49653323 230.53520492 69.21875 227.80859375 C70.05241089 226.96977158 70.88607178 226.1309494 71.74499512 225.26670837 C76.01841323 220.9928869 80.3669162 216.89185227 84.94845581 212.95069885 C87.57849433 210.65036744 90.02411034 208.21261205 92.48828125 205.734375 C93.00329193 205.21790405 93.51830261 204.70143311 94.04891968 204.16931152 C95.15104427 203.0634233 96.25201414 201.95638323 97.35189819 200.8482666 C99.09974922 199.087475 100.85085972 197.32998136 102.6027832 195.57324219 C106.32136351 191.84331875 110.03598204 188.10946563 113.75 184.375 C118.05901429 180.04226227 122.36970377 175.71121847 126.68466187 171.38439941 C128.3970917 169.66555956 130.10644512 167.94370188 131.81567383 166.22167969 C139.29587789 158.70605252 146.96658575 151.59618156 155.375 145.125 C155.90867187 144.70476562 156.44234375 144.28453125 156.9921875 143.8515625 C166.38773739 136.59965748 174.130092 135.68258945 185.75 136.375 C196.10320273 138.19361237 204.06497874 143.05484259 211.0234375 150.80078125 C215.47637266 157.43988593 216.30673284 163.87193561 216.25 171.75 C216.24033203 173.14762573 216.24033203 173.14762573 216.23046875 174.57348633 C216.04385558 181.56841099 215.06086988 186.70778326 210.75 192.375 C210.18023438 193.16261719 209.61046875 193.95023438 209.0234375 194.76171875 C200.62860605 205.76482087 190.70186484 215.55443186 180.85180664 225.23657227 C180.1633667 225.91647217 179.47492676 226.59637207 178.765625 227.296875 C177.85731934 228.18777832 177.85731934 228.18777832 176.93066406 229.09667969 C175.08135279 231.0288083 173.34026053 232.9994499 171.59820557 235.02679443 C167.89533805 239.26714639 163.99253632 243.26029765 159.99804688 247.22460938 C159.2572438 247.96395218 158.51644073 248.70329498 157.75318909 249.46504211 C156.15783183 251.05661864 154.56132125 252.64703981 152.96376038 254.23640442 C150.43009588 256.75720791 147.89965365 259.28120715 145.36999512 261.80603027 C139.0892036 268.07351119 132.802967 274.33552157 126.51690674 280.59771729 C121.19550288 285.89933853 115.87618628 291.20303762 110.55958557 296.50947571 C108.07624189 298.98637487 105.58988703 301.46022341 103.10339355 303.93395996 C101.56943092 305.46428735 100.03561004 306.99475685 98.50195312 308.52539062 C97.8181105 309.20406693 97.13426788 309.88274323 96.42970276 310.58198547 C92.56385698 314.4474103 88.88540455 318.41825037 85.32836819 322.57022858 C82.73769231 325.53251445 79.95466526 328.29400401 77.16015625 331.0625 C76.57076767 331.65047363 75.98137909 332.23844727 75.37413025 332.84423828 C73.52262382 334.69022361 71.66764183 336.53266892 69.8125 338.375 C68.54338627 339.6390885 67.27450411 340.90340956 66.00585938 342.16796875 C62.9232368 345.23966724 59.83749572 348.30820008 56.75 351.375 C58.10125079 354.38966689 59.60483458 356.47646537 61.94255066 358.80133057 C62.59990204 359.45998611 63.25725342 360.11864166 63.93452454 360.79725647 C64.65504501 361.50901535 65.37556549 362.22077423 66.11791992 362.95410156 C67.25729004 364.09150032 67.25729004 364.09150032 68.41967773 365.25187683 C70.93538132 367.76108271 73.45798227 370.26323962 75.98046875 372.765625 C77.73254864 374.51143263 79.48411314 376.25775765 81.23518372 378.00457764 C85.85280728 382.60888542 90.4759537 387.2076044 95.10070801 391.80474854 C102.48681182 399.14704065 109.86558367 406.49669043 117.2413578 413.8493576 C119.81298131 416.41080567 122.38802003 418.96878268 124.96342468 421.52642822 C126.55410411 423.11027324 128.14467087 424.69423141 129.73510742 426.27832031 C130.44550674 426.98198227 131.15590607 427.68564423 131.88783264 428.41062927 C135.8161053 432.33003469 139.53914347 436.36081286 143.16362476 440.56222153 C145.26480859 442.9632807 147.48491831 445.22242074 149.74804688 447.47070312 C150.66589966 448.38525269 151.58375244 449.29980225 152.52941895 450.24206543 C153.00823013 450.71675766 153.48704132 451.19144989 153.98036194 451.68052673 C155.50593977 453.19312332 157.02818086 454.70901202 158.54968262 456.22570801 C161.78028953 459.44499112 165.01483223 462.66030112 168.25 465.875 C172.00451127 469.6057565 175.75730613 473.33820751 179.50587463 477.07493591 C180.99203689 478.55470556 182.48121996 480.03138565 183.97058105 481.50793457 C188.60284582 486.12352846 193.11002661 490.77237439 197.3392334 495.76217651 C199.31519645 498.02114664 201.52622797 499.98836412 203.75 502 C211.93703532 510.23710893 216.37878856 518.92430728 216.5 530.5 C216.22131695 542.53657409 211.56675886 552.6501525 203.01171875 561.08984375 C195.85051598 567.15388501 186.41181553 569.02103896 177.1796875 568.65234375 C163.49511657 567.09027858 154.47161497 558.39573442 144.75 549.375 C143.30673088 548.05705193 143.30673088 548.05705193 141.83430481 546.71247864 C134.71169847 540.2046355 127.78449099 533.53887159 120.98984337 526.69000816 C119.32989122 525.01694227 117.66652794 523.34732861 116.00239563 521.67842102 C112.47787351 518.14265198 108.95738116 514.60288837 105.4375 511.0625 C101.33299667 506.9342138 97.22675913 502.8076812 93.11628151 498.68534279 C91.49246626 497.05513648 89.87173402 495.42190987 88.25114441 493.78849792 C83.51092328 489.02495592 78.72595621 484.38504193 73.61604309 480.01396179 C70.17432606 476.99107194 66.97552769 473.72264651 63.75 470.47265625 C63.0288501 469.7500914 62.3077002 469.02752655 61.56469727 468.2830658 C59.29074585 466.00357396 57.02032046 463.7206076 54.75 461.4375 C53.19684765 459.87932494 51.64346433 458.32138007 50.08984375 456.76367188 C46.30722414 452.97010241 42.5274831 449.17368385 38.75 445.375 C38.74191315 446.42576721 38.73382629 447.47653442 38.72549438 448.55914307 C38.64771784 458.50362233 38.55990137 468.44797007 38.46247292 478.39227676 C38.41271121 483.5036782 38.36638075 488.61506097 38.328125 493.7265625 C38.29101628 498.66741732 38.24458992 503.60810775 38.19193649 508.5488205 C38.17352753 510.42564739 38.15837085 512.30250934 38.14665604 514.17938995 C37.93339453 547.19160547 37.93339453 547.19160547 25.75 559.375 C15.00388553 567.53114185 2.70710905 567.41146269 -10.25 566.375 C-19.10694424 564.63076688 -26.04905918 558.94837263 -31.0625 551.5625 C-37.16198843 540.40919449 -36.67522144 529.29548145 -36.63095093 516.9161377 C-36.63440952 514.81510821 -36.63917545 512.71408054 -36.64513266 510.61305666 C-36.65764445 504.85150568 -36.65147136 499.09010397 -36.64217401 493.32855248 C-36.63538464 487.1103364 -36.6458642 480.89214593 -36.65411377 474.67393494 C-36.6666837 463.20066442 -36.66559321 451.72746036 -36.65737936 440.25419019 C-36.64982828 429.65444548 -36.64786465 419.05471817 -36.6514473 408.45497131 C-36.65167645 407.75145945 -36.65190561 407.04794758 -36.65214171 406.32311717 C-36.65307574 403.46722653 -36.65403095 400.61133591 -36.655021 397.75544529 C-36.66419494 370.97312297 -36.65588247 344.1908309 -36.63973031 317.40851326 C-36.62549383 293.62177258 -36.62676773 269.8350801 -36.64111328 246.04833984 C-36.65718235 219.31453764 -36.66354429 192.58076214 -36.65427649 165.84695578 C-36.65331436 162.99631342 -36.65237584 160.14567105 -36.6514473 157.29502869 C-36.65121006 156.59314433 -36.65097283 155.89125996 -36.65072841 155.16810638 C-36.64731813 144.57585448 -36.65130284 133.98362191 -36.65888596 123.39137268 C-36.66746667 111.34571066 -36.66502445 99.30011795 -36.64904372 87.25445807 C-36.64115873 81.10845819 -36.63807344 74.96255609 -36.64799118 68.81655693 C-36.65693364 63.18984492 -36.65201238 57.56332131 -36.63605852 51.93662637 C-36.63270886 49.90176944 -36.63440895 47.86689658 -36.64168589 45.83204991 C-36.69207458 30.57055338 -35.94758065 19.2399374 -25.25 7.375 C-17.60189475 1.02778741 -9.65989647 0.0124323 0 0 Z " fill="#354447" transform="translate(1411.25,1442.625)"/>
<path d="M0 0 C0.76152344 1.52304688 1.52297915 3.04612765 2.28417969 4.56933594 C2.98561831 5.97154704 3.6881385 7.37321749 4.39160156 8.77441406 C6.47245254 12.92367711 8.53061573 17.08242853 10.55859375 21.2578125 C25.98811769 52.85970037 45.56257526 82.73826564 69 109 C69.74378906 109.84304688 70.48757813 110.68609375 71.25390625 111.5546875 C73.48122853 114.05683592 75.73542402 116.53150486 78 119 C78.52352051 119.57395508 79.04704102 120.14791016 79.58642578 120.73925781 C85.97933785 127.73663658 92.36284625 134.60832231 99.5234375 140.8359375 C101.81265456 142.83629436 104.03597488 144.89459254 106.25219727 146.97509766 C112.57893802 152.88830572 119.22340031 158.27800404 126.09765625 163.5390625 C128.07386447 165.05672549 130.03743866 166.58974007 132 168.125 C161.08451611 190.77179603 192.84254657 209.93519478 226 226 C228.66989752 227.32697274 231.33503106 228.66313716 234 230 C234 230.33 234 230.66 234 231 C224.12657227 232.20720353 214.28701809 232.14598871 204.359375 232.1328125 C202.54689521 232.1334883 200.73441552 232.13446061 198.92193604 232.13571167 C195.12958917 232.13718016 191.33726597 232.13506452 187.54492188 232.13037109 C182.75444382 232.12472266 177.96402188 232.12802277 173.17354584 232.13380814 C123.72627792 232.1846676 123.72627792 232.1846676 109 230 C107.04340433 229.85455972 105.08473021 229.7348428 103.125 229.640625 C57.96336236 227.20502805 13.36089176 219.67108784 -30.55615234 209.06713867 C-34.32189429 208.15884117 -38.09345556 207.27754255 -41.86689758 206.40187073 C-48.29405152 204.90717038 -54.69050094 203.37825586 -61 201.4375 C-61.79720459 201.19410889 -62.59440918 200.95071777 -63.41577148 200.69995117 C-66.2817273 199.81382146 -69.14141975 198.9096495 -72 198 C-73.21316895 197.61424805 -74.42633789 197.22849609 -75.67626953 196.83105469 C-94.82252225 190.71238704 -113.51711709 183.93298878 -132 176 C-132.81355957 175.65404785 -133.62711914 175.3080957 -134.46533203 174.95166016 C-139.6859229 172.72362083 -144.85297729 170.39272957 -150 168 C-151.49152588 167.30849854 -151.49152588 167.30849854 -153.01318359 166.60302734 C-168.1675054 159.53913252 -182.92866916 152.00854162 -197.35351562 143.55126953 C-199.85881835 142.08275537 -202.37384842 140.6323222 -204.890625 139.18359375 C-231.76418339 123.54791969 -257.34665852 105.24081584 -281.27636719 85.42382812 C-283.71230065 83.41159527 -286.17042475 81.4269225 -288.625 79.4375 C-299.20002758 70.76217797 -309.44559925 61.77688981 -319.44287109 52.44384766 C-320.94776032 51.04843924 -322.46471841 49.66794029 -323.98828125 48.29296875 C-329.71178377 43.11528369 -335.28153111 37.82061145 -340.75 32.375 C-341.37124756 31.75834473 -341.99249512 31.14168945 -342.63256836 30.50634766 C-347 26.12347903 -347 26.12347903 -347 25 C-343.91660069 24.97213796 -340.83347004 24.9527647 -337.75 24.9375 C-336.91597656 24.92912109 -336.08195312 24.92074219 -335.22265625 24.91210938 C-329.95503298 24.89288447 -324.71982443 25.05356427 -319.46253967 25.35755348 C-307.44934638 26.04201344 -295.46728082 26.14664621 -283.4375 26.1328125 C-281.31030262 26.13348969 -279.18310532 26.13446313 -277.0559082 26.13571167 C-272.61864478 26.13717429 -268.18140166 26.13508427 -263.74414062 26.13037109 C-258.1733791 26.12472982 -252.60266592 26.12802337 -247.03190613 26.13380814 C-226.43366067 26.15198948 -205.84178433 26.11531384 -185.25 25.5546875 C-184.13218643 25.52556463 -184.13218643 25.52556463 -182.99179077 25.49585342 C-180.91620094 25.43990404 -178.8409329 25.37752162 -176.765625 25.31201172 C-175.61868164 25.2761496 -174.47173828 25.24028748 -173.29003906 25.20333862 C-169.81835902 24.9887738 -166.43843276 24.51699989 -163 24 C-160.22686905 23.78295599 -157.4595263 23.58901542 -154.68359375 23.421875 C-153.03574999 23.31566402 -151.38796575 23.2085264 -149.74023438 23.10058594 C-148.44605591 23.01593079 -148.44605591 23.01593079 -147.12573242 22.92956543 C-125.94044349 21.51445508 -104.98827465 19.19277196 -84 16 C-82.7634668 15.81244141 -82.7634668 15.81244141 -81.50195312 15.62109375 C-59.71998137 12.29585828 -38.24525621 8.19353012 -16.86523438 2.84472656 C-15.72124176 2.56051094 -15.72124176 2.56051094 -14.55413818 2.27055359 C-13.13914355 1.91731648 -11.72548068 1.55867942 -10.3135376 1.19343567 C-6.79854161 0.31232573 -3.62534161 -0.19133265 0 0 Z " fill="#BCD8D6" transform="translate(808,1090)"/>
<path d="M0 0 C0.86388336 -0.00067474 1.72776672 -0.00134949 2.61782837 -0.00204468 C40.56699355 0.04490745 74.74246755 8.68781267 107.5 27.9375 C108.11198242 28.29376465 108.72396484 28.6500293 109.35449219 29.01708984 C115.12194708 32.49911434 119.18191345 36.25842985 122.0625 42.375 C122.67351562 43.64730469 122.67351562 43.64730469 123.296875 44.9453125 C125.67577678 50.34358962 125.53216947 55.12541248 125.5625 60.9375 C125.5934375 62.3905957 125.5934375 62.3905957 125.625 63.87304688 C125.67695042 73.47737986 123.40794892 80.03260622 116.7578125 87.13671875 C108.9778438 93.86030192 98.47451801 97.85371696 88.1953125 97.546875 C75.40768706 96.22999216 63.69238021 90.70398385 52.01171875 85.6875 C40.66301621 80.74818455 40.66301621 80.74818455 28.75 77.5625 C27.55246094 77.33175781 26.35492187 77.10101562 25.12109375 76.86328125 C-11.10229975 71.03038609 -47.10920068 76.02688349 -78.00390625 96.44140625 C-110.06152038 119.80543011 -133.83529319 156.38752842 -140.1640625 195.72265625 C-140.33679687 196.88667969 -140.50953125 198.05070312 -140.6875 199.25 C-140.81898437 200.11496094 -140.95046875 200.97992187 -141.0859375 201.87109375 C-145.22916373 235.07289317 -137.10815616 271.47376085 -117.25 298.5625 C-112.97828732 304.02853372 -108.44722332 309.20586439 -103.6875 314.25 C-103.02621094 314.97574219 -102.36492187 315.70148438 -101.68359375 316.44921875 C-81.70090793 337.56943887 -53.98348084 351.70575406 -25.6875 357.25 C-24.08455078 357.57291016 -24.08455078 357.57291016 -22.44921875 357.90234375 C12.09465318 363.79588105 45.86440476 357.69167936 76.46484375 340.4765625 C80.3620347 338.79793704 83.79806674 338.75673975 88 338.8125 C89.19484009 338.82385986 89.19484009 338.82385986 90.41381836 338.83544922 C96.97886628 339.01794117 102.45223613 340.17623415 108.3125 343.25 C109.12203125 343.67410156 109.9315625 344.09820313 110.765625 344.53515625 C118.12932929 348.91192751 122.49828128 355.22689978 125.3125 363.25 C125.7445939 367.15845269 125.68273048 371.0699117 125.6875 375 C125.71199219 376.04671875 125.73648437 377.0934375 125.76171875 378.171875 C125.80492176 389.6926785 121.43377732 397.75686938 113.640625 406.0234375 C91.27620808 427.14538681 55.37828223 431.73885732 26.3125 435.25 C25.46220215 435.3545752 24.6119043 435.45915039 23.73583984 435.56689453 C14.70674953 436.53547282 5.63325831 436.49363728 -3.4375 436.5 C-4.30365936 436.50067474 -5.16981873 436.50134949 -6.06222534 436.50204468 C-19.8064255 436.48507398 -33.16071147 435.87097509 -46.6875 433.25 C-47.59661133 433.07839355 -48.50572266 432.90678711 -49.44238281 432.72998047 C-84.56611513 425.91356415 -117.00510482 410.7252501 -143.38671875 386.36328125 C-145.46535234 384.45404395 -147.59170746 382.63023356 -149.75 380.8125 C-165.04044143 367.38006042 -176.60899479 349.75670658 -186.6875 332.25 C-187.04650391 331.64043457 -187.40550781 331.03086914 -187.77539062 330.40283203 C-204.83642103 301.29632271 -215.75952981 265.98047736 -215.890625 232.17578125 C-215.89632507 231.0161235 -215.90202515 229.85646576 -215.90789795 228.66166687 C-215.91731807 226.20829165 -215.92387001 223.75490394 -215.92773438 221.30151367 C-215.93735141 217.61939122 -215.96836736 213.937849 -216 210.25585938 C-216.08366367 191.8114836 -214.62753445 174.08883689 -210 156.1875 C-209.61980713 154.69863281 -209.61980713 154.69863281 -209.23193359 153.1796875 C-200.2338344 119.36799381 -181.70864904 90.29223933 -157.6875 65.25 C-156.51380859 64.01443359 -156.51380859 64.01443359 -155.31640625 62.75390625 C-114.4081273 20.67890276 -57.86641248 0.04068447 0 0 Z " fill="#354447" transform="translate(1168.6875,1574.75)"/>
<path d="M0 0 C1.94377533 0.00131424 1.94377533 0.00131424 3.92681885 0.00265503 C22.55227413 0.04429725 40.55136179 0.41302864 58.8125 4.375 C60.50318604 4.72111328 60.50318604 4.72111328 62.22802734 5.07421875 C86.69879522 10.18680698 110.15652904 18.84547395 131.8125 31.375 C131.21897067 36.00807224 129.27497548 39.68426755 127 43.6875 C126.60619141 44.38319092 126.21238281 45.07888184 125.80664062 45.7956543 C121.5123864 53.18034456 116.4673039 59.93040487 111.18359375 66.62939453 C110.01949487 68.11146486 108.88177931 69.61419819 107.75 71.12109375 C80.90814542 105.80986147 43.28565453 128.22039026 2.8125 143.375 C1.9963623 143.68066895 1.18022461 143.98633789 0.33935547 144.30126953 C-21.4567557 152.32045955 -44.20755011 156.51367087 -67.1875 159.375 C-68.33798828 159.52598145 -69.48847656 159.67696289 -70.67382812 159.83251953 C-101.731547 163.81571065 -140.58013481 167.55208303 -171.1875 159.375 C-171.39052734 160.15218384 -171.39052734 160.15218384 -171.59765625 160.94506836 C-174.09577285 169.87639617 -177.67976832 178.36784732 -181.1875 186.9375 C-181.52208221 187.75824005 -181.85666443 188.5789801 -182.2013855 189.42459106 C-187.94980226 203.51980823 -193.87164712 217.52323528 -200.1875 231.375 C-200.70602539 232.51356445 -201.22455078 233.65212891 -201.75878906 234.82519531 C-214.25855289 262.16243691 -227.48517554 289.14865554 -242.1875 315.375 C-242.64334473 316.1906543 -243.09918945 317.00630859 -243.56884766 317.84667969 C-246.09469922 322.36394571 -248.63364576 326.87350945 -251.1875 331.375 C-284.42908418 327.73724173 -322.74677689 314.12441268 -348.96484375 293.02734375 C-350.99341786 291.17613013 -350.99341786 291.17613013 -353.1875 291.375 C-354.68575323 292.89529885 -354.68575323 292.89529885 -356.25 294.875 C-370.37931775 311.35436854 -390.03990641 320.29818025 -410.125 327.4375 C-411.43126343 327.90458374 -411.43126343 327.90458374 -412.76391602 328.38110352 C-413.57272217 328.65881592 -414.38152832 328.93652832 -415.21484375 329.22265625 C-415.93406006 329.47023682 -416.65327637 329.71781738 -417.39428711 329.97290039 C-419.1875 330.375 -419.1875 330.375 -421.1875 329.375 C-415.32204984 323.99303597 -409.34035603 318.82015158 -403.15625 313.80859375 C-398.04386886 309.61778658 -393.04560624 305.29469705 -388.04199219 300.97509766 C-386.15777043 299.34934866 -384.27039012 297.72731942 -382.3828125 296.10546875 C-375.42021845 290.11061751 -368.56415223 284.02466265 -361.81640625 277.7890625 C-359.63263685 275.78375865 -357.42786075 273.8163393 -355.1875 271.875 C-351.31132372 268.51350273 -347.53486594 265.04646507 -343.76098633 261.57128906 C-340.4900293 258.56116154 -337.19248655 255.58397583 -333.875 252.625 C-330.41980266 249.52799697 -327.11702989 246.33318482 -323.8671875 243.0234375 C-322.19998314 241.3872509 -320.47098298 239.88292338 -318.6875 238.375 C-313.5900255 234.0129319 -308.95881636 229.16563483 -304.29101562 224.35351562 C-303.66130859 223.71220703 -303.03160156 223.07089844 -302.3828125 222.41015625 C-301.81578613 221.8262915 -301.24875977 221.24242676 -300.66455078 220.64086914 C-299.1875 219.375 -299.1875 219.375 -297.1875 219.375 C-297.1875 218.715 -297.1875 218.055 -297.1875 217.375 C-295.89672852 216.10327148 -295.89672852 216.10327148 -294.00390625 214.55859375 C-288.32664239 209.72860809 -283.1174584 204.4546881 -277.86010742 199.17797852 C-276.128553 197.441064 -274.39171641 195.70956111 -272.65429688 193.97851562 C-267.51591888 188.84289946 -262.476926 183.69652441 -257.76000977 178.16577148 C-254.89961841 174.90836261 -251.78128154 171.90855423 -248.6875 168.875 C-244.16802815 164.40407716 -239.76169372 159.92200481 -235.65625 155.0625 C-234.07487031 153.24559567 -232.40552804 151.5628872 -230.6875 149.875 C-227.72034199 146.95369212 -224.98691029 143.89508327 -222.26953125 140.7421875 C-219.627036 137.73777451 -216.90909827 134.80765928 -214.1875 131.875 C-208.80317813 126.06250144 -203.56029729 120.15347303 -198.4140625 114.12890625 C-197.3802746 112.9192142 -196.34641853 111.7095804 -195.3125 110.5 C-194.79260498 109.89124023 -194.27270996 109.28248047 -193.73706055 108.65527344 C-190.70818283 105.11818841 -187.63578257 101.63081992 -184.5 98.1875 C-180.7270346 94.02912415 -177.17169743 89.72773616 -173.640625 85.36328125 C-170.85297669 81.96749947 -167.99546004 78.63821877 -165.125 75.3125 C-161.11103707 70.65350286 -157.1833294 65.94781206 -153.37109375 61.12109375 C-151.10651965 58.27315888 -148.80913133 55.45419973 -146.5065918 52.63696289 C-141.75936325 46.82384847 -137.04228983 40.98936484 -132.4375 35.0625 C-131.63828125 34.03511719 -130.8390625 33.00773438 -130.015625 31.94921875 C-128.04873883 29.44450476 -128.04873883 29.44450476 -127.1875 26.375 C-125.09643555 25.21166992 -125.09643555 25.21166992 -122.32421875 24.10546875 C-121.30271729 23.69458008 -120.28121582 23.28369141 -119.22875977 22.86035156 C-118.12201904 22.43206055 -117.01527832 22.00376953 -115.875 21.5625 C-114.16944946 20.89492676 -114.16944946 20.89492676 -112.42944336 20.21386719 C-90.46346357 11.74824538 -67.46599205 5.88328021 -44.1875 2.375 C-43.09203857 2.19211426 -41.99657715 2.00922852 -40.86791992 1.82080078 C-27.31326398 -0.20152827 -13.67735697 -0.02244963 0 0 Z " fill="#229FC7" transform="translate(2211.1875,479.625)"/>
<path d="M0 0 C12.52815471 -0.28519377 23.96369532 2.19863075 33.33984375 10.8828125 C41.90324007 20.01710191 42.42977359 30.59837225 42.23828125 42.4765625 C41.86962099 51.68941887 37.57278343 57.91898453 30.96484375 64.1328125 C21.8633308 71.84505341 9.76686733 74.95712743 -1.98046875 75.4921875 C-37.47931662 77.36735433 -65.81400954 88.82620038 -92.03515625 113.1328125 C-92.61249512 113.66632324 -93.18983398 114.19983398 -93.78466797 114.74951172 C-121.80392945 140.95376031 -135.35294578 175.48782477 -137.14916182 213.54851913 C-137.32030017 219.30910188 -137.30484669 225.06949159 -137.29052734 230.83203125 C-137.29328654 232.71844126 -137.296972 234.60485011 -137.30149841 236.49125671 C-137.30952621 240.51028013 -137.31180055 244.5292482 -137.30955124 248.54827881 C-137.30668771 254.91260212 -137.32117895 261.27681718 -137.33853149 267.64111328 C-137.38528163 285.72345403 -137.40951204 303.80578495 -137.41601562 321.88818359 C-137.41977113 331.90792033 -137.43782778 341.92753198 -137.47110999 351.94721508 C-137.49124721 358.26577732 -137.49373372 364.5840154 -137.48282981 370.90259647 C-137.48021428 374.83538423 -137.49426551 378.76798464 -137.51291084 382.70072365 C-137.51821047 384.51507699 -137.51677444 386.3294653 -137.50787544 388.14380455 C-137.45222395 400.49062293 -138.1472343 411.31782395 -146.26171875 421.34765625 C-154.2038628 429.34228143 -163.30213524 432.08662729 -174.34765625 432.3203125 C-184.43259957 432.18235158 -193.3546005 430.2745013 -201.01171875 423.34375 C-208.60956033 415.22860856 -211.18481672 406.56371869 -211.18232727 395.66452026 C-211.18600396 394.80148352 -211.18968065 393.93844677 -211.19346875 393.0492574 C-211.20449953 390.15115908 -211.20834865 387.25309663 -211.2121582 384.35498047 C-211.21842408 382.27837511 -211.22507099 380.20177086 -211.23207092 378.12516785 C-211.25312621 371.29178652 -211.26348533 364.45840496 -211.2734375 357.625 C-211.27748668 355.26552443 -211.28160365 352.90604897 -211.28578758 350.54657364 C-211.30485468 339.44280331 -211.31907379 328.33903963 -211.32739955 317.23525608 C-211.33713123 304.46966305 -211.36333718 291.7042453 -211.40390044 278.93871391 C-211.43424276 269.04531371 -211.44888607 259.15196315 -211.45218056 249.25851738 C-211.45451354 243.3644846 -211.46324024 237.47063867 -211.48864174 231.57665634 C-211.73313083 171.71100997 -201.03312047 119.96816981 -160.03515625 74.1328125 C-159.5345166 73.57045898 -159.03387695 73.00810547 -158.51806641 72.42871094 C-152.69519051 65.91746119 -146.79245554 59.69021753 -140.03515625 54.1328125 C-139.19082031 53.400625 -138.34648437 52.6684375 -137.4765625 51.9140625 C-124.40131127 40.70163539 -110.34574896 31.03150073 -95.03515625 23.1328125 C-94.30603027 22.75527832 -93.5769043 22.37774414 -92.82568359 21.98876953 C-67.83580441 9.21806847 -40.72015811 1.94095415 -12.66015625 0.5703125 C-11.40126587 0.50880005 -11.40126587 0.50880005 -10.11694336 0.44604492 C-6.74502229 0.28797078 -3.37239189 0.14756927 0 0 Z " fill="#354447" transform="translate(2355.03515625,1578.8671875)"/>
<path d="M0 0 C61.38 0 122.76 0 186 0 C186 61.38 186 122.76 186 186 C124.62 186 63.24 186 0 186 C0 124.62 0 63.24 0 0 Z " fill="#23A0BE" transform="translate(1161,250)"/>
<path d="M0 0 C61.38 0 122.76 0 186 0 C186 61.38 186 122.76 186 186 C124.62 186 63.24 186 0 186 C0 124.62 0 63.24 0 0 Z " fill="#34B9DB" transform="translate(947,250)"/>
<path d="M0 0 C61.38 0 122.76 0 186 0 C186 61.38 186 122.76 186 186 C124.62 186 63.24 186 0 186 C0 124.62 0 63.24 0 0 Z " fill="#23A1C0" transform="translate(732,250)"/>
<path d="M0 0 C61.38 0 122.76 0 186 0 C186 61.38 186 122.76 186 186 C124.62 186 63.24 186 0 186 C0 124.62 0 63.24 0 0 Z " fill="#34B7DA" transform="translate(1161,36)"/>
<path d="M0 0 C61.38 0 122.76 0 186 0 C186 61.05 186 122.1 186 185 C124.62 185 63.24 185 0 185 C0 123.95 0 62.9 0 0 Z " fill="#34B9DB" transform="translate(1161,465)"/>
<path d="M0 0 C61.38 0 122.76 0 186 0 C186 61.05 186 122.1 186 185 C124.62 185 63.24 185 0 185 C0 123.95 0 62.9 0 0 Z " fill="#23A1C0" transform="translate(518,465)"/>
<path d="M0 0 C61.05 0 122.1 0 185 0 C185 61.05 185 122.1 185 185 C123.95 185 62.9 185 0 185 C0 123.95 0 62.9 0 0 Z " fill="#23A2C0" transform="translate(1376,465)"/>
<path d="M0 0 C61.05 0 122.1 0 185 0 C185 61.05 185 122.1 185 185 C123.95 185 62.9 185 0 185 C0 123.95 0 62.9 0 0 Z " fill="#23A2C1" transform="translate(947,465)"/>
<path d="M0 0 C61.05 0 122.1 0 185 0 C185 61.05 185 122.1 185 185 C123.95 185 62.9 185 0 185 C0 123.95 0 62.9 0 0 Z " fill="#34BADC" transform="translate(733,465)"/>
<path d="M0 0 C27.06 0 54.12 0 82 0 C82.103125 8.518125 82.20625 17.03625 82.3125 25.8125 C82.79303686 55.48929145 84.53846468 84.41902379 89.46191406 113.70092773 C89.67557617 114.99458252 89.88923828 116.2882373 90.109375 117.62109375 C90.40279785 119.32930298 90.40279785 119.32930298 90.70214844 121.07202148 C90.9766504 123.77046578 90.87923233 125.46621932 90 128 C60.38526205 132.85851612 32.02806965 135.33095795 2 135 C-1.82020554 112.64773355 -2.33688814 90.02042748 -2.26074219 67.39770508 C-2.24940987 64.00924223 -2.25591076 60.62109891 -2.26788712 57.2326479 C-2.27712095 53.85950451 -2.27053319 50.48643347 -2.265625 47.11328125 C-2.26967346 45.95492264 -2.27372192 44.79656403 -2.27789307 43.60310364 C-2.20082336 28.99353184 -0.94535973 14.65307577 0 0 Z " fill="#229FC7" transform="translate(331,684)"/>
<path d="M0 0 C0.76152344 1.52304688 1.52297915 3.04612765 2.28417969 4.56933594 C2.98561831 5.97154704 3.6881385 7.37321749 4.39160156 8.77441406 C6.47245254 12.92367711 8.53061573 17.08242853 10.55859375 21.2578125 C20.24739979 41.10188309 31.27805497 60.86848709 44.83984375 78.375 C46 80 46 80 46 82 C11.24556144 79.65282087 -23.145021 74.78098588 -57.03955078 66.70263672 C-59.89625973 66.02462185 -62.75734824 65.37022165 -65.62109375 64.72265625 C-76.72476324 62.18746611 -87.64347064 59.21805822 -98.50390625 55.78710938 C-100.15551927 55.26629557 -101.80916035 54.75186604 -103.46484375 54.24414062 C-126.28768858 47.23143396 -148.14957178 37.60639601 -169 26 C-169 25.67 -169 25.34 -169 25 C-164.27125798 24.11777201 -159.57549417 23.70853954 -154.78125 23.421875 C-153.13015249 23.31564308 -151.47911302 23.20850612 -149.828125 23.10058594 C-148.96123047 23.04414917 -148.09433594 22.9877124 -147.20117188 22.92956543 C-125.98983377 21.51950224 -105.0135052 19.19661008 -84 16 C-83.17564453 15.87496094 -82.35128906 15.74992187 -81.50195312 15.62109375 C-59.71998137 12.29585828 -38.24525621 8.19353012 -16.86523438 2.84472656 C-16.10257263 2.65524948 -15.33991089 2.4657724 -14.55413818 2.27055359 C-13.13914355 1.91731648 -11.72548068 1.55867942 -10.3135376 1.19343567 C-6.79854161 0.31232573 -3.62534161 -0.19133265 0 0 Z " fill="#D2EBEB" transform="translate(808,1090)"/>
<path d="M0 0 C6.46776455 5.4614349 11.20609668 11.44678823 15 19 C15.41378906 19.77214844 15.82757812 20.54429687 16.25390625 21.33984375 C19.11058214 27.64045644 19.38143455 33.75054769 19.4375 40.5625 C19.44765137 41.43688721 19.45780273 42.31127441 19.46826172 43.2121582 C19.29015945 56.59115062 13.81498213 68.31747541 4.5625 77.9375 C-6.15623687 87.9188741 -18.76368234 92.77124021 -33.37841797 92.52319336 C-47.19292494 91.88612376 -60.42189818 86.09889695 -70 76 C-80.82231736 62.95712076 -84.41042517 48.62533871 -83 32 C-80.57340693 19.82543591 -73.46414853 7.53864739 -63.42578125 0.08984375 C-43.48508118 -13.00927722 -19.88955625 -14.66405707 0 0 Z " fill="#D0EAEA" transform="translate(939,962)"/>
<path d="M0 0 C0 2 0 2 -1.9375 4 C-2.618125 4.66 -3.29875 5.32 -4 6 C-5.97338848 9.94677697 -5.44290148 14.69839523 -5 19 C-2.95835879 23.15619817 -1.27510254 25.31425797 3 27 C7.88558515 27.56064092 12.46230568 27.67274127 17 25.6875 C18.76886777 24.19501782 20.44705451 22.71641343 22 21 C25.65417685 28.49913401 25.0950234 38.48239184 23.16015625 46.46484375 C19.23485458 56.7340673 12.81371436 64.03796131 2.9128418 68.94140625 C-6.01110128 72.74171661 -16.5042833 72.77923096 -25.66796875 69.8125 C-28.63563746 68.39686673 -31.29174032 66.85887117 -34 65 C-34.60972656 64.60554688 -35.21945312 64.21109375 -35.84765625 63.8046875 C-43.13696291 58.47286728 -47.51129327 49.72479766 -49 41 C-50.14399469 30.18289468 -48.53800614 21.36675488 -42.16796875 12.4296875 C-31.60832367 -0.19190011 -15.90845839 -5.98654131 0 0 Z " fill="#374649" transform="translate(919,968)"/>
<path d="M0 0 C5.28 0 10.56 0 16 0 C16 51.15 16 102.3 16 155 C10.72 155 5.44 155 0 155 C0 103.85 0 52.7 0 0 Z " fill="#354A4F" transform="translate(1260,480)"/>
<path d="M0 0 C5.28 0 10.56 0 16 0 C16 51.15 16 102.3 16 155 C10.72 155 5.44 155 0 155 C0 103.85 0 52.7 0 0 Z " fill="#354A4F" transform="translate(1232,480)"/>
<path d="M0 0 C5.28 0 10.56 0 16 0 C16 51.15 16 102.3 16 155 C10.72 155 5.44 155 0 155 C0 103.85 0 52.7 0 0 Z " fill="#354A4F" transform="translate(1204,480)"/>
<path d="M0 0 C5.28 0 10.56 0 16 0 C16 51.15 16 102.3 16 155 C10.72 155 5.44 155 0 155 C0 103.85 0 52.7 0 0 Z " fill="#35494D" transform="translate(1074,480)"/>
<path d="M0 0 C5.28 0 10.56 0 16 0 C16 51.15 16 102.3 16 155 C10.72 155 5.44 155 0 155 C0 103.85 0 52.7 0 0 Z " fill="#354A4F" transform="translate(775,480)"/>
<path d="M0 0 C5.28 0 10.56 0 16 0 C16 51.15 16 102.3 16 155 C10.72 155 5.44 155 0 155 C0 103.85 0 52.7 0 0 Z " fill="#35494D" transform="translate(645,480)"/>
<path d="M0 0 C5.28 0 10.56 0 16 0 C16 51.15 16 102.3 16 155 C10.72 155 5.44 155 0 155 C0 103.85 0 52.7 0 0 Z " fill="#35494D" transform="translate(617,480)"/>
<path d="M0 0 C5.28 0 10.56 0 16 0 C16 51.15 16 102.3 16 155 C10.72 155 5.44 155 0 155 C0 103.85 0 52.7 0 0 Z " fill="#35494D" transform="translate(589,480)"/>
<path d="M0 0 C5.28 0 10.56 0 16 0 C16 51.15 16 102.3 16 155 C10.72 155 5.44 155 0 155 C0 103.85 0 52.7 0 0 Z " fill="#35494E" transform="translate(1232,266)"/>
<path d="M0 0 C5.28 0 10.56 0 16 0 C16 51.15 16 102.3 16 155 C10.72 155 5.44 155 0 155 C0 103.85 0 52.7 0 0 Z " fill="#354A4F" transform="translate(1074,266)"/>
<path d="M0 0 C5.28 0 10.56 0 16 0 C16 51.15 16 102.3 16 155 C10.72 155 5.44 155 0 155 C0 103.85 0 52.7 0 0 Z " fill="#35494E" transform="translate(775,266)"/>
<path d="M0 0 C5.28 0 10.56 0 16 0 C16 51.15 16 102.3 16 155 C10.72 155 5.44 155 0 155 C0 103.85 0 52.7 0 0 Z " fill="#354A4F" transform="translate(1232,51)"/>
<path d="M0 0 C4.95 0 9.9 0 15 0 C15 51.15 15 102.3 15 155 C10.05 155 5.1 155 0 155 C0 103.85 0 52.7 0 0 Z " fill="#35474A" transform="translate(1531,480)"/>
<path d="M0 0 C4.95 0 9.9 0 15 0 C15 51.15 15 102.3 15 155 C10.05 155 5.1 155 0 155 C0 103.85 0 52.7 0 0 Z " fill="#354548" transform="translate(1503,480)"/>
<path d="M0 0 C4.95 0 9.9 0 15 0 C15 51.15 15 102.3 15 155 C10.05 155 5.1 155 0 155 C0 103.85 0 52.7 0 0 Z " fill="#354548" transform="translate(1475,480)"/>
<path d="M0 0 C4.95 0 9.9 0 15 0 C15 51.15 15 102.3 15 155 C10.05 155 5.1 155 0 155 C0 103.85 0 52.7 0 0 Z " fill="#354548" transform="translate(1447,480)"/>
<path d="M0 0 C4.95 0 9.9 0 15 0 C15 51.15 15 102.3 15 155 C10.05 155 5.1 155 0 155 C0 103.85 0 52.7 0 0 Z " fill="#354649" transform="translate(1419,480)"/>
<path d="M0 0 C4.95 0 9.9 0 15 0 C15 51.15 15 102.3 15 155 C10.05 155 5.1 155 0 155 C0 103.85 0 52.7 0 0 Z " fill="#35474A" transform="translate(1391,480)"/>
<path d="M0 0 C4.95 0 9.9 0 15 0 C15 51.15 15 102.3 15 155 C10.05 155 5.1 155 0 155 C0 103.85 0 52.7 0 0 Z " fill="#354548" transform="translate(1289,480)"/>
<path d="M0 0 C4.95 0 9.9 0 15 0 C15 51.15 15 102.3 15 155 C10.05 155 5.1 155 0 155 C0 103.85 0 52.7 0 0 Z " fill="#35474B" transform="translate(1102,480)"/>
<path d="M0 0 C4.95 0 9.9 0 15 0 C15 51.15 15 102.3 15 155 C10.05 155 5.1 155 0 155 C0 103.85 0 52.7 0 0 Z " fill="#354649" transform="translate(1046,480)"/>
<path d="M0 0 C4.95 0 9.9 0 15 0 C15 51.15 15 102.3 15 155 C10.05 155 5.1 155 0 155 C0 103.85 0 52.7 0 0 Z " fill="#354548" transform="translate(1018,480)"/>
<path d="M0 0 C4.95 0 9.9 0 15 0 C15 51.15 15 102.3 15 155 C10.05 155 5.1 155 0 155 C0 103.85 0 52.7 0 0 Z " fill="#354548" transform="translate(990,480)"/>
<path d="M0 0 C4.95 0 9.9 0 15 0 C15 51.15 15 102.3 15 155 C10.05 155 5.1 155 0 155 C0 103.85 0 52.7 0 0 Z " fill="#35474A" transform="translate(962,480)"/>
<path d="M0 0 C4.95 0 9.9 0 15 0 C15 51.15 15 102.3 15 155 C10.05 155 5.1 155 0 155 C0 103.85 0 52.7 0 0 Z " fill="#35474B" transform="translate(888,480)"/>
<path d="M0 0 C4.95 0 9.9 0 15 0 C15 51.15 15 102.3 15 155 C10.05 155 5.1 155 0 155 C0 103.85 0 52.7 0 0 Z " fill="#354548" transform="translate(860,480)"/>
<path d="M0 0 C4.95 0 9.9 0 15 0 C15 51.15 15 102.3 15 155 C10.05 155 5.1 155 0 155 C0 103.85 0 52.7 0 0 Z " fill="#354548" transform="translate(832,480)"/>
<path d="M0 0 C4.95 0 9.9 0 15 0 C15 51.15 15 102.3 15 155 C10.05 155 5.1 155 0 155 C0 103.85 0 52.7 0 0 Z " fill="#354649" transform="translate(804,480)"/>
<path d="M0 0 C4.95 0 9.9 0 15 0 C15 51.15 15 102.3 15 155 C10.05 155 5.1 155 0 155 C0 103.85 0 52.7 0 0 Z " fill="#35484C" transform="translate(748,480)"/>
<path d="M0 0 C4.95 0 9.9 0 15 0 C15 51.15 15 102.3 15 155 C10.05 155 5.1 155 0 155 C0 103.85 0 52.7 0 0 Z " fill="#354549" transform="translate(561,480)"/>
<path d="M0 0 C4.95 0 9.9 0 15 0 C15 51.15 15 102.3 15 155 C10.05 155 5.1 155 0 155 C0 103.85 0 52.7 0 0 Z " fill="#35484C" transform="translate(1102,266)"/>
<path d="M0 0 C4.95 0 9.9 0 15 0 C15 51.15 15 102.3 15 155 C10.05 155 5.1 155 0 155 C0 103.85 0 52.7 0 0 Z " fill="#354548" transform="translate(990,266)"/>
<path d="M0 0 C4.95 0 9.9 0 15 0 C15 51.15 15 102.3 15 155 C10.05 155 5.1 155 0 155 C0 103.85 0 52.7 0 0 Z " fill="#35484B" transform="translate(962,266)"/>
<path d="M0 0 C4.95 0 9.9 0 15 0 C15 51.15 15 102.3 15 155 C10.05 155 5.1 155 0 155 C0 103.85 0 52.7 0 0 Z " fill="#35474A" transform="translate(888,266)"/>
<path d="M0 0 C4.95 0 9.9 0 15 0 C15 51.15 15 102.3 15 155 C10.05 155 5.1 155 0 155 C0 103.85 0 52.7 0 0 Z " fill="#35474B" transform="translate(748,266)"/>
<path d="M0 0 C4.95 0 9.9 0 15 0 C15 50.82 15 101.64 15 154 C10.05 154 5.1 154 0 154 C0 103.18 0 52.36 0 0 Z " fill="#354548" transform="translate(1289,266)"/>
<path d="M0 0 C4.95 0 9.9 0 15 0 C15 50.82 15 101.64 15 154 C10.05 154 5.1 154 0 154 C0 103.18 0 52.36 0 0 Z " fill="#354649" transform="translate(1261,266)"/>
<path d="M0 0 C4.95 0 9.9 0 15 0 C15 50.82 15 101.64 15 154 C10.05 154 5.1 154 0 154 C0 103.18 0 52.36 0 0 Z " fill="#354649" transform="translate(1204,266)"/>
<path d="M0 0 C4.95 0 9.9 0 15 0 C15 50.82 15 101.64 15 154 C10.05 154 5.1 154 0 154 C0 103.18 0 52.36 0 0 Z " fill="#364649" transform="translate(1046,266)"/>
<path d="M0 0 C4.95 0 9.9 0 15 0 C15 50.82 15 101.64 15 154 C10.05 154 5.1 154 0 154 C0 103.18 0 52.36 0 0 Z " fill="#364548" transform="translate(1018,266)"/>
<path d="M0 0 C4.95 0 9.9 0 15 0 C15 50.82 15 101.64 15 154 C10.05 154 5.1 154 0 154 C0 103.18 0 52.36 0 0 Z " fill="#364548" transform="translate(860,266)"/>
<path d="M0 0 C4.95 0 9.9 0 15 0 C15 50.82 15 101.64 15 154 C10.05 154 5.1 154 0 154 C0 103.18 0 52.36 0 0 Z " fill="#364548" transform="translate(832,266)"/>
<path d="M0 0 C4.95 0 9.9 0 15 0 C15 50.82 15 101.64 15 154 C10.05 154 5.1 154 0 154 C0 103.18 0 52.36 0 0 Z " fill="#354549" transform="translate(804,266)"/>
<path d="M0 0 C4.95 0 9.9 0 15 0 C15 50.82 15 101.64 15 154 C10.05 154 5.1 154 0 154 C0 103.18 0 52.36 0 0 Z " fill="#364548" transform="translate(1289,52)"/>
<path d="M0 0 C4.95 0 9.9 0 15 0 C15 50.82 15 101.64 15 154 C10.05 154 5.1 154 0 154 C0 103.18 0 52.36 0 0 Z " fill="#36464A" transform="translate(1261,52)"/>
<path d="M0 0 C4.95 0 9.9 0 15 0 C15 50.82 15 101.64 15 154 C10.05 154 5.1 154 0 154 C0 103.18 0 52.36 0 0 Z " fill="#36464A" transform="translate(1204,52)"/>
<path d="M0 0 C4.62 0 9.24 0 14 0 C14 51.15 14 102.3 14 155 C9.38 155 4.76 155 0 155 C0 103.85 0 52.7 0 0 Z " fill="#354548" transform="translate(1317,480)"/>
<path d="M0 0 C4.62 0 9.24 0 14 0 C14 51.15 14 102.3 14 155 C9.38 155 4.76 155 0 155 C0 103.85 0 52.7 0 0 Z " fill="#354548" transform="translate(1177,480)"/>
<path d="M0 0 C4.62 0 9.24 0 14 0 C14 51.15 14 102.3 14 155 C9.38 155 4.76 155 0 155 C0 103.85 0 52.7 0 0 Z " fill="#354548" transform="translate(674,480)"/>
<path d="M0 0 C4.62 0 9.24 0 14 0 C14 51.15 14 102.3 14 155 C9.38 155 4.76 155 0 155 C0 103.85 0 52.7 0 0 Z " fill="#354548" transform="translate(534,480)"/>
<path d="M0 0 C4.62 0 9.24 0 14 0 C14 50.82 14 101.64 14 154 C9.38 154 4.76 154 0 154 C0 103.18 0 52.36 0 0 Z " fill="#364548" transform="translate(1317,266)"/>
<path d="M0 0 C4.62 0 9.24 0 14 0 C14 50.82 14 101.64 14 154 C9.38 154 4.76 154 0 154 C0 103.18 0 52.36 0 0 Z " fill="#364548" transform="translate(1177,266)"/>
<path d="M0 0 C4.62 0 9.24 0 14 0 C14 50.82 14 101.64 14 154 C9.38 154 4.76 154 0 154 C0 103.18 0 52.36 0 0 Z " fill="#364548" transform="translate(1317,52)"/>
<path d="M0 0 C4.62 0 9.24 0 14 0 C14 50.82 14 101.64 14 154 C9.38 154 4.76 154 0 154 C0 103.18 0 52.36 0 0 Z " fill="#364548" transform="translate(1177,52)"/>
</svg>
