<?xml version="1.0" encoding="UTF-8"?>
<svg version="1.1" xmlns="http://www.w3.org/2000/svg" width="152" height="191">
<path d="M0 0 C35.97 0 71.94 0 109 0 C107.85004649 21.84911665 107.85004649 21.84911665 107.18383789 29.37109375 C107.07139488 30.68475922 107.07139488 30.68475922 106.9566803 32.02496338 C106.715538 34.82946193 106.46954566 37.63350196 106.22265625 40.4375 C106.04947362 42.42097623 105.87633298 44.40445612 105.70323181 46.38793945 C105.34346497 50.49908413 104.98080141 54.60996193 104.61645508 58.72070312 C104.14990222 63.99123943 103.69453981 69.26268206 103.24166203 74.53440857 C102.88970736 78.60973492 102.53007714 82.68435703 102.16827202 86.75881958 C101.99681215 88.70426899 101.82818788 90.64997048 101.66246223 92.59591675 C101.43158427 95.29780574 101.18995002 97.99852351 100.94555664 100.69921875 C100.87951233 101.50014954 100.81346802 102.30108032 100.74542236 103.12628174 C100.40038395 106.81685333 100.09484506 108.85773241 98 112 C96.28804016 112.77836609 96.28804016 112.77836609 94.2121582 113.3503418 C93.43407303 113.57034348 92.65598785 113.79034515 91.85432434 114.01701355 C91.01165512 114.24214127 90.1689859 114.46726898 89.30078125 114.69921875 C88.43237106 114.9391304 87.56396088 115.17904205 86.66923523 115.42622375 C84.82892936 115.93167419 82.98705993 116.4314606 81.14379883 116.92602539 C78.3369058 117.68093609 75.53657005 118.45715396 72.73632812 119.23632812 C70.94566518 119.72525184 69.15465951 120.21292243 67.36328125 120.69921875 C66.53073318 120.93041916 65.69818512 121.16161957 64.84040833 121.39982605 C56.51867268 123.6069311 49.866431 122.99706743 41.63671875 120.8046875 C40.76352493 120.57476105 39.89033112 120.34483459 38.99067688 120.10794067 C37.15644202 119.62020582 35.32354106 119.12742948 33.49194336 118.62988281 C30.68477956 117.87426773 27.86965032 117.15577309 25.05273438 116.4375 C23.26762138 115.95798611 21.48309273 115.4762904 19.69921875 114.9921875 C18.85654953 114.78254364 18.01388031 114.57289978 17.14567566 114.35690308 C16.36759048 114.13712799 15.58950531 113.91735291 14.7878418 113.69091797 C14.10280075 113.50882782 13.4177597 113.32673767 12.71195984 113.13912964 C9.93062592 111.28844376 9.75694382 109.20585594 9 106 C8.5206414 102.71812386 8.22472992 99.43109873 7.94677734 96.12670898 C7.85870316 95.14875366 7.77062897 94.17079834 7.67988586 93.16320801 C7.39154843 89.94141645 7.1136055 86.71882095 6.8359375 83.49609375 C6.63758547 81.25215174 6.43865333 79.00826094 6.23916626 76.76441956 C5.82299788 72.0667108 5.41156514 67.36862075 5.00390625 62.67016602 C4.48136072 56.64821816 3.95059582 50.6270327 3.41673851 44.60607815 C2.90774853 38.86133691 2.40297659 33.11622729 1.8984375 27.37109375 C1.80181194 26.2751483 1.70518639 25.17920284 1.60563278 24.05004692 C1.33289989 20.94819482 1.06318059 17.84609615 0.79443359 14.74389648 C0.71341904 13.82687454 0.63240448 12.9098526 0.54893494 11.96504211 C0.47609787 11.11701019 0.4032608 10.26897827 0.32821655 9.39524841 C0.2644451 8.66284156 0.20067364 7.9304347 0.13496971 7.1758337 C-0.01314718 4.78805559 0 2.39236764 0 0 Z M21 23 C21.474375 29.043125 21.94875 35.08625 22.4375 41.3125 C22.58501709 43.21684814 22.73253418 45.12119629 22.88452148 47.08325195 C23.00474634 48.59328557 23.12525134 50.10329693 23.24609375 51.61328125 C23.30575317 52.39682983 23.3654126 53.18037842 23.42687988 53.9876709 C23.68439111 57.16842087 23.98657352 59.95972056 25 63 C40.51 63 56.02 63 72 63 C71.34 67.95 70.68 72.9 70 78 C70 79.32 70 80.64 70 82 C62.6178916 83.99181888 56.53449112 85.60571122 49 84 C47.16672828 83.64551456 45.333393 83.29135767 43.5 82.9375 C42.015 82.628125 40.53 82.31875 39 82 C38.67 78.37 38.34 74.74 38 71 C34.04 71 30.08 71 26 71 C25.979375 72.60875 25.95875 74.2175 25.9375 75.875 C25.92589844 76.77992187 25.91429687 77.68484375 25.90234375 78.6171875 C26.03191419 83.10550743 26.51011055 87.53852648 27 92 C31.09321561 93.24770572 35.20055659 94.44061782 39.3125 95.625 C40.46041016 95.975625 41.60832031 96.32625 42.79101562 96.6875 C50.58927932 98.89663986 56.21366532 99.2010788 64 97 C64.83877686 96.78649902 65.67755371 96.57299805 66.54174805 96.35302734 C68.9358615 95.73065723 71.31134865 95.06246515 73.6875 94.375 C74.49638672 94.14554687 75.30527344 93.91609375 76.13867188 93.6796875 C78.09376146 93.12439578 80.04708356 92.56288681 82 92 C82.43457631 87.92969975 82.86145404 83.85866664 83.28173828 79.78686523 C83.42522064 78.40677034 83.57067079 77.02687836 83.71826172 75.6472168 C83.93216452 73.64424257 84.13856558 71.64060279 84.34375 69.63671875 C84.46943359 68.43748779 84.59511719 67.23825684 84.72460938 66.00268555 C85.06792464 61.01274427 85 56.00173763 85 51 C68.83 51 52.66 51 36 51 C36 48.03 36 45.06 36 42 C35.67 40.02 35.34 38.04 35 36 C52.16 36 69.32 36 87 36 C87.495 29.565 87.495 29.565 88 23 C65.89 23 43.78 23 21 23 Z " fill="#E44E25" transform="translate(21,50)"/>
<path d="M0 0 C2.97 0 5.94 0 9 0 C11.0625 2.5 11.0625 2.5 12 5 C12.495 4.175 12.99 3.35 13.5 2.5 C14.325 1.675 15.15 0.85 16 0 C18.64 0 21.28 0 24 0 C24 6.93 24 13.86 24 21 C21.36 21 18.72 21 16 21 C15.67 19.35 15.34 17.7 15 16 C14.01 16.99 13.02 17.98 12 19 C11.01 17.68 10.02 16.36 9 15 C8.67 16.98 8.34 18.96 8 21 C5.36 21 2.72 21 0 21 C0 14.07 0 7.14 0 0 Z " fill="#E54F25" transform="translate(76,20)"/>
<path d="M0 0 C2.64 0 5.28 0 8 0 C8 2.31 8 4.62 8 7 C9.65 7 11.3 7 13 7 C13 4.69 13 2.38 13 0 C15.64 0 18.28 0 21 0 C21 7.26 21 14.52 21 22 C18.36 22 15.72 22 13 22 C13 19.69 13 17.38 13 15 C11.35 15 9.7 15 8 15 C8 17.31 8 19.62 8 22 C5.36 22 2.72 22 0 22 C0 14.74 0 7.48 0 0 Z " fill="#E54F25" transform="translate(31,20)"/>
<path d="M0 0 C6.6 0 13.2 0 20 0 C20 2.64 20 5.28 20 8 C18.02 8 16.04 8 14 8 C14 12.62 14 17.24 14 22 C11.36 22 8.72 22 6 22 C6 17.38 6 12.76 6 8 C4.02 8 2.04 8 0 8 C0 5.36 0 2.72 0 0 Z " fill="#E54F25" transform="translate(54,20)"/>
<path d="M0 0 C2.64 0 5.28 0 8 0 C8 4.62 8 9.24 8 14 C10.97 14 13.94 14 17 14 C17 16.64 17 19.28 17 22 C11.39 22 5.78 22 0 22 C0 14.74 0 7.48 0 0 Z " fill="#E44F25" transform="translate(103,20)"/>
</svg>
