<?xml version="1.0" encoding="UTF-8"?>
<svg version="1.1" xmlns="http://www.w3.org/2000/svg" width="147" height="182">
<path d="M0 0 C36.96 0 73.92 0 112 0 C110.370625 18.0675 108.74125 36.135 107.0625 54.75 C106.54953369 60.45635742 106.03656738 66.16271484 105.50805664 72.04199219 C104.87780762 79.00634766 104.87780762 79.00634766 104.58201599 82.26593018 C104.37589788 84.54398288 104.17103083 86.822149 103.96714783 89.10040283 C103.65819999 92.54995537 103.34529251 95.99912797 103.03149414 99.44824219 C102.94140862 100.46436962 102.85132311 101.48049706 102.75850773 102.52741623 C102.67316493 103.45654453 102.58782213 104.38567284 102.49989319 105.34295654 C102.42707154 106.1504472 102.3542499 106.95793785 102.27922153 107.78989792 C102.00950105 109.924797 101.56871032 111.92666666 101 114 C95.18953952 115.7488313 89.37305288 117.47528298 83.55004883 119.18188477 C81.57268011 119.7647375 79.59704946 120.35352251 77.62329102 120.94848633 C74.77543408 121.80578972 71.92187672 122.64111445 69.06640625 123.47265625 C68.19415909 123.74030289 67.32191193 124.00794952 66.42323303 124.28370667 C57.18833659 126.92521348 49.66756405 125.14573245 40.625 122.53125 C39.77446045 122.29088013 38.9239209 122.05051025 38.04760742 121.80285645 C36.26856926 121.29854734 34.49049788 120.79081609 32.71337891 120.27978516 C29.98175041 119.49475534 27.24706648 118.72117837 24.51171875 117.94921875 C22.77845789 117.45638969 21.04537807 116.96292336 19.3125 116.46875 C18.49281738 116.23643677 17.67313477 116.00412354 16.82861328 115.76477051 C11.11627383 114.11627383 11.11627383 114.11627383 10 113 C9.78416946 111.62616012 9.62932512 110.24266022 9.50010681 108.85798645 C9.41459061 107.96496826 9.3290744 107.07195007 9.2409668 106.15187073 C9.15105469 105.16436325 9.06114258 104.17685577 8.96850586 103.15942383 C8.87082413 102.12528351 8.7731424 101.09114319 8.67250061 100.02566528 C8.34884742 96.58652001 8.03172657 93.14680647 7.71484375 89.70703125 C7.49238278 87.32383863 7.26960554 84.94067551 7.04652405 82.55754089 C6.57889955 77.55155735 6.11436152 72.54529988 5.65209961 67.53881836 C5.0596152 61.12346745 4.46074612 54.70873297 3.85970211 48.29417896 C3.39858969 43.36758706 2.94028292 38.44073739 2.48288155 33.51379967 C2.26312121 31.14905758 2.04262934 28.78438337 1.82139397 26.41977882 C1.51220619 23.10928378 1.20664891 19.79847339 0.90209961 16.48754883 C0.81016327 15.51016251 0.71822693 14.53277618 0.62350464 13.52577209 C0.54080826 12.61865479 0.45811188 11.71153748 0.37290955 10.77693176 C0.30046493 9.99470654 0.22802031 9.21248133 0.15338039 8.40655231 C-0.02488342 5.60957686 0 2.80265048 0 0 Z M29 24 C27.68 37.53 26.36 51.06 25 65 C40.84 65 56.68 65 73 65 C72.34 70.94 71.68 76.88 71 83 C57.35924933 87.68900804 57.35924933 87.68900804 50 86 C48.167223 85.64296552 46.33386859 85.28888461 44.5 84.9375 C43.015 84.628125 41.53 84.31875 40 84 C39.67 80.37 39.34 76.74 39 73 C34.71 73 30.42 73 26 73 C26.14203337 75.37528151 26.28851612 77.75015251 26.4375 80.125 C26.47681641 80.79015625 26.51613281 81.4553125 26.55664062 82.140625 C26.81237417 86.15367449 27.31079478 90.04136221 28 94 C31.97127703 95.21503507 35.95292639 96.39187821 39.9375 97.5625 C41.05447266 97.90474609 42.17144531 98.24699219 43.32226562 98.59960938 C54.47946084 101.83879508 62.05687609 100.2446745 73 97 C73.95261719 96.72671875 74.90523437 96.4534375 75.88671875 96.171875 C80.2752593 95.20751995 80.2752593 95.20751995 84 93 C84.30127247 90.83057342 84.54042271 88.65247311 84.75390625 86.47265625 C84.81907944 85.80971054 84.88425262 85.14676483 84.95140076 84.46372986 C85.08887603 83.05245006 85.22406517 81.64094602 85.35717773 80.22924805 C85.55875946 78.10197358 85.77002312 75.97582752 85.98242188 73.84960938 C86.11517811 72.4740156 86.24735628 71.0983659 86.37890625 69.72265625 C86.4982251 68.48265869 86.61754395 67.24266113 86.74047852 65.96508789 C87.04455977 61.31919553 87 56.65583303 87 52 C71.16 52 55.32 52 39 52 C39.33 47.05 39.66 42.1 40 37 C51.22 37 62.44 37 74 37 C74 39.64 74 42.28 74 45 C78.29 45 82.58 45 87 45 C86.87625 43.205625 86.7525 41.41125 86.625 39.5625 C86.52058594 38.04849609 86.52058594 38.04849609 86.4140625 36.50390625 C85.91589748 32.28830225 84.92085601 28.14385203 84 24 C65.85 24 47.7 24 29 24 Z " fill="#E7A01F" transform="translate(15,42)"/>
<path d="M0 0 C5.94 0 11.88 0 18 0 C18 2.64 18 5.28 18 8 C16.68 8.33 15.36 8.66 14 9 C14.66 9.495 15.32 9.99 16 10.5 C18 13 18 13 18 21 C12.06 21 6.12 21 0 21 C0 18.69 0 16.38 0 14 C1.32 13.67 2.64 13.34 4 13 C3.34 12.525625 2.68 12.05125 2 11.5625 C0 9 0 9 0 0 Z " fill="#E7A01F" transform="translate(74,12)"/>
<path d="M0 0 C2.64 0 5.28 0 8 0 C8.02887814 3.47914941 8.04675687 6.95826831 8.0625 10.4375 C8.07087891 11.43072266 8.07925781 12.42394531 8.08789062 13.44726562 C8.09272461 14.86362305 8.09272461 14.86362305 8.09765625 16.30859375 C8.10551147 17.62041626 8.10551147 17.62041626 8.11352539 18.95874023 C8 21 8 21 7 22 C4.13732433 22.07325168 1.299281 22.09238205 -1.5625 22.0625 C-2.36880859 22.05798828 -3.17511719 22.05347656 -4.00585938 22.04882812 C-6.00393756 22.03700518 -8.00197783 22.01906914 -10 22 C-10 19.03 -10 16.06 -10 13 C-6.7 13 -3.4 13 0 13 C0 8.71 0 4.42 0 0 Z " fill="#E5A020" transform="translate(60,12)"/>
</svg>
