<?xml version="1.0" encoding="UTF-8"?>
<svg version="1.1" xmlns="http://www.w3.org/2000/svg" width="512" height="512">
<path d="M0 0 C1.76228943 -0.00110275 1.76228943 -0.00110275 3.56018066 -0.00222778 C22.00715649 0.02807648 39.40144866 0.99168678 57.375 5.4375 C58.46506348 5.69982422 59.55512695 5.96214844 60.67822266 6.23242188 C102.01302364 16.40301459 140.89911591 36.02572332 172.046875 65.26171875 C174.04397354 67.12813466 176.08522326 68.88046363 178.1875 70.625 C199.16612734 88.9920023 215.31431027 113.00330079 228.375 137.4375 C228.71772949 138.07236328 229.06045898 138.70722656 229.41357422 139.36132812 C241.93128263 162.73091299 249.75531679 188.39116454 254.375 214.4375 C254.55305176 215.33509033 254.73110352 216.23268066 254.91455078 217.1574707 C256.92495921 228.70878525 256.74715142 240.35485631 256.74560547 252.04614258 C256.74994515 255.70377371 256.78626187 259.36016207 256.82421875 263.01757812 C257.14262135 329.40242047 227.95660749 391.94389139 182.03320312 439.01538086 C175.8179186 445.27916911 169.33065148 450.99809572 162.375 456.4375 C161.59125 457.08847656 160.8075 457.73945313 160 458.41015625 C152.83954204 464.33402196 145.16323241 469.39087017 137.375 474.4375 C136.49457031 475.01371094 135.61414063 475.58992188 134.70703125 476.18359375 C129.64642351 479.4375 129.64642351 479.4375 127.375 479.4375 C127.375 478.7775 127.375 478.1175 127.375 477.4375 C130.345 475.7875 133.315 474.1375 136.375 472.4375 C135.54033058 469.09882233 135.04136293 467.62367245 133.24316406 464.91796875 C132.79513931 464.2377063 132.34711456 463.55744385 131.88551331 462.85656738 C131.14554359 461.75194153 131.14554359 461.75194153 130.390625 460.625 C129.87181259 459.84056519 129.35300018 459.05613037 128.81846619 458.2479248 C127.09255924 455.64092847 125.35874808 453.0392869 123.625 450.4375 C122.40737371 448.60129943 121.19034292 446.76470385 119.97387695 444.92773438 C117.41345406 441.06225643 114.85035124 437.19857432 112.28564453 433.3359375 C108.47784264 427.59731416 104.68729556 421.84746303 100.90234375 416.09375 C100.2937854 415.16874191 99.68522705 414.24373383 99.05822754 413.29069519 C97.83557373 411.43220172 96.61293775 409.57369652 95.39031982 407.71517944 C85.68304684 392.96334654 75.93026376 378.24299075 66.11999512 363.55947876 C60.22982654 354.7418144 54.38649425 345.896953 48.61010742 337.00415039 C41.88609121 326.66275528 35.09981249 316.36242343 28.3125 306.0625 C27.68356842 305.10802979 27.05463684 304.15355957 26.40664673 303.17016602 C18.14138589 290.63029977 9.84347177 278.11295231 1.5 265.625 C-4.84419801 256.12937591 -11.14870481 246.61166254 -17.37011719 237.03491211 C-23.65196055 227.37450598 -29.98230673 217.74610385 -36.31881714 208.12149048 C-37.58290755 206.20099433 -38.84637997 204.28009124 -40.10916138 202.35873413 C-46.64657257 192.41304776 -53.21769465 182.49076962 -59.8984375 172.640625 C-60.72016953 171.41965118 -60.72016953 171.41965118 -61.5585022 170.17401123 C-62.06432831 169.4324176 -62.57015442 168.69082397 -63.09130859 167.92675781 C-63.53397064 167.27443176 -63.97663269 166.62210571 -64.43270874 165.95001221 C-65.56861103 164.28837362 -65.56861103 164.28837362 -67.625 163.4375 C-80.11624815 161.52306361 -80.11624815 161.52306361 -91.80181885 164.86521912 C-94.62033544 168.84179398 -94.1958981 172.64307246 -94.17089844 177.40649414 C-94.18122195 178.42623794 -94.19154547 179.44598173 -94.20218182 180.49662685 C-94.23183109 183.90545918 -94.23307884 187.31370415 -94.234375 190.72265625 C-94.24962407 193.13847963 -94.26659163 195.55429271 -94.28517151 197.97009277 C-94.32533017 203.79664279 -94.34712277 209.62304175 -94.35971135 215.4497124 C-94.37477702 222.1609945 -94.40877218 228.87213824 -94.44351399 235.58334243 C-94.49886683 246.39298443 -94.53929575 257.20260679 -94.56834781 268.01234925 C-94.60194091 280.49038946 -94.67072594 292.9676468 -94.7696228 305.44532776 C-94.82344518 312.27465722 -94.86249075 319.10403148 -94.89500237 325.93349361 C-94.91644412 330.39524452 -94.94349902 334.85677641 -94.98498535 339.31838989 C-95.02260618 343.43939361 -95.04113491 347.56002803 -95.0442028 351.68119812 C-95.04851852 353.16398274 -95.05964591 354.64676649 -95.0782795 356.12944031 C-95.10241346 358.12725252 -95.09942609 360.125338 -95.0949707 362.12329102 C-95.10083694 363.23076187 -95.10670319 364.33823273 -95.11274719 365.47926331 C-94.50950757 369.13797342 -93.1765368 370.79801313 -90.625 373.4375 C-87.63762272 374.93118864 -84.58539093 374.62187999 -81.3125 374.625 C-79.99636719 374.63917969 -78.68023437 374.65335937 -77.32421875 374.66796875 C-72.74089562 374.38241852 -69.88781327 373.70031327 -66.625 370.4375 C-64.94126419 362.63788958 -65.45501114 354.19790953 -65.41967773 346.26708984 C-65.41007798 344.86661504 -65.40006674 343.46614301 -65.38967896 342.06567383 C-65.36285072 338.2936769 -65.34172291 334.52166774 -65.32167697 330.7496295 C-65.29967973 326.79649394 -65.27235881 322.84339512 -65.24562073 318.89028931 C-65.1958783 311.41787342 -65.15087171 303.94543694 -65.10759836 296.4729811 C-65.05806742 287.9601904 -65.00320854 279.44743659 -64.94791877 270.93468165 C-64.83438229 253.43565527 -64.72748252 235.93659454 -64.625 218.4375 C-60.82570988 219.70393004 -60.37367247 220.96470191 -58.25 224.3125 C-57.53714844 225.41335937 -56.82429687 226.51421875 -56.08984375 227.6484375 C-55.69522949 228.25913086 -55.30061523 228.86982422 -54.89404297 229.49902344 C-52.59070496 233.01739662 -50.19578512 236.47301905 -47.8125 239.9375 C-28.08217316 268.71426849 -8.62321829 297.67710939 10.88305664 326.605896 C13.29958346 330.18946804 15.71665057 333.77267548 18.13378906 337.35583496 C19.81629852 339.85046427 21.49800769 342.34563168 23.1796875 344.84082031 C26.23853295 349.37729788 29.3039419 353.90928172 32.375 358.4375 C32.86273895 359.15717957 33.35047791 359.87685913 33.85299683 360.61834717 C39.50251598 368.94118467 45.26161844 377.1174693 51.4375 385.0625 C56.34289204 391.43546992 61.16404629 397.84128002 65.7980957 404.41381836 C69.31304298 409.38752374 72.96088854 414.25464186 76.62719727 419.11743164 C80.64239409 424.44736723 84.60977982 429.81109908 88.5625 435.1875 C95.12063864 444.10067875 101.72496988 452.9739648 108.4453125 461.765625 C109.17314941 462.71840332 109.90098633 463.67118164 110.65087891 464.65283203 C112.11766459 466.57172905 113.58605412 468.48940131 115.05615234 470.40576172 C115.72855957 471.28506348 116.4009668 472.16436523 117.09375 473.0703125 C117.70154297 473.86324707 118.30933594 474.65618164 118.93554688 475.47314453 C120.375 477.4375 120.375 477.4375 121.375 479.4375 C123.025 479.4375 124.675 479.4375 126.375 479.4375 C121.13556419 489.91637163 93.28645432 497.02391735 82.5 500.6875 C75.42229541 502.99181259 68.22436134 504.84292462 61 506.625 C60.04496582 506.8631543 59.08993164 507.10130859 58.10595703 507.34667969 C40.17435816 511.59073944 22.71974228 512.94937387 4.3137207 512.88354492 C0.70921286 512.87505116 -2.89369473 512.90389316 -6.49804688 512.93554688 C-66.01355928 513.11599612 -127.24668862 489.41051305 -170.625 448.4375 C-171.91227918 447.32822135 -173.20388284 446.22393909 -174.5 445.125 C-183.78127086 437.00623175 -192.04431206 428.15529678 -199.625 418.4375 C-200.41390625 417.45394531 -201.2028125 416.47039062 -202.015625 415.45703125 C-228.92578776 381.62224228 -246.52247563 341.02413836 -253.625 298.4375 C-253.80160156 297.53249756 -253.97820312 296.62749512 -254.16015625 295.69506836 C-256.17079848 284.14913489 -255.99715077 272.51520201 -255.99560547 260.82885742 C-255.99994515 257.17122629 -256.03626187 253.51483793 -256.07421875 249.85742188 C-256.29390058 204.05520895 -242.4438187 157.97977794 -217.625 119.4375 C-217.19751465 118.77347168 -216.7700293 118.10944336 -216.32958984 117.42529297 C-202.62969331 96.39577413 -185.8776629 76.59379514 -166.625 60.4375 C-165.8834668 59.80932373 -165.8834668 59.80932373 -165.12695312 59.16845703 C-130.21974316 29.77127337 -86.82287301 9.35200767 -41.625 2.4375 C-40.55491699 2.26307373 -39.48483398 2.08864746 -38.38232422 1.90893555 C-25.62542979 0.04858979 -12.87296876 -0.00349944 0 0 Z M64.21507263 158.74040222 C61.16949471 163.63955078 61.75998276 169.38645159 61.74633789 174.96606445 C61.72808456 176.22710495 61.70983124 177.48814545 61.69102478 178.78739929 C61.64298973 182.23850293 61.62116742 185.68927397 61.60717702 189.1406672 C61.59763869 191.30476453 61.58317855 193.46877498 61.56716728 195.63283348 C61.512204 203.20617798 61.4812137 210.77925528 61.46899414 218.3527832 C61.45693449 225.37214819 61.38857104 232.38945169 61.29426771 239.40814811 C61.2158142 245.46204616 61.18069712 251.51526652 61.17734522 257.56966752 C61.1744811 261.17323219 61.15465877 264.77459272 61.08970833 268.37761879 C60.81565591 284.522274 61.13096356 297.12670933 72.02289581 309.80892181 C74.13900062 312.35772106 75.83128704 315.11258924 77.58984375 317.91796875 C78.83041376 319.8205182 80.07128964 321.72286825 81.3125 323.625 C81.94478516 324.59501953 82.57707031 325.56503906 83.22851562 326.56445312 C84.42408402 328.39732345 85.62106692 330.22927232 86.81982422 332.06005859 C87.7738018 333.51843122 88.7242002 334.97916237 89.66845703 336.44384766 C90.54504735 337.79205382 91.45503307 339.11851127 92.375 340.4375 C92.705 340.4375 93.035 340.4375 93.375 340.4375 C93.49178392 317.20248431 93.57996405 293.96751699 93.63406086 270.73226738 C93.65984622 259.94380764 93.69500322 249.15553022 93.75219727 238.3671875 C93.80202191 228.96443375 93.8342886 219.56181204 93.84544247 210.15892994 C93.8519628 205.17977055 93.86729445 200.2009889 93.90365028 195.22195053 C93.93759483 190.53516118 93.94805605 185.84890508 93.94053841 181.16200447 C93.94191364 179.44228403 93.95185547 177.72254571 93.97102737 176.00293159 C93.99594283 173.65282081 93.98991259 171.30471751 93.97627258 168.95455933 C93.98088155 167.64008253 93.98549051 166.32560574 93.99023914 164.97129631 C93.18038532 160.31967673 91.71862885 158.71839629 88.375 155.4375 C85.58906972 154.41662862 85.58906972 154.41662862 82.375 154.4375 C81.66988281 154.40011719 80.96476562 154.36273438 80.23828125 154.32421875 C74.2488326 154.13101073 68.55426382 154.11398137 64.21507263 158.74040222 Z " fill="#000000" transform="translate(255.625,-0.4375)"/>
</svg>
