<?xml version="1.0" encoding="UTF-8"?>
<svg version="1.1" xmlns="http://www.w3.org/2000/svg" width="512" height="512">
<path d="M0 0 C1.15839386 -0.00067474 2.31678772 -0.00134949 3.51028442 -0.00204468 C21.90170443 0.01494457 39.8963626 0.62598532 58.125 3.25 C59.90825684 3.49943359 59.90825684 3.49943359 61.72753906 3.75390625 C88.27277431 7.58356883 114.22120602 14.26679101 139.125 24.25 C139.8478418 24.53697754 140.57068359 24.82395508 141.31542969 25.11962891 C161.97105432 33.42351926 181.01198127 44.8186859 197.125 60.25 C197.970625 61.054375 198.81625 61.85875 199.6875 62.6875 C200.8940625 63.9559375 200.8940625 63.9559375 202.125 65.25 C203.12273437 66.27287109 203.12273437 66.27287109 204.140625 67.31640625 C220.6305183 84.78784082 225.90006374 103.23492547 225.25244141 126.66455078 C224.48684055 142.19656819 215.66590933 155.53759338 206.125 167.25 C205.55007813 167.97832031 204.97515625 168.70664062 204.3828125 169.45703125 C199.64295311 175.20609515 193.98663075 179.69008778 188.125 184.25 C187.196875 184.99378906 186.26875 185.73757813 185.3125 186.50390625 C151.49144874 212.92660254 107.37052152 225.53908138 65.5625 232.125 C64.35327881 232.31610352 63.14405762 232.50720703 61.89819336 232.70410156 C41.85579683 235.65706914 21.86683394 236.63056705 1.625 236.5625 C0.49191406 236.56067719 -0.64117187 236.55885437 -1.80859375 236.55697632 C-52.27123246 236.42083292 -104.15831866 228.64991923 -149.875 206.25 C-150.72723145 205.83347168 -151.57946289 205.41694336 -152.45751953 204.98779297 C-168.2704373 197.1741832 -182.0839594 188.49988119 -194.875 176.25 C-196.1434375 175.0434375 -196.1434375 175.0434375 -197.4375 173.8125 C-198.241875 172.966875 -199.04625 172.12125 -199.875 171.25 C-200.87273437 170.22712891 -200.87273437 170.22712891 -201.890625 169.18359375 C-218.3805183 151.71215918 -223.65006374 133.26507453 -223.00244141 109.83544922 C-222.06039024 90.72372145 -208.9068677 73.2818677 -195.875 60.25 C-192.3399715 57.06519104 -188.65331654 54.13988808 -184.875 51.25 C-183.93011719 50.49332031 -182.98523438 49.73664063 -182.01171875 48.95703125 C-141.44628272 17.98989266 -87.57659042 6.46350301 -37.875 1.25 C-36.91045898 1.1454248 -35.94591797 1.04084961 -34.95214844 0.93310547 C-23.34161428 -0.14752866 -11.65000513 0.00609391 0 0 Z " fill="#6280B6" transform="translate(254.875,137.75)"/>
<path d="M0 0 C1.15839386 -0.00067474 2.31678772 -0.00134949 3.51028442 -0.00204468 C21.90170443 0.01494457 39.8963626 0.62598532 58.125 3.25 C59.90825684 3.49943359 59.90825684 3.49943359 61.72753906 3.75390625 C88.27277431 7.58356883 114.22120602 14.26679101 139.125 24.25 C139.8478418 24.53697754 140.57068359 24.82395508 141.31542969 25.11962891 C161.97105432 33.42351926 181.01198127 44.8186859 197.125 60.25 C197.970625 61.054375 198.81625 61.85875 199.6875 62.6875 C200.8940625 63.9559375 200.8940625 63.9559375 202.125 65.25 C203.12273437 66.27287109 203.12273437 66.27287109 204.140625 67.31640625 C220.6305183 84.78784082 225.90006374 103.23492547 225.25244141 126.66455078 C224.48684055 142.19656819 215.66590933 155.53759338 206.125 167.25 C205.55007813 167.97832031 204.97515625 168.70664062 204.3828125 169.45703125 C199.64295311 175.20609515 193.98663075 179.69008778 188.125 184.25 C187.196875 184.99378906 186.26875 185.73757813 185.3125 186.50390625 C151.49144874 212.92660254 107.37052152 225.53908138 65.5625 232.125 C64.35327881 232.31610352 63.14405762 232.50720703 61.89819336 232.70410156 C41.85579683 235.65706914 21.86683394 236.63056705 1.625 236.5625 C0.49191406 236.56067719 -0.64117187 236.55885437 -1.80859375 236.55697632 C-52.27123246 236.42083292 -104.15831866 228.64991923 -149.875 206.25 C-150.72723145 205.83347168 -151.57946289 205.41694336 -152.45751953 204.98779297 C-168.2704373 197.1741832 -182.0839594 188.49988119 -194.875 176.25 C-196.1434375 175.0434375 -196.1434375 175.0434375 -197.4375 173.8125 C-198.241875 172.966875 -199.04625 172.12125 -199.875 171.25 C-200.87273437 170.22712891 -200.87273437 170.22712891 -201.890625 169.18359375 C-218.3805183 151.71215918 -223.65006374 133.26507453 -223.00244141 109.83544922 C-222.06039024 90.72372145 -208.9068677 73.2818677 -195.875 60.25 C-192.3399715 57.06519104 -188.65331654 54.13988808 -184.875 51.25 C-183.93011719 50.49332031 -182.98523438 49.73664063 -182.01171875 48.95703125 C-141.44628272 17.98989266 -87.57659042 6.46350301 -37.875 1.25 C-36.91045898 1.1454248 -35.94591797 1.04084961 -34.95214844 0.93310547 C-23.34161428 -0.14752866 -11.65000513 0.00609391 0 0 Z M-92.875 19.25 C-93.95281738 19.51151855 -95.03063477 19.77303711 -96.14111328 20.04248047 C-136.84386938 30.16393634 -181.27155142 48.98978659 -205.125 85.4375 C-213.8490244 100.44282196 -216.34834583 115.77753976 -213.2109375 132.8671875 C-212.31026261 135.81983474 -211.21958488 138.47279194 -209.875 141.25 C-209.400625 142.28898438 -208.92625 143.32796875 -208.4375 144.3984375 C-191.34255667 178.9992603 -151.72851257 198.37369267 -116.875 210.25 C-112.83490891 211.48374391 -108.76935329 212.6007323 -104.6875 213.6875 C-103.56907715 213.9868042 -102.4506543 214.2861084 -101.29833984 214.59448242 C-82.77892209 219.46315015 -63.84654824 223.60098203 -44.75 225.3125 C-43.38536621 225.4360083 -43.38536621 225.4360083 -41.99316406 225.56201172 C-39.28778734 225.8004437 -36.58175164 226.02777333 -33.875 226.25 C-33.15666992 226.31074707 -32.43833984 226.37149414 -31.69824219 226.43408203 C39.70283139 232.22009065 128.24334096 222.57102162 185.05078125 174.7890625 C201.8425657 159.81327845 214.17482774 144.04424844 216.4375 121.078125 C217.07129622 104.83709682 210.82221076 88.5381947 200.09521484 76.39306641 C197.83062653 73.95095573 195.48180991 71.60340411 193.125 69.25 C192.06539063 68.08404297 192.06539063 68.08404297 190.984375 66.89453125 C159.34997276 32.78491815 102.27878235 18.15905637 58.125 12.25 C57.01769531 12.10046875 55.91039062 11.9509375 54.76953125 11.796875 C5.75978459 5.5426059 -44.85545743 7.57677981 -92.875 19.25 Z " fill="#536177" transform="translate(254.875,137.75)"/>
<path d="M0 0 C7.79792241 -0.0698019 15.59577033 -0.12296344 23.39392757 -0.15543652 C27.01574248 -0.17102948 30.63734214 -0.19214953 34.2590332 -0.22631836 C37.7603775 -0.25914149 41.261516 -0.2769008 44.7630024 -0.28463173 C46.73537617 -0.29279505 48.70766826 -0.31617711 50.67991638 -0.33988953 C61.99555954 -0.34199019 70.88222104 2.1151465 80 9 C87.28588218 16.53078578 90.41651721 25.61993918 90.27734375 35.99609375 C88.86970543 51.24220456 82.24848358 64.65068987 71 75 C56.53027616 85.94504752 41.37937776 87.2315054 23.75 87.625 C22.3111774 87.66329936 20.87237479 87.70235739 19.43359375 87.7421875 C15.95591505 87.83684361 12.47808148 87.92133063 9 88 C8.85377197 88.80219971 8.70754395 89.60439941 8.55688477 90.4309082 C7.8943326 94.05851928 7.22845674 97.68551246 6.5625 101.3125 C6.33240234 102.57513672 6.10230469 103.83777344 5.86523438 105.13867188 C5.53168945 106.95141602 5.53168945 106.95141602 5.19140625 108.80078125 C4.98717041 109.91622314 4.78293457 111.03166504 4.57250977 112.1809082 C4 115 4 115 3 118 C-5.58 118 -14.16 118 -23 118 C-20.91136752 105.96947693 -18.66989133 93.98037921 -16.3125 82 C-15.96436633 80.22512744 -15.61638799 78.45022442 -15.26855469 76.67529297 C-14.7280198 73.91716957 -14.18736017 71.15907127 -13.64608765 68.40109253 C-12.3698376 61.89644658 -11.10261946 55.39008655 -9.83984375 48.8828125 C-9.31251879 46.16844349 -8.78509573 43.45409356 -8.25765991 40.73974609 C-7.92599989 39.03150257 -7.59478344 37.32317285 -7.2640686 35.61474609 C-4.96029436 23.71732877 -2.52815822 11.85177984 0 0 Z " fill="#020206" transform="translate(123,204)"/>
<path d="M0 0 C7.5025939 -0.06992998 15.00515342 -0.12302732 22.50800037 -0.15543652 C25.99300066 -0.17100207 29.47777575 -0.19207028 32.96264648 -0.22631836 C36.98162835 -0.26556218 41.00037873 -0.27978433 45.01953125 -0.29296875 C46.25331009 -0.30845261 47.48708893 -0.32393646 48.758255 -0.33988953 C60.37770974 -0.34212004 70.67227732 1.75055939 80 9 C86.78207116 15.91084467 89.58305249 23.99884786 89.5 33.5625 C89.49427979 34.34117432 89.48855957 35.11984863 89.48266602 35.92211914 C89.04052416 50.54555163 82.74425831 63.81464098 72.1875 73.875 C67.51177664 77.85934353 62.64998747 80.63555146 57 83 C56.25741943 83.32701904 55.51483887 83.65403809 54.74975586 83.9909668 C44.48377653 87.75810633 32.89456785 87.2623939 22.125 87.125 C20.74349622 87.11493026 19.36198516 87.1058116 17.98046875 87.09765625 C14.65345268 87.0743904 11.32682715 87.04170564 8 87 C7.95174072 87.59280762 7.90348145 88.18561523 7.85375977 88.79638672 C7.26783283 95.33255757 6.21552786 101.69207072 4.9375 108.125 C4.298125 111.38375 3.65875 114.6425 3 118 C-5.58 118 -14.16 118 -23 118 C-21.87526567 107.877391 -21.87526567 107.877391 -21.00366211 103.61181641 C-20.80904892 102.64863495 -20.61443573 101.68545349 -20.41392517 100.69308472 C-20.2038533 99.67288239 -19.99378143 98.65268005 -19.77734375 97.6015625 C-19.55611343 96.5090921 -19.33488312 95.4166217 -19.10694885 94.29104614 C-18.63272642 91.94937604 -18.15692733 89.60802478 -17.6796875 87.26696777 C-13.42148216 66.371646 -9.32055965 45.45639506 -5.55053711 24.46728516 C-5.39898666 23.63357391 -5.24743622 22.79986267 -5.09129333 21.94088745 C-4.81623477 20.42725977 -4.54488562 18.91294916 -4.27870178 17.3977356 C-3.20319324 11.50011577 -1.63703826 5.76438631 0 0 Z " fill="#030307" transform="translate(324,204)"/>
<path d="M0 0 C8.25 0 16.5 0 25 0 C23.875 11.25 23.875 11.25 23.02734375 15.5703125 C22.85009766 16.48554688 22.67285156 17.40078125 22.49023438 18.34375 C22.30783203 19.2615625 22.12542969 20.179375 21.9375 21.125 C21.75123047 22.08148438 21.56496094 23.03796875 21.37304688 24.0234375 C20.91940944 26.34978331 20.46167962 28.67523936 20 31 C20.99741211 30.97905273 21.99482422 30.95810547 23.02246094 30.93652344 C26.77963479 30.86324786 30.53674776 30.81788791 34.29443359 30.78027344 C35.91010209 30.76035468 37.5257004 30.73320926 39.14111328 30.69824219 C50.86834426 30.45104699 63.84273626 30.51277995 73 39 C78.34399539 46.62410009 78.88401769 53.65357007 77.61962891 62.73071289 C77.0929043 65.5847003 76.4976958 68.41542709 75.875 71.25 C75.41783439 73.42287536 74.96218152 75.59606938 74.5078125 77.76953125 C74.26450195 78.92275879 74.02119141 80.07598633 73.77050781 81.26416016 C72.93408584 85.3195876 72.143158 89.38188267 71.3671875 93.44921875 C71.23210785 94.15634003 71.0970282 94.8634613 70.95785522 95.5920105 C70.42161374 98.40338416 69.8865986 101.21498138 69.35491943 104.02722168 C68.98402304 105.98609329 68.60928401 107.94423615 68.234375 109.90234375 C68.02006836 111.03148193 67.80576172 112.16062012 67.58496094 113.32397461 C67 116 67 116 66 118 C57.42 118 48.84 118 40 118 C41.16542351 111.00745895 42.32972468 104.04537128 43.69140625 97.09375 C43.91666237 95.93486267 43.91666237 95.93486267 44.14646912 94.75256348 C44.45909573 93.14608948 44.77249665 91.53976598 45.08666992 89.93359375 C45.56700494 87.47695986 46.04441328 85.0197696 46.52148438 82.5625 C46.82795447 80.9895501 47.13458902 79.41663223 47.44140625 77.84375 C47.58308731 77.11458374 47.72476837 76.38541748 47.8707428 75.63415527 C48.50479931 72.39914087 49.19709824 69.19658199 50 66 C50.72597387 59.32537689 50.72597387 59.32537689 48.125 53.4375 C44.40246633 50.91931546 42.18097528 50.88206768 37.6796875 50.90234375 C35.79443359 50.90717773 35.79443359 50.90717773 33.87109375 50.91210938 C32.55238281 50.92048828 31.23367188 50.92886719 29.875 50.9375 C28.53515789 50.94251511 27.195314 50.94707799 25.85546875 50.95117188 C22.57026794 50.96298914 19.28515603 50.97946383 16 51 C11.63568563 73.32746141 7.28139567 95.65646635 3 118 C-5.58 118 -14.16 118 -23 118 C-22.31131704 113.17921926 -21.5517704 108.47612554 -20.6171875 103.70703125 C-20.41496078 102.67101776 -20.41496078 102.67101776 -20.20864868 101.61407471 C-19.91779567 100.12522318 -19.62613496 98.63652925 -19.33374023 97.14797974 C-18.86475539 94.76034395 -18.39793854 92.37229276 -17.93164062 89.98413086 C-17.27916208 86.64355216 -16.62582795 83.30314276 -15.97167969 79.96289062 C-14.62098452 73.06545249 -13.27368977 66.16735439 -11.92980957 59.26858521 C-11.64346843 57.79888098 -11.35692899 56.32921537 -11.07019043 54.85958862 C-9.36291367 46.10598325 -7.68276945 37.34780905 -6.0390625 28.58203125 C-5.87794983 27.72410477 -5.71683716 26.86617828 -5.55084229 25.98225403 C-4.7699926 21.8223403 -3.99253414 17.66184067 -3.22070312 13.50024414 C-2.94150872 12.00795609 -2.66221714 10.51568621 -2.3828125 9.0234375 C-2.25709869 8.33880936 -2.13138489 7.65418121 -2.00186157 6.94880676 C-1.11340908 2.22681816 -1.11340908 2.22681816 0 0 Z " fill="#030307" transform="translate(230,173)"/>
<path d="M0 0 C2.96508789 -0.35644531 2.96508789 -0.35644531 6.72265625 -0.328125 C7.38333603 -0.32625183 8.04401581 -0.32437866 8.72471619 -0.32244873 C10.12097217 -0.3157261 11.51720925 -0.30180717 12.91333008 -0.28125 C15.05763114 -0.2500708 17.20119779 -0.24027799 19.34570312 -0.234375 C29.83662324 -0.16337676 29.83662324 -0.16337676 31 1 C31.50828727 7.54419864 29.95856118 13.58684578 28.5 19.9375 C28.26152344 21.00291016 28.02304687 22.06832031 27.77734375 23.16601562 C27.19149341 25.77890813 26.59888542 28.39007007 26 31 C26.84071045 30.97905273 27.6814209 30.95810547 28.54760742 30.93652344 C31.73278577 30.86745623 34.91757677 30.81777426 38.10327148 30.78027344 C39.4696119 30.76042733 40.83587059 30.73334086 42.2019043 30.69824219 C55.03926825 30.37719005 68.15337199 31.95174723 78 41 C83.01095752 46.40004364 83.69388671 52.57432479 83.59448242 59.68212891 C83.12911131 69.42912556 80.85130258 78.9112553 78.76611328 88.41259766 C77.93105506 92.32284162 77.15890429 96.24195628 76.40234375 100.16796875 C76.1349747 101.54663984 75.8675596 102.925302 75.60009766 104.30395508 C75.20752423 106.32913018 74.8164015 108.3545201 74.43035889 110.38095093 C74.07060644 112.26300601 73.70151261 114.14326818 73.33203125 116.0234375 C73.12296143 117.10544434 72.9138916 118.18745117 72.69848633 119.30224609 C72 122 72 122 70 125 C67.03491211 125.35644531 67.03491211 125.35644531 63.27734375 125.328125 C62.61666397 125.32625183 61.95598419 125.32437866 61.27528381 125.32244873 C59.87902783 125.3157261 58.48279075 125.30180717 57.08666992 125.28125 C54.94236886 125.2500708 52.79880221 125.24027799 50.65429688 125.234375 C40.16337676 125.16337676 40.16337676 125.16337676 39 124 C39.00134023 113.64402936 41.82861245 103.22438365 43.91333008 93.13452148 C46.24968191 81.77218071 47.8559626 70.54960369 49 59 C35.14 58.505 35.14 58.505 21 58 C20.319375 61.8775 19.63875 65.755 18.9375 69.75 C16.95462578 80.89299413 14.90320934 92.0228454 12.775177 103.13903809 C12.46702964 104.75308718 12.16125849 106.36759176 11.85787964 107.98254395 C11.42893214 110.26185033 10.99106189 112.5392656 10.55078125 114.81640625 C10.42383881 115.49959427 10.29689636 116.18278229 10.16610718 116.88667297 C9.51979854 120.17544715 8.89158664 122.16262004 7 125 C4.03491211 125.35644531 4.03491211 125.35644531 0.27734375 125.328125 C-0.38333603 125.32625183 -1.04401581 125.32437866 -1.72471619 125.32244873 C-3.12097217 125.3157261 -4.51720925 125.30180717 -5.91333008 125.28125 C-8.05763114 125.2500708 -10.20119779 125.24027799 -12.34570312 125.234375 C-22.83662324 125.16337676 -22.83662324 125.16337676 -24 124 C-23.80042522 115.95560106 -22.2975057 107.92360279 -21 100 C-21.32871094 100.4846875 -21.65742188 100.969375 -21.99609375 101.46875 C-30.94438787 114.07881218 -42.22489211 121.05998326 -57.26806641 124.38208008 C-64.08565744 125.51091188 -70.91603075 125.57914584 -77.8125 125.6875 C-79.29494999 125.72077518 -80.77737305 125.75527369 -82.25976562 125.79101562 C-85.83964513 125.87472726 -89.41959928 125.94207093 -93 126 C-93.13575439 126.83249268 -93.27150879 127.66498535 -93.41137695 128.52270508 C-93.92174166 131.61621067 -94.44291055 134.70764525 -94.97143555 137.7980957 C-95.19777931 139.13493347 -95.4198266 140.47250619 -95.63745117 141.81079102 C-95.95135892 143.73642556 -96.28211495 145.65928963 -96.61328125 147.58203125 C-96.80704346 148.73936768 -97.00080566 149.8967041 -97.20043945 151.08911133 C-98.37772094 155.37513488 -98.37772094 155.37513488 -101 157 C-103.87915039 157.37231445 -103.87915039 157.37231445 -107.34765625 157.36328125 C-108.59224609 157.36263672 -109.83683594 157.36199219 -111.11914062 157.36132812 C-112.42044922 157.34521484 -113.72175781 157.32910156 -115.0625 157.3125 C-116.36767578 157.31572266 -117.67285156 157.31894531 -119.01757812 157.32226562 C-128.73313673 157.26686327 -128.73313673 157.26686327 -131 155 C-131.27065893 146.69883315 -129.00085296 138.14998251 -127.375 130.0625 C-127.10740606 128.70934416 -126.84041369 127.35606925 -126.57397461 126.00268555 C-126.00958716 123.13867362 -125.44249031 120.27521727 -124.87353516 117.41210938 C-123.56106768 110.79684843 -122.28125766 104.17524645 -120.9977417 97.55432129 C-120.56183319 95.30906544 -120.12422108 93.06414836 -119.68603516 90.81933594 C-118.30229358 83.72756474 -116.92681312 76.63449519 -115.58067322 69.53547668 C-114.95733719 66.2506281 -114.32952009 62.96664266 -113.7013855 59.68270874 C-113.40449455 58.12374524 -113.10977502 56.56436636 -112.81741333 55.00454712 C-108.85095248 33.85095248 -108.85095248 33.85095248 -106 31 C-104.15098696 30.89037345 -102.2977776 30.8508973 -100.44555664 30.83886719 C-99.25664322 30.82925964 -98.0677298 30.8196521 -96.8427887 30.80975342 C-95.54501999 30.80550354 -94.24725128 30.80125366 -92.91015625 30.796875 C-91.56790668 30.79112134 -90.22565713 30.78536363 -88.88340759 30.77960205 C-86.05955624 30.76907456 -83.23573346 30.76324537 -80.41186523 30.75976562 C-76.81765432 30.75431893 -73.22382961 30.73038192 -69.62973881 30.70179367 C-66.85079411 30.68302237 -64.07193902 30.67795377 -61.29293633 30.67642975 C-59.33115608 30.67197935 -57.36942407 30.65338947 -55.4077301 30.63446045 C-42.05652212 30.66737662 -30.63164049 34.22601575 -20.5703125 43.2578125 C-16.74131901 47.50589981 -14.30664141 52.47101127 -13 58 C-10.62219134 47.51849175 -8.34225342 37.0251475 -6.40234375 26.453125 C-6.26963074 25.73157227 -6.13691772 25.01001953 -6.00018311 24.26660156 C-5.34135062 20.67242159 -4.69292264 17.07666764 -4.05615234 13.47851562 C-3.81494207 12.1471058 -3.57357568 10.81572424 -3.33203125 9.484375 C-3.12296143 8.30584961 -2.9138916 7.12732422 -2.69848633 5.91308594 C-2 3 -2 3 0 0 Z M2 4 C-0.47905468 13.86864011 -0.47905468 13.86864011 -2.578125 23.78125 C-2.71020355 24.46530411 -2.8422821 25.14935822 -2.97836304 25.85414124 C-3.40530377 28.06885154 -3.82768354 30.28440373 -4.25 32.5 C-4.55353737 34.07941038 -4.85741829 35.65875476 -5.16162109 37.23803711 C-5.63379873 39.69013406 -6.10562991 42.14229405 -6.57614136 44.5947113 C-7.65193638 50.20199517 -8.73965561 55.80684358 -9.8359375 61.41015625 C-12.56582267 75.36830047 -15.27689191 89.32913175 -17.875 103.3125 C-18.07818848 104.40312744 -18.28137695 105.49375488 -18.49072266 106.61743164 C-18.67683105 107.62668701 -18.86293945 108.63594238 -19.0546875 109.67578125 C-19.21437012 110.54114502 -19.37405273 111.40650879 -19.53857422 112.2980957 C-20.08912471 115.52187471 -20.53748823 118.7624176 -21 122 C-12.42 122 -3.84 122 5 122 C6.21040782 115.99451506 7.41947821 109.98878784 8.62548828 103.98242188 C9.03394277 101.95004943 9.44309395 99.91781685 9.85302734 97.88574219 C12.73057976 83.61817274 15.45123859 69.33005252 18 55 C22.56237931 54.91280369 27.12454386 54.85954078 31.6875 54.8125 C33.62786133 54.77479492 33.62786133 54.77479492 35.60742188 54.73632812 C36.85458984 54.72666016 38.10175781 54.71699219 39.38671875 54.70703125 C40.53358154 54.6913208 41.68044434 54.67561035 42.86206055 54.65942383 C46.35237798 55.03824533 48.20644999 55.91158098 51 58 C54.39552573 64.79105146 51.32393259 74.61841048 49.8125 81.625 C49.59053955 82.69443848 49.3685791 83.76387695 49.13989258 84.86572266 C48.43639807 88.24595814 47.71921313 91.62307716 47 95 C46.28441211 98.3906379 45.57096602 101.7817073 44.86010742 105.17333984 C44.41891276 107.27345847 43.97389276 109.37277789 43.5246582 111.47119141 C43.22434692 112.88924072 43.22434692 112.88924072 42.91796875 114.3359375 C42.74031982 115.16657715 42.5626709 115.9972168 42.37963867 116.85302734 C41.91293806 119.12898202 41.91293806 119.12898202 42 122 C50.58 122 59.16 122 68 122 C69.66962953 116.20493704 69.66962953 116.20493704 70.9296875 110.38500977 C71.08324707 109.55046768 71.23680664 108.7159256 71.39501953 107.85609436 C71.55341309 106.97674728 71.71180664 106.09740021 71.875 105.19140625 C72.12999268 103.80307838 72.12999268 103.80307838 72.39013672 102.38670349 C72.93001627 99.44588748 73.46543672 96.50428666 74 93.5625 C74.5348686 90.62434321 75.07080006 87.68639843 75.60986328 84.74900818 C75.94408757 82.92741648 76.27593657 81.10538675 76.60498047 79.28285217 C77.55007611 74.12719055 78.7059804 69.07879158 80 64 C81.03963893 56.05496987 79.83372385 49.50376955 75 43 C65.09093571 33.83796051 51.4139994 34.61111607 38.875 34.8125 C37.23438731 34.82757678 35.59376119 34.84125988 33.953125 34.85351562 C29.96841333 34.8862783 25.98435791 34.9378937 22 35 C22.15146484 34.23856689 22.30292969 33.47713379 22.45898438 32.69262695 C23.14421445 29.23353282 23.82217858 25.77305316 24.5 22.3125 C24.73847656 21.11431641 24.97695312 19.91613281 25.22265625 18.68164062 C25.44824219 17.52470703 25.67382812 16.36777344 25.90625 15.17578125 C26.11572266 14.11270752 26.32519531 13.04963379 26.54101562 11.9543457 C27.12793119 8.67484285 27.12793119 8.67484285 27 4 C18.75 4 10.5 4 2 4 Z M-105 35 C-109.60850842 56.60436358 -114.08464577 78.2206742 -118.21728516 99.921875 C-119.08144107 104.44049677 -119.96820417 108.95461868 -120.85546875 113.46875 C-121.17378482 115.09162665 -121.49206293 116.71451074 -121.81030273 118.33740234 C-122.27269421 120.6951909 -122.73574252 123.05283652 -123.20144653 125.40997314 C-125.01284808 134.58309475 -126.64559246 143.74488182 -128 153 C-119.42 153 -110.84 153 -102 153 C-101.195625 148.978125 -100.39125 144.95625 -99.5625 140.8125 C-98.375 134.875 -97.1875 128.9375 -96 123 C-94.68563965 122.970271 -94.68563965 122.970271 -93.34472656 122.93994141 C-90.03443082 122.86095861 -86.72451173 122.7742476 -83.41455078 122.68261719 C-81.99307816 122.64477966 -80.57152439 122.60985616 -79.14990234 122.578125 C-58.77904152 122.11809145 -42.45608352 118.98917127 -27.8125 103.875 C-19.31290276 93.90236499 -14.21402942 79.57735888 -14.71875 66.43359375 C-15.74651696 57.54055467 -19.12701428 48.99969079 -26.1796875 43.2109375 C-33.97463933 37.8830748 -40.65742121 34.86678555 -50.16723633 34.88647461 C-51.38812454 34.88655014 -52.60901276 34.88662567 -53.86689758 34.88670349 C-55.17539169 34.89186478 -56.4838858 34.89702606 -57.83203125 34.90234375 C-59.19251961 34.90421039 -60.55300865 34.90563313 -61.91349792 34.90663147 C-65.48255287 34.91043725 -69.05156669 34.92025086 -72.62060547 34.93133545 C-76.26724695 34.94159137 -79.91389511 34.94613803 -83.56054688 34.95117188 C-90.70704801 34.96187497 -97.85352131 34.97892796 -105 35 Z " fill="#EFF0F3" transform="translate(228,169)"/>
<path d="M0 0 C4.14559093 -0.11727273 8.29074862 -0.18760933 12.4375 -0.25 C14.18450195 -0.30027344 14.18450195 -0.30027344 15.96679688 -0.3515625 C24.40511191 -0.44664211 30.67599982 0.67384602 37.4375 5.875 C41.03662668 10.76981229 41.64365189 16.07431591 41 22 C39.42862697 30.92645519 36.05188477 37.94811523 29.625 44.375 C23.36718498 48.24888549 16.69043813 50.13665127 9.359375 50.09765625 C8.28945312 50.09443359 7.21953125 50.09121094 6.1171875 50.08789062 C5.00601563 50.07951172 3.89484375 50.07113281 2.75 50.0625 C1.06003906 50.05573242 1.06003906 50.05573242 -0.6640625 50.04882812 C-3.44276217 50.03705397 -6.22135409 50.0206084 -9 50 C-8.49983265 40.82346029 -6.78012857 31.94524167 -4.98876953 22.95410156 C-4.49568721 20.47834555 -4.01086874 18.00107613 -3.52734375 15.5234375 C-3.21661804 13.94261544 -2.90543691 12.36188282 -2.59375 10.78125 C-2.44893188 10.0437854 -2.30411377 9.3063208 -2.15490723 8.54650879 C-1.57122715 5.62467196 -0.94342092 2.83026277 0 0 Z " fill="#6381B6" transform="translate(145,222)"/>
<path d="M0 0 C4.45798044 -0.14667378 8.91533054 -0.23453375 13.375 -0.3125 C14.62667969 -0.35439453 15.87835938 -0.39628906 17.16796875 -0.43945312 C24.98983338 -0.54183355 31.6644976 0.00460453 38 5 C41.8440565 11.08228211 40.74669012 20.41954308 39.375 27.25 C36.45563228 35.21191197 32.71434876 42.0431226 25 46 C17.46017106 49.04140751 10.42559562 49.37824923 2.375 49.1875 C1.27542969 49.17396484 0.17585938 49.16042969 -0.95703125 49.14648438 C-3.63855332 49.111508 -6.31900073 49.06243072 -9 49 C-9.2090336 43.31514311 -8.4326526 38.19580043 -7.28515625 32.63671875 C-7.10995956 31.76352493 -6.93476288 30.89033112 -6.7542572 29.99067688 C-6.38500604 28.15712237 -6.01252001 26.32421665 -5.63696289 24.49194336 C-5.06103239 21.68033532 -4.49552801 18.86677992 -3.93164062 16.05273438 C-3.57091749 14.26810677 -3.20961002 12.48359716 -2.84765625 10.69921875 C-2.6778273 9.85654953 -2.50799835 9.01388031 -2.33302307 8.14567566 C-1.11649007 2.23298015 -1.11649007 2.23298015 0 0 Z " fill="#6381B6" transform="translate(346,223)"/>
<path d="M0 0 C1.78314354 -0.01418472 1.78314354 -0.01418472 3.60231018 -0.02865601 C4.88975632 -0.02258331 6.17720245 -0.01651062 7.50366211 -0.01025391 C8.84305479 -0.01227644 10.1824464 -0.01518937 11.52183533 -0.01895142 C14.33383635 -0.02337704 17.14555172 -0.01694359 19.95751953 -0.00292969 C23.53604566 0.01404739 27.11389101 0.00439679 30.6923914 -0.01364708 C33.46279358 -0.02457794 36.23303922 -0.02099449 39.00344658 -0.0132637 C40.95632752 -0.01032513 42.90921487 -0.01934214 44.86207581 -0.02865601 C55.98744216 0.05823236 64.87317366 2.32069179 74.21850586 8.38818359 C75.16209961 8.99919922 75.16209961 8.99919922 76.12475586 9.62255859 C82.55330535 14.41577532 85.73435979 21.93574538 88.21850586 29.38818359 C89.42036019 47.14016306 85.75009103 62.84105387 73.96850586 76.63818359 C66.55278556 84.45073173 58.59727098 89.47217901 48.21850586 92.38818359 C46.33518555 92.93152344 46.33518555 92.93152344 44.41381836 93.48583984 C37.28402558 95.03036826 29.91140744 94.59807956 22.65600586 94.51318359 C21.1553608 94.50313282 19.65470921 94.49401068 18.15405273 94.48583984 C14.50873305 94.4639945 10.86366209 94.42958049 7.21850586 94.38818359 C6.25482199 99.59815651 5.2950079 104.80614149 4.47241211 110.04052734 C4.35704102 110.75402344 4.24166992 111.46751953 4.12280273 112.20263672 C3.89074223 113.64406399 3.66706522 115.08686101 3.45092773 116.53076172 C2.77787851 120.59508658 2.1982038 123.48234614 -0.78149414 126.38818359 C-3.66064453 126.87402344 -3.66064453 126.87402344 -7.12915039 126.84912109 C-8.37374023 126.84525391 -9.61833008 126.84138672 -10.90063477 126.83740234 C-12.20194336 126.81291016 -13.50325195 126.78841797 -14.84399414 126.76318359 C-16.14916992 126.76189453 -17.4543457 126.76060547 -18.79907227 126.75927734 C-28.50093095 126.66874678 -28.50093095 126.66874678 -30.78149414 124.38818359 C-31.24439739 117.94255145 -30.12208948 112.05169686 -28.80493164 105.75927734 C-28.59919525 104.74473984 -28.39345886 103.73020233 -28.18148804 102.68492126 C-27.51337053 99.39706335 -26.83481881 96.11144919 -26.15649414 92.82568359 C-25.69235538 90.54738828 -25.22914443 88.26890377 -24.7668457 85.99023438 C-23.85389586 81.49104019 -22.93826868 76.99240553 -22.02075195 72.49414062 C-20.48054668 64.9254278 -18.99306621 57.34746179 -17.53149414 49.76318359 C-17.30212158 48.58264404 -17.07274902 47.40210449 -16.83642578 46.18579102 C-15.71723217 40.39243575 -14.63230059 34.59447253 -13.59799194 28.78543091 C-13.0646607 25.79280776 -12.52352239 22.8016126 -11.98254395 19.81036377 C-11.6034644 17.69112692 -11.23765347 15.56988354 -10.87231445 13.44824219 C-10.52765137 11.53906006 -10.52765137 11.53906006 -10.17602539 9.59130859 C-9.879823 7.89989746 -9.879823 7.89989746 -9.57763672 6.17431641 C-8.00325098 0.6646905 -5.48980896 0.01251675 0 0 Z M-4.78149414 4.38818359 C-7.73061294 15.48503259 -10.06290994 26.61934133 -12.10241699 37.91674805 C-12.95436145 42.6332243 -13.82431709 47.34639255 -14.69165039 52.06005859 C-14.86626801 53.01146729 -15.04088562 53.96287598 -15.22079468 54.94311523 C-16.93542645 64.26899315 -18.71847775 73.5809838 -20.53149414 82.88818359 C-20.74875153 84.00574036 -20.74875153 84.00574036 -20.97039795 85.14587402 C-22.78912201 94.4896878 -24.64359506 103.82519598 -26.71606445 113.11669922 C-27.42209863 116.33570965 -27.78149414 119.06275364 -27.78149414 122.38818359 C-19.20149414 122.38818359 -10.62149414 122.38818359 -1.78149414 122.38818359 C-0.95649414 118.20130859 -0.13149414 114.01443359 0.71850586 109.70068359 C0.97954102 108.3888208 1.24057617 107.07695801 1.50952148 105.7253418 C1.71254883 104.6820874 1.91557617 103.63883301 2.12475586 102.56396484 C2.33422852 101.50089111 2.54370117 100.43781738 2.75952148 99.3425293 C3.18103391 96.62937936 3.30707088 94.127057 3.21850586 91.38818359 C4.05397949 91.39865723 4.88945312 91.40913086 5.75024414 91.41992188 C8.9224338 91.45450211 12.09452579 91.47932008 15.2668457 91.49804688 C17.28595459 91.5127641 19.30497638 91.53820726 21.32397461 91.56396484 C38.86467983 91.65037226 54.06671738 89.74915539 67.67553711 77.90771484 C74.53946643 71.10704754 79.29706952 63.5863693 82.21850586 54.38818359 C82.57428711 53.31697266 82.93006836 52.24576172 83.29663086 51.14208984 C85.814535 40.88909883 85.75319329 28.59439635 80.21850586 19.38818359 C74.86040198 11.19343649 66.60099764 7.47097322 57.42431641 5.0269928 C51.71340347 3.88900174 46.04058643 4.02239317 40.23803711 4.09521484 C38.94403488 4.09945969 37.65003265 4.10370453 36.31681824 4.108078 C32.9153733 4.11940499 29.51432704 4.14876326 26.11303711 4.18218994 C22.62676381 4.21315678 19.14042461 4.22663954 15.65405273 4.24169922 C8.84204242 4.27364808 2.0302934 4.32469246 -4.78149414 4.38818359 Z " fill="#EEF0F3" transform="translate(328.781494140625,199.61181640625)"/>
<path d="M0 0 C4.14559093 -0.11727273 8.29074862 -0.18760933 12.4375 -0.25 C14.18450195 -0.30027344 14.18450195 -0.30027344 15.96679688 -0.3515625 C24.40511191 -0.44664211 30.67599982 0.67384602 37.4375 5.875 C41.03662668 10.76981229 41.64365189 16.07431591 41 22 C39.42862697 30.92645519 36.05188477 37.94811523 29.625 44.375 C23.36718498 48.24888549 16.69043813 50.13665127 9.359375 50.09765625 C8.28945312 50.09443359 7.21953125 50.09121094 6.1171875 50.08789062 C5.00601563 50.07951172 3.89484375 50.07113281 2.75 50.0625 C1.06003906 50.05573242 1.06003906 50.05573242 -0.6640625 50.04882812 C-3.44276217 50.03705397 -6.22135409 50.0206084 -9 50 C-8.49983265 40.82346029 -6.78012857 31.94524167 -4.98876953 22.95410156 C-4.49568721 20.47834555 -4.01086874 18.00107613 -3.52734375 15.5234375 C-3.21661804 13.94261544 -2.90543691 12.36188282 -2.59375 10.78125 C-2.44893188 10.0437854 -2.30411377 9.3063208 -2.15490723 8.54650879 C-1.57122715 5.62467196 -0.94342092 2.83026277 0 0 Z M3 4 C1.26096018 11.57242096 -0.24114694 19.18618796 -1.71435547 26.8137207 C-2.12889518 28.95764516 -2.54678146 31.10090061 -2.96484375 33.24414062 C-3.22936791 34.60933602 -3.49369806 35.97456903 -3.7578125 37.33984375 C-3.9964502 38.57081787 -4.23508789 39.80179199 -4.48095703 41.07006836 C-5.0581453 43.83229764 -5.0581453 43.83229764 -5 46 C-1.37543986 46.14728458 2.24833521 46.23472226 5.875 46.3125 C7.39480469 46.3753418 7.39480469 46.3753418 8.9453125 46.43945312 C16.3404053 46.55796423 21.84861407 45.21479872 28 41 C34.79202436 34.41881645 37.04379116 25.89884746 37.375 16.625 C37.19637857 12.59963859 37.00368334 9.91533972 34 7 C27.03582121 4.04226032 20.34515679 3.60791003 12.875 3.8125 C11.91851562 3.82603516 10.96203125 3.83957031 9.9765625 3.85351562 C7.6504189 3.88840778 5.3255347 3.93741661 3 4 Z " fill="#E9EAED" transform="translate(145,222)"/>
<path d="M0 0 C4.45798044 -0.14667378 8.91533054 -0.23453375 13.375 -0.3125 C14.62667969 -0.35439453 15.87835938 -0.39628906 17.16796875 -0.43945312 C24.98983338 -0.54183355 31.6644976 0.00460453 38 5 C41.8440565 11.08228211 40.74669012 20.41954308 39.375 27.25 C36.45563228 35.21191197 32.71434876 42.0431226 25 46 C17.46017106 49.04140751 10.42559562 49.37824923 2.375 49.1875 C1.27542969 49.17396484 0.17585938 49.16042969 -0.95703125 49.14648438 C-3.63855332 49.111508 -6.31900073 49.06243072 -9 49 C-9.2090336 43.31514311 -8.4326526 38.19580043 -7.28515625 32.63671875 C-7.10995956 31.76352493 -6.93476288 30.89033112 -6.7542572 29.99067688 C-6.38500604 28.15712237 -6.01252001 26.32421665 -5.63696289 24.49194336 C-5.06103239 21.68033532 -4.49552801 18.86677992 -3.93164062 16.05273438 C-3.57091749 14.26810677 -3.20961002 12.48359716 -2.84765625 10.69921875 C-2.6778273 9.85654953 -2.50799835 9.01388031 -2.33302307 8.14567566 C-1.11649007 2.23298015 -1.11649007 2.23298015 0 0 Z M3 3 C0.66320004 11.05337839 -1.12609485 19.13870574 -2.6875 27.375 C-2.91244141 28.52355469 -3.13738281 29.67210937 -3.36914062 30.85546875 C-3.58119141 31.96277344 -3.79324219 33.07007813 -4.01171875 34.2109375 C-4.20209717 35.20399902 -4.39247559 36.19706055 -4.58862305 37.22021484 C-4.97966116 39.86256499 -5.07701528 42.33399292 -5 45 C-1.37543986 45.14728458 2.24833521 45.23472226 5.875 45.3125 C7.39480469 45.3753418 7.39480469 45.3753418 8.9453125 45.43945312 C17.38064247 45.57463469 24.14790473 43.64935341 30.375 37.75 C35.87211341 28.44719269 38.65467286 19.83931447 36.0625 9.125 C33.16347499 4.73253787 30.02816463 4.08053129 25 3 C21.13286259 2.67461635 17.31454625 2.71243064 13.4375 2.8125 C11.92446289 2.83280273 11.92446289 2.83280273 10.38085938 2.85351562 C7.91999379 2.88850424 5.46029665 2.93758842 3 3 Z " fill="#F1F2F4" transform="translate(346,223)"/>
</svg>
