<?xml version="1.0" encoding="UTF-8"?>
<svg version="1.1" xmlns="http://www.w3.org/2000/svg" width="540" height="556">
<path d="M0 0 C178.2 0 356.4 0 540 0 C540 183.48 540 366.96 540 556 C361.8 556 183.6 556 0 556 C0 372.52 0 189.04 0 0 Z " fill="#F7F8F9" transform="translate(0,0)"/>
<path d="M0 0 C178.2 0 356.4 0 540 0 C540 183.48 540 366.96 540 556 C361.8 556 183.6 556 0 556 C0 372.52 0 189.04 0 0 Z M372.58251953 15.02636719 C357.30252935 15.23455122 341.75018115 18.66264984 327.26098633 23.39941406 C321.45259782 24.94229666 316.14803877 24.48066654 310.5390625 22.50390625 C302.26899262 20.18199703 293.77239324 20.51623701 285.25024414 20.55395508 C282.33602397 20.56243158 279.42379154 20.53368882 276.50976562 20.50195312 C262.77037925 20.44979544 250.39813926 21.55622292 238 28 C236.42871961 28.47898709 234.84487115 28.91913413 233.25 29.3125 C228.37722083 30.6921423 224.52704472 32.93292741 220.2734375 35.63671875 C217.62209112 37.22661546 214.98610885 38.21418188 212 39 C212 38.34 212 37.68 212 37 C210.40671875 36.61908203 210.40671875 36.61908203 208.78125 36.23046875 C205.86219898 35.52247449 202.9445766 34.80934177 200.03125 34.078125 C199.35642578 33.90958008 198.68160156 33.74103516 197.98632812 33.56738281 C195.32431099 32.80699345 192.80778444 31.76926861 190.25 30.71875 C186.25690087 29.44317667 182.10912252 28.80153823 177.984375 28.08959961 C174.69121179 27.51953555 171.5077024 26.87104805 168.26806641 26.02246094 C164.10452177 24.97226265 159.97662868 24.35424766 155.7109375 23.89453125 C154.93728851 23.81064651 154.16363953 23.72676178 153.36654663 23.64033508 C144.4589484 22.74825523 135.57025314 22.64651398 126.625 22.6875 C125.77315125 22.68965515 124.92130249 22.6918103 124.04364014 22.69403076 C105.14340326 22.77065035 87.46125738 24.13476613 70 32 C69.67 32.66 69.34 33.32 69 34 C67 34.66666667 65 35.33333333 63 36 C62.67 36.66 62.34 37.32 62 38 C61.08992188 38.44988281 60.17984375 38.89976563 59.2421875 39.36328125 C54.03499712 41.99197133 50.21004066 46.0187659 46 50 C45.29359375 50.63035156 44.5871875 51.26070312 43.859375 51.91015625 C37.89301896 57.44195487 33.97634619 63.94986157 30 71 C29.49082031 71.88171875 28.98164063 72.7634375 28.45703125 73.671875 C25.23267436 79.6099868 23.85141543 85.31575345 23 92 C22.34 92 21.68 92 21 92 C20.80664062 93.14597656 20.61328125 94.29195313 20.4140625 95.47265625 C20.15124341 97.00263883 19.88821121 98.53258482 19.625 100.0625 C19.49867187 100.81466797 19.37234375 101.56683594 19.2421875 102.34179688 C19.11328125 103.08623047 18.984375 103.83066406 18.8515625 104.59765625 C18.67874756 105.61098022 18.67874756 105.61098022 18.50244141 106.64477539 C18 109 18 109 16.96118164 112.0871582 C15.53714588 116.99904907 15.73299221 121.93223998 15.76953125 127.0078125 C15.76998947 128.05145966 15.77044769 129.09510681 15.7709198 130.17037964 C15.77392979 132.36734155 15.78177834 134.56430156 15.79418945 136.76123047 C15.81247738 140.12084522 15.81469868 143.48018433 15.81445312 146.83984375 C15.81936787 148.97916905 15.825196 151.11849248 15.83203125 153.2578125 C15.83314407 154.2599881 15.8342569 155.2621637 15.83540344 156.29470825 C15.84178329 157.23273285 15.84816315 158.17075745 15.85473633 159.13720703 C15.85854813 159.95770538 15.86235992 160.77820374 15.86628723 161.62356567 C16.00894845 164.15903786 16.44657984 166.52434226 17 169 C17.66 169 18.32 169 19 169 C18.97292969 170.155 18.94585938 171.31 18.91796875 172.5 C18.92077549 176.75875701 19.50747723 180.82542419 20.3125 185 C20.44785156 185.73275146 20.58320313 186.46550293 20.72265625 187.22045898 C21.14184378 189.48159729 21.57054737 191.74079189 22 194 C22.25457898 195.36576019 22.50850792 196.73164174 22.76171875 198.09765625 C23.25093559 200.73155325 23.74621038 203.36420127 24.24609375 205.99609375 C24.77323959 208.77752691 25.28404309 211.56141742 25.78515625 214.34765625 C25.91535156 215.0636499 26.04554687 215.77964355 26.1796875 216.51733398 C26.54038993 218.50326769 26.89727306 220.48989401 27.25390625 222.4765625 C27.95276006 225.77690876 28.88501473 228.82038421 30 232 C32.63442451 240.54527616 34.78488911 249.11960673 36.60498047 257.87011719 C37.43375124 261.78177608 38.47425128 265.29285953 40 269 C40.51341369 271.075159 40.99061851 273.15950355 41.4375 275.25 C42.64204037 280.6429168 44.13312853 285.80424929 46 291 C46.33 291.99 46.66 292.98 47 294 C47.66 294 48.32 294 49 294 C49.10957031 294.6290625 49.21914063 295.258125 49.33203125 295.90625 C50.23661465 300.78952951 51.35310037 305.30006622 53.203125 309.90625 C54.70744657 313.85878118 55.82670807 317.93924495 57 322 C57.66 322 58.32 322 59 322 C59.12246094 322.71542969 59.24492188 323.43085938 59.37109375 324.16796875 C61.63201481 334.34913499 67.34666582 343.90572015 72.05859375 353.14941406 C73.38629026 355.75935689 74.6934278 358.3794319 76 361 C76.391875 361.78375 76.78375 362.5675 77.1875 363.375 C77.5896875 364.179375 77.5896875 364.179375 78 365 C78.66 365 79.32 365 80 365 C80.38478516 366.07507813 80.38478516 366.07507813 80.77734375 367.171875 C86.18004727 379.66886333 97.50732993 390.43912163 109.375 396.8125 C116.6656735 399.29990625 126.54957865 399.39490818 133.87890625 397.09765625 C136.25499202 395.96322575 136.25499202 395.96322575 139 394 C139 393.34 139 392.68 139 392 C139.71671875 391.77183594 140.4334375 391.54367187 141.171875 391.30859375 C149.46303145 387.47221611 156.10879555 377.81967272 161.6875 370.81640625 C164.18867317 367.77021393 166.8138294 364.88201787 169.5 362 C173.86140461 357.31883987 177.92225411 352.45992109 181.93359375 347.47265625 C184.3041286 344.63608052 186.83968177 342.06178792 189.5 339.5 C191.51956197 337.48043803 193.22574041 335.23425282 195 333 C195.66 332.67 196.32 332.34 197 332 C197 332.66 197 333.32 197 334 C198.14339844 334.34933594 199.28679687 334.69867188 200.46484375 335.05859375 C201.95577988 335.51806463 203.44666255 335.97770901 204.9375 336.4375 C206.06961914 336.78264648 206.06961914 336.78264648 207.22460938 337.13476562 C212.88671875 338.88671875 212.88671875 338.88671875 214 340 C216.01964199 340.07244053 218.04167124 340.08377188 220.0625 340.0625 C221.71958984 340.04896484 221.71958984 340.04896484 223.41015625 340.03515625 C224.26480469 340.02355469 225.11945313 340.01195312 226 340 C223.92065013 343.62586633 221.62472496 346.87392022 219 350.125 C218.319375 350.97320312 217.63875 351.82140625 216.9375 352.6953125 C215.9784375 353.83613281 215.9784375 353.83613281 215 355 C214.62842773 355.49878662 214.25685547 355.99757324 213.87402344 356.51147461 C210.97956581 358.81052466 207.61280075 359.32541913 204.078125 360.12109375 C203.29991394 360.30712662 202.52170288 360.49315948 201.71990967 360.68482971 C198.39835281 361.47855752 195.07115144 362.24733272 191.74414062 363.01782227 C189.31159821 363.58498419 186.8824268 364.16523428 184.453125 364.74609375 C183.71120911 364.91290146 182.96929321 365.07970917 182.20489502 365.25157166 C174.29933827 367.14526814 168.8537058 370.43322157 164 377 C162.20779195 380.58441609 162.91919907 384.2380962 164 388 C166.360587 391.7050683 168.93611185 395.33492921 173.23046875 396.71875 C173.81441406 396.8115625 174.39835938 396.904375 175 397 C175 397.66 175 398.32 175 399 C177.8302908 399.98878749 180.66372753 400.96614336 183.5 401.9375 C184.29148438 402.21529297 185.08296875 402.49308594 185.8984375 402.77929688 C194.24992523 405.6201718 202.03068196 406.1942165 210.8125 406.1875 C212.12492676 406.1884668 212.12492676 406.1884668 213.46386719 406.18945312 C219.80328784 406.13774113 225.8390487 405.58262969 232 404 C232 403.34 232 402.68 232 402 C233.60875 401.938125 233.60875 401.938125 235.25 401.875 C245.8398848 400.5091668 254.04764908 393.56920496 262 387 C261.98428955 388.6396875 261.98428955 388.6396875 261.96826172 390.3125 C261.75602321 414.76492804 262.0594027 439.10520487 263.60995483 463.51377869 C263.88951967 467.94268834 264.09288565 472.3644653 264.2265625 476.80078125 C264.82336374 491.37586118 269.42609549 503.04596724 276 516 C276.66 516 277.32 516 278 516 C278.185625 516.66 278.37125 517.32 278.5625 518 C283.20798326 527.69492158 292.93376306 535.29893896 302.78515625 539.22265625 C303.51605469 539.47917969 304.24695313 539.73570312 305 540 C305.63808594 540.22558594 306.27617187 540.45117188 306.93359375 540.68359375 C328.18031378 546.68900195 352.14907182 539.74433963 371 530 C374.56140503 527.88541577 377.80019503 525.621191 381 523 C381.886875 522.401875 382.77375 521.80375 383.6875 521.1875 C394.87450505 510.60519793 400.34276665 495.77497123 403 481 C403.35098171 479.68087412 403.7205005 478.36621063 404.125 477.0625 C405.08680867 473.9589227 405.08680867 473.9589227 405.5 470.5 C406 467 406 467 406.96655273 463.81176758 C408.08450181 459.68832345 408.61402372 455.74976758 409.03515625 451.51171875 C409.11873886 450.72730911 409.20232147 449.94289948 409.28843689 449.13471985 C409.55230056 446.65288605 409.80806852 444.1703171 410.0625 441.6875 C410.32132827 439.18693533 410.58197426 436.68660839 410.84727478 434.1867218 C411.01153408 432.63683435 411.17195446 431.08653422 411.32814026 429.53581238 C411.88783955 424.2243209 411.88783955 424.2243209 413 422 C413.29612893 419.53523322 413.54379603 417.08562425 413.75390625 414.61328125 C413.81907944 413.87804733 413.88425262 413.14281342 413.95140076 412.38529968 C414.0886324 410.82613062 414.22383583 409.26678192 414.35717773 407.70727539 C414.56024058 405.33885277 414.77081528 402.97118843 414.98242188 400.60351562 C415.11503673 399.08597705 415.24721193 397.56839998 415.37890625 396.05078125 C415.44139053 395.34947586 415.50387482 394.64817047 415.56825256 393.9256134 C415.93361046 389.5946317 416.05622525 385.34066037 416 381 C417.04414063 381.32226562 418.08828125 381.64453125 419.1640625 381.9765625 C444.7690807 388.31888398 476.32463411 382.63536026 498.71484375 369.39453125 C500.88662403 368.00978929 502.9448914 366.55148515 505 365 C505.75539063 364.44570313 506.51078125 363.89140625 507.2890625 363.3203125 C518.4292496 355.3149329 518.4292496 355.3149329 524.34765625 343.64453125 C524.61585078 338.98894923 524.56369792 336.74651887 521.6875 332.9375 C511.24318595 325.40787824 491.53079788 330.76287397 479.77148438 332.61108398 C477.98352411 332.83679942 477.98352411 332.83679942 477 334 C466.40549543 335.05653588 455.6132512 334.93891805 446 330 C447.48619136 325.89201464 449.49615539 322.38567926 451.8125 318.6875 C452.34653442 317.82983032 452.34653442 317.82983032 452.89135742 316.95483398 C454.42696354 314.49153108 455.97643507 312.03715083 457.53125 309.5859375 C459.92248401 305.80953745 462.03521959 302.02312179 464 298 C464.66 297.01 465.32 296.02 466 295 C466 294.01 466 293.02 466 292 C466.66 292 467.32 292 468 292 C468.37511719 291.24976563 468.75023437 290.49953125 469.13671875 289.7265625 C469.64847656 288.70304687 470.16023438 287.67953125 470.6875 286.625 C471.23535156 285.52671875 471.78320312 284.4284375 472.34765625 283.296875 C473.34695516 281.30300199 474.35285198 279.31239101 475.37109375 277.328125 C477.82941415 272.51870067 479.96753073 267.69164379 481.91796875 262.65625 C483.09118666 259.77614827 484.40864448 256.99313851 485.75 254.1875 C489.68582001 245.76644349 492.88595138 237.06819658 496.12207031 228.359375 C496.87316176 226.34086896 497.6347406 224.3262706 498.3984375 222.3125 C498.76195312 221.343125 499.12546875 220.37375 499.5 219.375 C499.7990625 218.57835937 500.098125 217.78171875 500.40625 216.9609375 C501.14489786 214.8629319 501.14489786 214.8629319 501 212 C501.66 212 502.32 212 503 212 C505.62297943 204.18425703 505.62297943 204.18425703 506 196 C506.66 196 507.32 196 508 196 C509.10718466 191.77161773 510.21017351 187.54215115 511.3125 183.3125 C511.7755957 181.54422852 511.7755957 181.54422852 512.24804688 179.74023438 C517.99243524 157.66968959 521.27793253 136.56392938 521.3125 113.75 C521.31599457 113.0054657 521.31948914 112.2609314 521.3230896 111.49383545 C521.38024636 89.58253506 517.11430089 74.516443 501.70703125 58.63671875 C494.15310098 51.27899446 486.00071925 44.50748236 477 39 C476.45617676 38.65727051 475.91235352 38.31454102 475.35205078 37.96142578 C460.21384699 28.25977154 460.21384699 28.25977154 443 24 C443 23.34 443 22.68 443 22 C433.63433194 19.38882467 433.63433194 19.38882467 424 19 C424 18.34 424 17.68 424 17 C406.8077788 14.9160944 389.876779 14.83774065 372.58251953 15.02636719 Z " fill="#090909" transform="translate(0,0)"/>
<path d="M0 0 C0 0.66 0 1.32 0 2 C0.71800781 2.24621094 1.43601562 2.49242188 2.17578125 2.74609375 C13.89074032 7.94734114 24.9305211 20.17226308 33 30 C33.62390625 30.73605469 34.2478125 31.47210938 34.890625 32.23046875 C38.8738656 37.03701696 42.46818661 42.02603564 45.875 47.25 C46.44710205 48.1174585 46.44710205 48.1174585 47.03076172 49.00244141 C49.29892723 52.55301241 50.83537895 55.95447425 52 60 C52.66 60 53.32 60 54 60 C55.11066123 62.30956678 56.21353347 64.62237333 57.3125 66.9375 C57.62123047 67.57751953 57.92996094 68.21753906 58.24804688 68.87695312 C60.61792956 73.89112597 62.21656202 78.64968607 64 84 C52.12 84.33 40.24 84.66 28 85 C28 85.66 28 86.32 28 87 C27.24976563 87.18433594 26.49953125 87.36867188 25.7265625 87.55859375 C16.32366488 90.22314282 8.96930257 94.98806434 3.5625 103.3125 C-4.78465514 120.63976992 -1.76927878 142.77561471 4.375 160.375 C5.23077779 162.59085322 6.10496674 164.79970989 7 167 C7.391875 168.00289062 7.78375 169.00578125 8.1875 170.0390625 C10.91627014 176.8430354 14.10572844 183.35462372 17.44921875 189.87109375 C21 197.03526448 21 197.03526448 21 201 C21.66 201 22.32 201 23 201 C23.47308594 201.969375 23.94617188 202.93875 24.43359375 203.9375 C28.30339849 211.80395583 32.34793329 219.51783122 36.70825195 227.12353516 C39.18400797 231.46825995 41.45144049 235.87262674 43.625 240.375 C47.00611783 247.24655586 51.08880233 253.24878715 55.7734375 259.28515625 C56.32257813 259.99542969 56.87171875 260.70570313 57.4375 261.4375 C57.93121094 262.05496094 58.42492187 262.67242187 58.93359375 263.30859375 C60 265 60 265 60 268 C59.12988281 268.23783203 59.12988281 268.23783203 58.2421875 268.48046875 C50.58552618 270.76735934 45.84190948 273.86923136 41.859375 280.9609375 C39.29956286 287.03467357 38.65565834 292.75845906 38.4375 299.25 C38.12058024 307.63825929 38.12058024 307.63825929 37 311 C36.81038179 312.49601263 36.65973112 313.99717268 36.53515625 315.5 C36.45716797 316.38816406 36.37917969 317.27632813 36.29882812 318.19140625 C36.1439145 320.03244585 35.99022466 321.87358892 35.83789062 323.71484375 C35.44389373 328.18014187 34.93585375 332.53077697 34.046875 336.92578125 C32.56752522 344.67266805 32.08469267 352.53083748 31.42633057 360.38043213 C25.7718938 426.83921086 25.7718938 426.83921086 12 444 C11.07767578 445.24523437 11.07767578 445.24523437 10.13671875 446.515625 C-0.20348997 458.53824428 -19.19983506 463.90546084 -34.52392578 465.21582031 C-37.03968602 465.35013592 -39.5433501 465.41629083 -42.0625 465.4375 C-42.82304687 465.4475708 -43.58359375 465.4576416 -44.3671875 465.46801758 C-54.89248925 465.30557586 -62.71730801 461.3334871 -70.03125 453.94921875 C-74.30790761 449.05573553 -77.25014046 443.89605174 -79.875 438 C-80.16125244 437.3601416 -80.44750488 436.7202832 -80.74243164 436.06103516 C-85.11848084 425.63059628 -85.48854785 414.70767538 -86.0625 403.5625 C-86.17839626 401.37781941 -86.29641319 399.19331707 -86.41929626 397.00901794 C-86.52929109 395.04607464 -86.63215618 393.08273563 -86.73461914 391.11938477 C-86.87967704 387.96985044 -86.87967704 387.96985044 -88 385 C-88.10518007 382.08088686 -88.15411223 379.18466724 -88.15771484 376.26513672 C-88.16279556 375.37207321 -88.16787628 374.4790097 -88.17311096 373.55888367 C-88.18381688 371.61749123 -88.19243619 369.67608643 -88.19923019 367.73467636 C-88.21102426 364.65704677 -88.23048053 361.57955719 -88.25234985 358.50198364 C-88.31393449 349.75071915 -88.36792597 340.9994677 -88.40136719 332.24804688 C-88.4223722 326.89523385 -88.45772669 321.54267409 -88.50212479 316.19000626 C-88.51624352 314.15439979 -88.52499786 312.11874849 -88.52817917 310.08309555 C-88.53311587 307.22553992 -88.55634627 304.36864972 -88.58349609 301.51123047 C-88.58048996 300.6786824 -88.57748383 299.84613434 -88.5743866 298.98835754 C-88.68869336 290.84217145 -90.75927201 283.37385836 -96 277 C-103.57580343 270.25124935 -110.9559917 267.58606889 -121 267 C-119.98191414 261.82572836 -118.71993214 256.97033444 -116.76953125 252.0703125 C-115.95647703 249.88290774 -115.35602998 247.69059304 -114.75 245.4375 C-112.48776519 237.69323585 -108.84887493 230.17496524 -104.9609375 223.11254883 C-102.11999746 217.85509358 -100.89151122 212.80232776 -99.875 206.9375 C-99.56264157 205.21694718 -99.24758527 203.49688171 -98.9296875 201.77734375 C-98.79804199 201.02702881 -98.66639648 200.27671387 -98.53076172 199.50366211 C-98 197 -98 197 -96.95629883 193.67382812 C-95.94082778 189.77267715 -95.75666932 186.46668522 -95.76953125 182.44140625 C-95.76998947 181.73459213 -95.77044769 181.02777802 -95.7709198 180.29954529 C-95.77392466 178.80783402 -95.78175759 177.31612539 -95.79418945 175.82446289 C-95.81219926 173.59965203 -95.8147002 171.37526615 -95.81445312 169.15039062 C-95.45385704 151.27399199 -95.45385704 151.27399199 -99 134 C-99.26837641 132.64061852 -99.49847786 131.27266726 -99.67578125 129.8984375 C-101.4903593 116.98307865 -103.89524762 105.1380107 -114 96 C-115.63834629 94.95424705 -117.29367772 93.93072125 -119 93 C-119 92.34 -119 91.68 -119 91 C-119.92683594 90.79503906 -120.85367188 90.59007812 -121.80859375 90.37890625 C-123.00613281 90.10949219 -124.20367187 89.84007812 -125.4375 89.5625 C-126.63246094 89.29566406 -127.82742187 89.02882813 -129.05859375 88.75390625 C-132 88 -132 88 -133 87 C-149.84635753 85.77798443 -165.86011149 88.34093987 -181.3203125 95.30078125 C-183 96 -183 96 -185 96 C-185 96.66 -185 97.32 -185 98 C-187.97 98.495 -187.97 98.495 -191 99 C-191.47071893 88.12116242 -190.66925159 76.43629045 -186.78125 66.19140625 C-185.84245304 63.55808076 -185.2082265 60.90727195 -184.5625 58.1875 C-180.61306498 42.03823953 -180.61306498 42.03823953 -176 36 C-175.32811503 33.66816393 -174.66084583 31.33498858 -174 29 C-173.01 28.505 -173.01 28.505 -172 28 C-171.608125 27.030625 -171.21625 26.06125 -170.8125 25.0625 C-164.69997769 10.1613262 -149.70930892 -4.96161003 -136 -13 C-134.68 -13 -133.36 -13 -132 -13 C-132 -13.66 -132 -14.32 -132 -15 C-90.63530304 -36.35769047 -37.77740903 -21.82694744 0 0 Z " fill="#346791" transform="translate(365,61)"/>
<path d="M0 0 C0.33 0 0.66 0 1 0 C1.06058594 0.63808594 1.12117187 1.27617187 1.18359375 1.93359375 C1.26738281 2.75988281 1.35117187 3.58617187 1.4375 4.4375 C1.51871094 5.26121094 1.59992187 6.08492187 1.68359375 6.93359375 C1.78930815 8.98662025 1.78930815 8.98662025 3 10 C3.42128412 12.75651052 3.78792295 15.50201575 4.12109375 18.26953125 C4.33642981 19.9798377 4.55192979 21.69012352 4.76757812 23.40039062 C5.10364764 26.1058852 5.43739411 28.81163275 5.76782227 31.51782227 C6.08759549 34.12339073 6.4163408 36.72770974 6.74609375 39.33203125 C6.84200302 40.13945267 6.93791229 40.94687408 7.03672791 41.77876282 C7.52097026 45.56988962 8.06898935 48.68670512 10 52 C10.53297138 54.32163448 11.00559385 56.65745817 11.4375 59 C12.48945786 64.67456127 13.78320857 70.23863232 15.20385742 75.83251953 C15.9858027 78.94351554 16.73186586 82.06072801 17.46484375 85.18359375 C19.78160541 95.03041214 22.1166483 104.7666622 25.25390625 114.38671875 C26.35783551 118.25336104 26.72846848 121.99491014 27 126 C27.66 126 28.32 126 29 126 C29.50404808 128.10320063 30.00310508 130.20759791 30.5 132.3125 C30.7784375 133.48425781 31.056875 134.65601563 31.34375 135.86328125 C32 139 32 139 32 142 C32.66 142 33.32 142 34 142 C34.23074219 142.77601563 34.46148437 143.55203125 34.69921875 144.3515625 C38.24986158 156.11218974 42.32458658 167.64034535 47 179 C47.58587891 180.46759766 47.58587891 180.46759766 48.18359375 181.96484375 C50.46289883 187.59565039 52.89497446 192.88475851 56.08203125 198.0625 C57 200 57 200 57 204 C57.66 204 58.32 204 59 204 C59.391875 204.804375 59.78375 205.60875 60.1875 206.4375 C65.77588947 217.42157586 72.24245382 227.41815175 80 237 C80.83337891 238.05574219 80.83337891 238.05574219 81.68359375 239.1328125 C85.85955661 244.20569117 90.3784034 247.63904545 96 251 C96.62132813 251.391875 97.24265625 251.78375 97.8828125 252.1875 C101.84234552 254.60228247 105.54172101 255.90817657 110 257 C110 257.66 110 258.32 110 259 C119.99439527 259.43559108 128.47135727 259.13802289 138.046875 255.97265625 C140.69689002 255.09983384 143.25607512 254.48272752 146 254 C146 253.34 146 252.68 146 252 C152.80412371 246.89690722 152.80412371 246.89690722 156 247 C157.71358643 248.61838719 159.3707726 250.29671681 161 252 C182.13848322 267.22879974 207.88259434 267.75426751 232.8046875 264.6328125 C236.13776009 264.18440191 236.13776009 264.18440191 239 262 C240.88154883 261.55888435 242.78062638 261.1890733 244.6875 260.875 C245.68136719 260.70742188 246.67523438 260.53984375 247.69921875 260.3671875 C248.45847656 260.24601562 249.21773437 260.12484375 250 260 C250.01981934 260.89380371 250.03963867 261.78760742 250.06005859 262.70849609 C248.95298794 304.99137778 248.95298794 304.99137778 259 345 C259.2475 346.093125 259.495 347.18625 259.75 348.3125 C260.75100547 352.53896755 262.27569712 356.53302964 263.875 360.5625 C264.11959961 361.18745361 264.36419922 361.81240723 264.61621094 362.45629883 C265.93937325 365.73366348 267.40413234 368.79010309 269.1953125 371.83984375 C271 375 271 375 271 377 C271.99 377.33 272.98 377.66 274 378 C275.2890625 379.6015625 275.2890625 379.6015625 276.625 381.625 C282.79247632 390.08065549 290.20797168 393.89871244 300 397 C301.56626601 397.57314466 303.12927489 398.15534166 304.6875 398.75 C305.780625 399.1625 306.87375 399.575 308 400 C308 400.33 308 400.66 308 401 C206.36 401 104.72 401 0 401 C0 268.67 0 136.34 0 0 Z " fill="#FDFDFD" transform="translate(0,155)"/>
<path d="M0 0 C0.86447754 0.11384033 1.72895508 0.22768066 2.61962891 0.3449707 C9.81391335 1.38451499 16.32107371 3.53173309 23.0625 6.1875 C27.29607495 7.80923234 31.62214392 8.75131883 36.0625 9.625 C34.64606548 12.82799264 32.92122218 14.98584202 30.5 17.5 C25.19931901 23.37476196 21.07437039 29.84049269 17.0625 36.625 C16.66853027 37.29096191 16.27456055 37.95692383 15.86865234 38.64306641 C9.88215369 48.93380647 5.93744556 59.08187685 3.0625 70.625 C2.4025 70.625 1.7425 70.625 1.0625 70.625 C1.02511719 71.17285156 0.98773438 71.72070312 0.94921875 72.28515625 C0.16736702 81.71336831 -1.75787882 90.95849921 -4.0625 100.125 C-6.44320857 110.80919623 -6.07583413 122.34645652 -5.98209953 133.22353363 C-5.96421621 135.37227563 -5.95425876 137.52093855 -5.94618225 139.66973877 C-5.92215776 145.76753187 -5.88656301 151.8652171 -5.84155273 157.96289062 C-5.54625334 199.45126001 -5.54625334 199.45126001 -8.9375 209.625 C-10.03245366 225.28743799 -8.76890739 240.93258684 -2.9375 255.625 C-2.2775 255.955 -1.6175 256.285 -0.9375 256.625 C-0.40125 257.73875 0.135 258.8525 0.6875 260 C4.10705743 267.09430571 8.82593061 273.72303051 14.625 279.0625 C17.0625 281.625 17.0625 281.625 17.03515625 283.45703125 C15.61792665 286.6159165 13.43509604 288.49309642 10.9375 290.875 C6.39924267 295.2809127 2.14846178 299.79912563 -1.9375 304.625 C-3.40454193 306.33964842 -4.87370649 308.05246722 -6.34277344 309.76538086 C-7.40505105 311.00410844 -8.46690084 312.24320304 -9.52832031 313.48266602 C-16.03995942 321.08605857 -16.03995942 321.08605857 -19.234375 324.69140625 C-20.53174708 326.16434015 -21.80952277 327.65455973 -23.078125 329.15234375 C-33.11477866 340.77642733 -33.11477866 340.77642733 -40.6015625 342.09375 C-48.49536596 342.5286703 -52.90148922 340.07443221 -58.73828125 335.0859375 C-73.09384695 321.65345696 -82.77932863 301.0780068 -89.61328125 282.8671875 C-90.81928125 279.66757858 -90.81928125 279.66757858 -92.4765625 277.10546875 C-94.20483885 274.1710958 -95.06399343 271.33283876 -96 268.0625 C-97.25455186 263.62915913 -97.25455186 263.62915913 -99.05859375 259.41015625 C-99.9375 257.625 -99.9375 257.625 -99.9375 254.625 C-100.5975 254.625 -101.2575 254.625 -101.9375 254.625 C-102.19144531 253.57441406 -102.44539063 252.52382813 -102.70703125 251.44140625 C-104.80114023 242.63353529 -104.80114023 242.63353529 -107.5 234 C-109.86317522 227.30000873 -111.9375 219.74656297 -111.9375 212.625 C-112.5975 212.625 -113.2575 212.625 -113.9375 212.625 C-114.10765625 211.8 -114.2778125 210.975 -114.453125 210.125 C-115.81101169 203.6533698 -117.25216507 197.2220628 -118.875 190.8125 C-119.04354492 190.14210693 -119.21208984 189.47171387 -119.38574219 188.78100586 C-120.40665522 184.72022736 -120.40665522 184.72022736 -121.44189453 180.66308594 C-124.09099662 170.31009458 -125.96031607 159.9232741 -127.54296875 149.35375977 C-128.57988263 142.49128508 -129.87652955 135.9327314 -132 129.3125 C-134.41754801 119.80347782 -134.12389082 109.83630503 -134.12280273 100.08056641 C-134.12501024 97.86471919 -134.14329861 95.64935483 -134.16210938 93.43359375 C-134.16504083 92.00260584 -134.16702728 90.57161561 -134.16796875 89.140625 C-134.17207764 87.86477539 -134.17618652 86.58892578 -134.18041992 85.27441406 C-133.92636474 81.45771374 -133.07282036 78.26736388 -131.9375 74.625 C-131.61948918 73.01810277 -131.33165897 71.40468413 -131.0859375 69.78515625 C-130.95703125 68.95048828 -130.828125 68.11582031 -130.6953125 67.25585938 C-130.56898438 66.40830078 -130.44265625 65.56074219 -130.3125 64.6875 C-130.1784375 63.81287109 -130.044375 62.93824219 -129.90625 62.03710938 C-129.57931424 59.90035066 -129.25784321 57.76275701 -128.9375 55.625 C-128.2775 55.625 -127.6175 55.625 -126.9375 55.625 C-126.81632812 54.96113281 -126.69515625 54.29726562 -126.5703125 53.61328125 C-125.71202292 49.09075541 -124.89778689 44.82561476 -122.9375 40.625 C-122.2775 40.625 -121.6175 40.625 -120.9375 40.625 C-120.855 39.92375 -120.7725 39.2225 -120.6875 38.5 C-119.76559289 34.96602273 -118.0712671 32.51379238 -115.9375 29.625 C-115.48761719 28.9546875 -115.03773437 28.284375 -114.57421875 27.59375 C-111.05491483 22.63354001 -107.09639026 18.87683402 -102.3125 15.1875 C-101.76215088 14.76243164 -101.21180176 14.33736328 -100.64477539 13.89941406 C-97.52270081 11.57325459 -94.54801095 10.02619107 -90.9375 8.625 C-90.6075 7.965 -90.2775 7.305 -89.9375 6.625 C-63.42204584 -6.98772082 -28.53957255 -3.8663458 0 0 Z " fill="#346891" transform="translate(164.9375,40.375)"/>
<path d="M0 0 C0.33 0 0.66 0 1 0 C1 68.31 1 136.62 1 207 C-66.98 207 -134.96 207 -205 207 C-205 206.67 -205 206.34 -205 206 C-204.46375 205.90203125 -203.9275 205.8040625 -203.375 205.703125 C-196.99763914 204.48639168 -190.72573059 202.96482075 -184.44726562 201.32128906 C-181.5438968 200.57353731 -179.01238026 200 -176 200 C-176 199.34 -176 198.68 -176 198 C-172.37 197.01 -168.74 196.02 -165 195 C-165 194.34 -165 193.68 -165 193 C-163.7625 192.443125 -163.7625 192.443125 -162.5 191.875 C-158.31528099 189.63318625 -154.70326983 186.95444689 -151 184 C-150.02804687 183.23042969 -149.05609375 182.46085938 -148.0546875 181.66796875 C-133.8146402 169.70740171 -126.81198747 151.39718545 -122 134 C-121.34 134 -120.68 134 -120 134 C-119.67 130.37 -119.34 126.74 -119 123 C-118.34 123 -117.68 123 -117 123 C-116.94465088 122.09757568 -116.88930176 121.19515137 -116.83227539 120.26538086 C-116.62390689 116.89007138 -116.41300811 113.51493915 -116.20043945 110.13989258 C-116.10926866 108.68422579 -116.01908186 107.22849701 -115.92993164 105.77270508 C-115.80098328 103.66991034 -115.6683975 101.56737033 -115.53515625 99.46484375 C-115.456604 98.202771 -115.37805176 96.94069824 -115.29711914 95.64038086 C-115.10340524 93.26694781 -114.84068229 90.89784508 -114.5 88.54101562 C-113.95169904 84.65793109 -113.67817853 80.79095338 -113.46484375 76.87890625 C-113.42186661 76.13414536 -113.37888947 75.38938446 -113.33460999 74.62205505 C-113.19945973 72.26901883 -113.06841165 69.91577545 -112.9375 67.5625 C-112.84597539 65.95636467 -112.75418112 64.35024468 -112.66210938 62.74414062 C-112.43828931 58.82959749 -112.21814511 54.91486331 -112 51 C-111.11030518 50.970271 -111.11030518 50.970271 -110.20263672 50.93994141 C-99.92449067 50.57989797 -89.77204535 50.18992939 -79.60546875 48.54296875 C-74.95833858 47.84313008 -70.29927875 47.35464567 -65.625 46.875 C-64.34653198 46.74363647 -64.34653198 46.74363647 -63.04223633 46.60961914 C-61.02836928 46.40432503 -59.01421507 46.20185098 -57 46 C-57 45.34 -57 44.68 -57 44 C-56.28199219 43.83886719 -55.56398438 43.67773438 -54.82421875 43.51171875 C-37.26996806 38.89908252 -15.22811224 26.41184215 -5 11 C-3.13385335 7.40611655 -1.50000003 3.76036874 0 0 Z " fill="#FDFDFD" transform="translate(539,349)"/>
<path d="M0 0 C1.13074951 0.00008057 2.26149902 0.00016113 3.42651367 0.00024414 C14.85558904 0.07693851 26.36604477 0.74583688 37.5625 3.1875 C37.5625 3.8475 37.5625 4.5075 37.5625 5.1875 C38.119375 5.23648438 38.67625 5.28546875 39.25 5.3359375 C44.52817265 5.85305577 49.44612365 6.79212463 54.5625 8.1875 C54.5625 8.8475 54.5625 9.5075 54.5625 10.1875 C55.44566895 10.30085693 56.32883789 10.41421387 57.23876953 10.53100586 C60.5239435 11.17988443 62.80829232 12.11579587 65.7421875 13.69140625 C66.6703125 14.18447266 67.5984375 14.67753906 68.5546875 15.18554688 C69.50601563 15.70181641 70.45734375 16.21808594 71.4375 16.75 C72.41203125 17.27013672 73.3865625 17.79027344 74.390625 18.32617188 C76.78542498 19.60574637 79.17574282 20.8930038 81.5625 22.1875 C81.5625 22.8475 81.5625 23.5075 81.5625 24.1875 C82.57763672 24.49880859 82.57763672 24.49880859 83.61328125 24.81640625 C87.57250454 26.65705178 90.49476127 29.24800792 93.75 32.125 C94.40693848 32.70185547 95.06387695 33.27871094 95.74072266 33.87304688 C111.78491883 48.16418617 111.78491883 48.16418617 112.5625 55.1875 C113.2225 55.1875 113.8825 55.1875 114.5625 55.1875 C117.09144313 64.37800276 118.01333615 72.86104304 117.875 82.375 C117.865896 83.63280273 117.85679199 84.89060547 117.84741211 86.18652344 C117.4882366 113.2617634 117.4882366 113.2617634 114.5625 116.1875 C114.24176984 117.80973023 113.97447697 119.44259489 113.73046875 121.078125 C113.57368652 122.09189209 113.4169043 123.10565918 113.25537109 124.15014648 C113.08859863 125.23497314 112.92182617 126.3197998 112.75 127.4375 C111.48486304 135.38169566 110.04016426 142.91796244 107.4453125 150.5390625 C106.16897689 154.36806932 105.36631779 158.23539587 104.5625 162.1875 C103.9025 162.1875 103.2425 162.1875 102.5625 162.1875 C102.376875 163.92 102.376875 163.92 102.1875 165.6875 C101.65971115 169.97100375 100.67851963 174.02102672 99.5625 178.1875 C98.9025 178.1875 98.2425 178.1875 97.5625 178.1875 C97.48773438 178.73535156 97.41296875 179.28320312 97.3359375 179.84765625 C95.47797075 191.05010284 90.49020409 201.28307501 85.7109375 211.49609375 C84.45821352 214.43189926 83.50679593 217.38931275 82.5625 220.4375 C81.20220923 224.69793069 79.7097028 227.61265821 76.93359375 231.0546875 C73.59216321 236.25246834 71.72125192 242.42340982 69.5625 248.1875 C68.9025 248.1875 68.2425 248.1875 67.5625 248.1875 C67.253125 249.30125 66.94375 250.415 66.625 251.5625 C65.5625 255.1875 65.5625 255.1875 64.5625 257.1875 C63.9025 257.1875 63.2425 257.1875 62.5625 257.1875 C62.500625 257.8475 62.43875 258.5075 62.375 259.1875 C61.50052398 262.41633452 60.06009554 264.80216228 58.23828125 267.5859375 C55.99323033 271.07126131 53.87534383 274.62829979 51.75 278.1875 C51.34072266 278.87118652 50.93144531 279.55487305 50.50976562 280.25927734 C49.52662491 281.90158812 48.54445955 283.54448271 47.5625 285.1875 C46.9025 284.8575 46.2425 284.5275 45.5625 284.1875 C46.02072468 280.71808454 46.45381683 277.51354951 47.5625 274.1875 C48.2225 273.8575 48.8825 273.5275 49.5625 273.1875 C50.51235605 270.64863242 51.34672612 268.15366704 52.125 265.5625 C52.34607422 264.86253906 52.56714844 264.16257812 52.79492188 263.44140625 C54.96757771 256.36550597 55.71882683 249.49527469 55.73046875 242.09375 C55.73379715 241.34339478 55.73712555 240.59303955 55.74055481 239.81994629 C55.74558677 238.24341438 55.7479643 236.66687196 55.74780273 235.09033203 C55.74999391 232.69415643 55.76820188 230.29843846 55.78710938 227.90234375 C55.79004327 226.36198072 55.79202809 224.82161553 55.79296875 223.28125 C55.80374702 222.22000916 55.80374702 222.22000916 55.81474304 221.1373291 C55.79363189 216.487761 54.93247435 212.61035473 53.5625 208.1875 C52.18206514 199.53600289 52.37930713 190.67236192 52.375 181.9375 C52.36282262 180.60156073 52.35045377 179.2656232 52.33789062 177.9296875 C52.33595703 176.64835938 52.33402344 175.36703125 52.33203125 174.046875 C52.32792236 172.89670898 52.32381348 171.74654297 52.31958008 170.56152344 C52.58519875 166.87222693 53.46430357 163.71119625 54.5625 160.1875 C56.39854673 150.06657576 56.76469114 139.95408981 56.8125 129.6875 C56.82168457 128.59010498 56.83086914 127.49270996 56.84033203 126.36206055 C56.80630115 115.59605585 56.80630115 115.59605585 53.0625 105.6875 C50.90195102 102.08658503 50.32091547 98.28294352 49.5625 94.1875 C48.9025 94.1875 48.2425 94.1875 47.5625 94.1875 C47.34335937 93.57003906 47.12421875 92.95257813 46.8984375 92.31640625 C44.89561545 86.96740589 42.59762342 82.38362525 39.3125 77.71875 C37.61927478 75.26962067 36.05157717 72.76145749 34.48852539 70.22802734 C29.51963978 62.23815515 23.7810109 55.22946668 17.5625 48.1875 C16.58603516 47.02734375 16.58603516 47.02734375 15.58984375 45.84375 C11.61634438 41.13709927 7.30954004 37.10596578 2.5625 33.1875 C1.81226563 32.56101563 1.06203125 31.93453125 0.2890625 31.2890625 C-11.69039365 21.48064047 -24.48663337 12.90564274 -38.4375 6.1875 C-38.4375 5.5275 -38.4375 4.8675 -38.4375 4.1875 C-35.98015762 3.70273891 -33.52180092 3.22464066 -31.0625 2.75 C-30.38316406 2.61529297 -29.70382812 2.48058594 -29.00390625 2.34179688 C-19.35002726 0.49222193 -9.81867662 -0.0065853 0 0 Z " fill="#356992" transform="translate(388.4375,29.8125)"/>
<path d="M0 0 C5.26828012 5.27956124 6.77993374 10.53797081 8.07421875 17.640625 C8.24695313 18.49205078 8.4196875 19.34347656 8.59765625 20.22070312 C9.67713402 25.84512498 9.98627491 31.10407009 9.82421875 36.828125 C10.48421875 36.828125 11.14421875 36.828125 11.82421875 36.828125 C14.39371208 60.98382999 13.5554867 83.63432115 5.82421875 106.828125 C5.16421875 106.828125 4.50421875 106.828125 3.82421875 106.828125 C3.72625 107.46878906 3.62828125 108.10945313 3.52734375 108.76953125 C2.50689801 114.67228202 1.02564946 118.78344631 -2.17578125 123.828125 C-4.57336586 128.1437773 -6.00451226 132.38332303 -7.3515625 137.1015625 C-8.49849099 140.89566717 -9.89753944 144.58250598 -11.30859375 148.28515625 C-12.16231285 150.78862982 -12.71794114 153.22591129 -13.17578125 155.828125 C-23.22767955 156.97813031 -31.1074605 153.65115608 -40.17578125 149.828125 C-40.17578125 149.168125 -40.17578125 148.508125 -40.17578125 147.828125 C-41.47515625 147.4878125 -41.47515625 147.4878125 -42.80078125 147.140625 C-49.30503919 144.61119136 -52.86047037 140.24705005 -56.78125 134.6953125 C-58.09696702 132.82067919 -58.09696702 132.82067919 -59.66796875 131.42578125 C-61.68238056 129.29133973 -62.80029579 127.0131132 -64.11328125 124.390625 C-64.59667969 123.44316406 -65.08007812 122.49570312 -65.578125 121.51953125 C-66.12572004 120.29568292 -66.6560645 119.06406981 -67.17578125 117.828125 C-67.5301123 116.9923291 -67.88444336 116.1565332 -68.24951172 115.29541016 C-71.46644012 106.85043862 -71.65411479 99.02190655 -71.42578125 90.078125 C-71.40565587 88.68752615 -71.38741592 87.29689869 -71.37109375 85.90625 C-71.32442531 82.54612263 -71.25896609 79.18751278 -71.17578125 75.828125 C-70.51578125 75.828125 -69.85578125 75.828125 -69.17578125 75.828125 C-69.18688431 75.0226825 -69.19798737 74.21723999 -69.20942688 73.38739014 C-69.30963105 65.79515971 -69.38574646 58.20325007 -69.43484211 50.61053085 C-69.46093156 46.70702649 -69.49631585 42.80406869 -69.55297852 38.90087891 C-69.60732438 35.13368616 -69.6372067 31.36701892 -69.65016747 27.59946442 C-69.65940299 26.16248552 -69.67743852 24.72553525 -69.70443153 23.28878021 C-69.74074443 21.27581354 -69.7428238 19.26231753 -69.7434082 17.24902344 C-69.75451126 16.10318787 -69.76561432 14.95735229 -69.77705383 13.77679443 C-69.17578125 10.828125 -69.17578125 10.828125 -66.82389832 8.54400635 C-48.84937394 -3.10281679 -19.33273364 -14.75286173 0 0 Z " fill="#356892" transform="translate(242.17578125,169.171875)"/>
<path d="M0 0 C44.55 0 89.1 0 135 0 C135 109.89 135 219.78 135 333 C134.01 331.68 133.02 330.36 132 329 C126.81498601 322.27917174 122.03140896 318.67713632 114 316 C111.54831034 315.87523946 109.13931313 315.80960905 106.6875 315.8125 C105.97907959 315.81330566 105.27065918 315.81411133 104.54077148 315.81494141 C95.94379967 315.91273232 87.54076874 317.10171691 79.1875 319.125 C74.73454816 320.19638691 70.56811832 320.14501963 66 320 C66.57634139 315.24518354 68.55068521 312.02951788 71 308 C71.66 308 72.32 308 73 308 C73.103125 307.29875 73.20625 306.5975 73.3125 305.875 C74.09359003 302.60862353 75.42058743 299.9528148 77 297 C77.66 297 78.32 297 79 297 C79.12375 296.278125 79.2475 295.55625 79.375 294.8125 C79.9904931 292.04278106 80.88444374 289.6029646 82 287 C82.66 287 83.32 287 84 287 C84.144375 286.236875 84.28875 285.47375 84.4375 284.6875 C85 282 85 282 86 279 C86.66 278.67 87.32 278.34 88 278 C88.6523725 276.25342089 89.2212825 274.47539996 89.75 272.6875 C91.54664762 267.03512545 93.89811508 261.9402045 96.6171875 256.6796875 C98.98191093 252.09720085 100.86650692 247.47603156 102.4375 242.5625 C103.3950828 239.58446764 104.50279851 236.93142061 106 234.1875 C108.6817039 229.10257684 109.77249142 223.57958447 111 218 C111.66 218 112.32 218 113 218 C113.15674194 217.10099976 113.15674194 217.10099976 113.31665039 216.18383789 C114.51648461 209.72073922 116.32600434 203.65378338 118.4375 197.4375 C120.98526038 189.74445536 122.97577946 182.21848278 124.11303711 174.19116211 C124.60589869 170.77190816 125.03963055 168.94055417 127 166 C128.01389597 160.88469906 128.53585792 155.68014704 129.125 150.5 C129.21371368 149.72989594 129.30242737 148.95979187 129.39382935 148.16635132 C130.73902182 136.21300336 131.40942059 124.33973663 131.4375 112.3125 C131.44340149 111.60544922 131.44930298 110.89839844 131.4553833 110.16992188 C131.58395445 87.57304851 126.37494404 69.78740125 111 53 C109.99422508 51.7546419 108.99294398 50.5056123 108 49.25 C101.59128224 41.81294931 93.0355557 36.17846164 85.01953125 30.62890625 C84.35308594 30.09136719 83.68664062 29.55382812 83 29 C83 28.34 83 27.68 83 27 C81.71416016 26.62101562 81.71416016 26.62101562 80.40234375 26.234375 C76.79536186 24.925757 73.83893439 23.24133115 70.5625 21.25 C61.05504889 15.63883513 50.85467948 11.21524071 40 9 C40 8.34 40 7.68 40 7 C39.03578125 6.87882813 38.0715625 6.75765625 37.078125 6.6328125 C35.81484375 6.46523437 34.5515625 6.29765625 33.25 6.125 C31.37054688 5.88136719 31.37054688 5.88136719 29.453125 5.6328125 C26 5 26 5 24.109375 4 C21.60166716 2.81116073 19.55881563 2.59199662 16.796875 2.3671875 C15.8171875 2.28339844 14.8375 2.19960938 13.828125 2.11328125 C12.81234375 2.03464844 11.7965625 1.95601563 10.75 1.875 C9.71875 1.78863281 8.6875 1.70226562 7.625 1.61328125 C5.08384301 1.40151817 2.54230879 1.19736846 0 1 C0 0.67 0 0.34 0 0 Z " fill="#FBFBFB" transform="translate(405,0)"/>
<path d="M0 0 C122.1 0 244.2 0 370 0 C370 0.33 370 0.66 370 1 C368.70449219 1.17015625 367.40898437 1.3403125 366.07421875 1.515625 C357.03115604 2.73902759 348.14024373 4.11799522 339.25 6.1875 C329.40733991 8.41006911 320.03145501 8.56014829 309.984375 7.75976562 C301.25619145 7.06491023 292.60626267 6.84458128 283.85693359 6.86962891 C281.60637843 6.87504481 279.35601836 6.86961534 277.10546875 6.86328125 C275.6458329 6.86394133 274.18619717 6.86522103 272.7265625 6.8671875 C271.43314941 6.86831543 270.13973633 6.86944336 268.80712891 6.87060547 C261.94961975 6.72468791 261.94961975 6.72468791 256 9 C253.14471393 9.400383 250.30263513 9.7518227 247.4375 10.0625 C246.63119141 10.15337891 245.82488281 10.24425781 244.99414062 10.33789062 C242.99652623 10.56247449 240.9983144 10.78173236 239 11 C239 11.66 239 12.32 239 13 C236.89748139 13.67184618 234.79292237 14.33730968 232.6875 15 C230.92986328 15.556875 230.92986328 15.556875 229.13671875 16.125 C226 17 226 17 223 17 C222.67 17.99 222.34 18.98 222 20 C214.72297825 23.29198603 207.95015133 22.00068142 200.5625 20 C199.83095703 19.80921875 199.09941406 19.6184375 198.34570312 19.421875 C196.56180334 18.95549597 194.78060155 18.47881722 193 18 C193 17.34 193 16.68 193 16 C192.32195312 15.95101563 191.64390625 15.90203125 190.9453125 15.8515625 C183.21916091 15.23090212 175.84131347 14.05213205 168.36328125 12.00390625 C143.89847106 5.8855684 106.15613935 4.00949451 82.54296875 14.00390625 C79.68453495 15.12356926 76.87625364 15.73859866 73.875 16.375 C68.85854436 17.55610599 65.30729782 19.37524478 61.23046875 22.5 C59 24 59 24 55.6328125 25.40234375 C36.16529245 33.96386601 21.75307122 53.82135013 14 73 C13.34 73 12.68 73 12 73 C11.87882813 73.556875 11.75765625 74.11375 11.6328125 74.6875 C10.50669922 79.81564662 9.29514693 84.91192278 8 90 C7.34 90 6.68 90 6 90 C5.95101563 90.71285156 5.90203125 91.42570312 5.8515625 92.16015625 C5.77679687 93.11792969 5.70203125 94.07570313 5.625 95.0625 C5.55539063 96.00222656 5.48578125 96.94195312 5.4140625 97.91015625 C5 101 5 101 4.03125 104.21875 C2.74248616 108.94421743 2.30252637 113.57000718 1.875 118.4375 C1.78863281 119.35982422 1.70226562 120.28214844 1.61328125 121.23242188 C1.4029346 123.48780541 1.19865598 125.74356186 1 128 C0.67 128 0.34 128 0 128 C0 85.76 0 43.52 0 0 Z " fill="#FBFBFB" transform="translate(0,0)"/>
<path d="M0 0 C1.04994141 -0.00128906 2.09988281 -0.00257813 3.18164062 -0.00390625 C4.80295898 0.00189453 4.80295898 0.00189453 6.45703125 0.0078125 C7.54951172 0.00394531 8.64199219 0.00007812 9.76757812 -0.00390625 C10.81365234 -0.00261719 11.85972656 -0.00132812 12.9375 0 C13.88906982 0.00112793 14.84063965 0.00225586 15.82104492 0.00341797 C18.26953125 0.1328125 18.26953125 0.1328125 21.26953125 1.1328125 C21.29639063 3.27857887 21.31586213 5.42443895 21.33203125 7.5703125 C21.34363281 8.76527344 21.35523438 9.96023437 21.3671875 11.19140625 C21.26953125 14.1328125 21.26953125 14.1328125 20.26953125 15.1328125 C16.95924995 36.19143816 15.41975788 58.05741085 19.26953125 79.1328125 C19.59953125 79.4628125 19.92953125 79.7928125 20.26953125 80.1328125 C21.5159932 88.39639359 21.42629979 96.91906192 21.51953125 105.2578125 C21.54088135 106.25820557 21.56223145 107.25859863 21.58422852 108.28930664 C21.62928156 118.27551975 18.9173437 126.92642869 15.26953125 136.1328125 C13.34765625 135.421875 13.34765625 135.421875 11.26953125 134.1328125 C10.44140625 131.96875 10.44140625 131.96875 10.01953125 129.5078125 C9.87 128.69054687 9.72046875 127.87328125 9.56640625 127.03125 C9.4684375 126.40476562 9.37046875 125.77828125 9.26953125 125.1328125 C8.60953125 125.1328125 7.94953125 125.1328125 7.26953125 125.1328125 C6.27953125 122.1628125 5.28953125 119.1928125 4.26953125 116.1328125 C3.60953125 116.1328125 2.94953125 116.1328125 2.26953125 116.1328125 C0.78453125 111.6778125 0.78453125 111.6778125 -0.73046875 107.1328125 C-1.39046875 107.1328125 -2.05046875 107.1328125 -2.73046875 107.1328125 C-3.98711853 104.22680989 -4.73046875 102.33676666 -4.73046875 99.1328125 C-5.39046875 99.1328125 -6.05046875 99.1328125 -6.73046875 99.1328125 C-10.24726139 92.20473101 -13.63881457 85.26043364 -16.73046875 78.1328125 C-17.41676257 76.59060851 -18.1042679 75.04894309 -18.79296875 73.5078125 C-19.4430647 72.05137436 -20.08836988 70.59279396 -20.73046875 69.1328125 C-21.1996875 68.08351563 -21.66890625 67.03421875 -22.15234375 65.953125 C-27.2581325 53.939693 -30.28980519 41.84229012 -30.29296875 28.7578125 C-30.29514404 27.80197266 -30.29731934 26.84613281 -30.29956055 25.86132812 C-30.14759671 19.44583621 -29.41609131 14.20476592 -25.046875 9.20703125 C-24.46808594 8.74941406 -23.88929688 8.29179687 -23.29296875 7.8203125 C-22.71675781 7.34980469 -22.14054687 6.87929687 -21.546875 6.39453125 C-17.98845785 3.92277052 -16.18921902 3.1328125 -11.73046875 3.1328125 C-11.73046875 2.4728125 -11.73046875 1.8128125 -11.73046875 1.1328125 C-7.77194373 0.39605348 -4.02476779 0.0047538 0 0 Z " fill="#376A93" transform="translate(408.73046875,159.8671875)"/>
<path d="M0 0 C5.00413407 0.89359537 8.17588654 2.73661543 11.11328125 6.92578125 C13.65903126 11.88102987 13.902935 16.24603397 12.5 21.625 C7.87834494 29.20451429 0.37403626 35.68798187 -7.5 39.625 C-8.16 39.625 -8.82 39.625 -9.5 39.625 C-9.5 40.285 -9.5 40.945 -9.5 41.625 C-10.42683594 41.90214844 -11.35367188 42.17929687 -12.30859375 42.46484375 C-14.10490234 43.00818359 -14.10490234 43.00818359 -15.9375 43.5625 C-17.72994141 44.10197266 -17.72994141 44.10197266 -19.55859375 44.65234375 C-22.35867545 45.33389142 -22.35867545 45.33389142 -23.5 46.625 C-27.66008501 46.88134327 -31.83297298 46.81024512 -36 46.8125 C-37.74023438 46.83086914 -37.74023438 46.83086914 -39.515625 46.84960938 C-48.08600722 46.86415188 -55.74719128 46.22157558 -63.5625 42.5 C-64.31660156 42.14679688 -65.07070312 41.79359375 -65.84765625 41.4296875 C-66.39292969 41.16414063 -66.93820313 40.89859375 -67.5 40.625 C-67.5 39.965 -67.5 39.305 -67.5 38.625 C-64.75056553 37.85210342 -62.00049078 37.08162175 -59.25 36.3125 C-58.42677246 36.08103271 -57.60354492 35.84956543 -56.75537109 35.61108398 C-52.2314443 34.34854137 -47.71200806 33.20275778 -43.125 32.1875 C-35.5735422 30.34439663 -27.98675854 27.22849809 -22.5 21.625 C-21.84 21.625 -21.18 21.625 -20.5 21.625 C-20.25765625 21.07585937 -20.0153125 20.52671875 -19.765625 19.9609375 C-17.08934754 15.02138835 -13.12756835 10.8858557 -9.5 6.625 C-8.94570312 5.94824219 -8.39140625 5.27148438 -7.8203125 4.57421875 C-5.30011279 1.72026286 -3.78444718 0.67579414 0 0 Z " fill="#396B94" transform="translate(248.5,343.375)"/>
<path d="M0 0 C14.29068326 5.42313108 34.25571471 3.22547061 48.83984375 -0.1875 C52.0042842 -0.83503471 54.82742407 -0.96099859 58.046875 -0.84375 C52.86445679 4.84019256 46.83391282 10.00464582 39.046875 11.15625 C39.046875 11.81625 39.046875 12.47625 39.046875 13.15625 C24.21741398 19.46188637 8.8361514 21.38133859 -7.203125 21.46875 C-8.46974976 21.47708862 -8.46974976 21.47708862 -9.76196289 21.4855957 C-15.37495332 21.42033486 -20.52731267 20.57950738 -25.953125 19.15625 C-26.03451642 16.75972472 -26.09379509 14.36599564 -26.140625 11.96875 C-26.17833008 10.95844727 -26.17833008 10.95844727 -26.21679688 9.92773438 C-26.28219097 5.45913778 -25.8672109 2.59960364 -22.953125 -0.84375 C-20.39453125 -2.2421875 -20.39453125 -2.2421875 -17.515625 -3.21875 C-16.56816406 -3.55648438 -15.62070312 -3.89421875 -14.64453125 -4.2421875 C-9.11359049 -5.47842099 -4.86824536 -2.42005261 0 0 Z " fill="#386B94" transform="translate(444.953125,346.84375)"/>
<path d="M0 0 C1.81640625 0.6875 1.81640625 0.6875 3.87890625 2.4375 C5.15770374 5.50661398 5.35485703 7.38948894 4.81640625 10.6875 C2.35497057 13.6146127 -0.00483553 15.56832786 -3.18359375 17.6875 C-7.96079962 17.99570683 -12.01135704 18.25503029 -16.18359375 15.6875 C-19.98826147 12.20255226 -22.96666035 9.42296717 -23.62109375 4.1875 C-23.47671875 3.3625 -23.33234375 2.5375 -23.18359375 1.6875 C-22.19359375 1.6875 -21.20359375 1.6875 -20.18359375 1.6875 C-20.18359375 1.0275 -20.18359375 0.3675 -20.18359375 -0.3125 C-14.54981115 -3.1293913 -5.91656774 -1.52412479 0 0 Z " fill="#F3F6F8" transform="translate(236.18359375,172.3125)"/>
<path d="M0 0 C1.11703186 3.90961152 1.25467466 5.50044586 -0.625 9.1875 C-3.94926468 13.12412923 -6.14533915 14.79003839 -11.3125 15.375 C-15.51738407 14.94738467 -19.28898897 14.07304754 -23 12 C-25 9 -25 9 -25.125 6.0625 C-23.93041737 2.81058063 -23.5851125 2.30573125 -20.75 0.625 C-14.47120222 -2.12126183 -6.45681097 -2.15227032 0 0 Z " fill="#F1F5F7" transform="translate(415,168)"/>
<path d="M0 0 C0.66 0.33 1.32 0.66 2 1 C-5.26 8.26 -12.52 15.52 -20 23 C-20 17.47278617 -14.70482714 13.77363107 -11 10 C-7.41903853 6.57114811 -3.72449886 3.27198965 0 0 Z " fill="#333333" transform="translate(46,30)"/>
<path d="M0 0 C0.66 0.33 1.32 0.66 2 1 C0.2675 1.7425 0.2675 1.7425 -1.5 2.5 C-6.62425135 5.02552388 -10.18697604 8.82189928 -14 13 C-14.33 12.34 -14.66 11.68 -15 11 C-10.78034857 5.3737981 -6.7933686 2.2644562 0 0 Z " fill="#C0C0C0" transform="translate(179,366)"/>
<path d="M0 0 C-1.47721422 3.45201639 -3.43794001 5.64961936 -6.125 8.25 C-6.84945312 8.95640625 -7.57390625 9.6628125 -8.3203125 10.390625 C-8.87460938 10.92171875 -9.42890625 11.4528125 -10 12 C-10.66 11.67 -11.32 11.34 -12 11 C-10.89718873 9.72799029 -9.79269231 8.45744147 -8.6875 7.1875 C-8.07261719 6.47980469 -7.45773438 5.77210938 -6.82421875 5.04296875 C-2.32122371 0 -2.32122371 0 0 0 Z " fill="#5983A5" transform="translate(247,344)"/>
<path d="M0 0 C0.33 0.99 0.66 1.98 1 3 C8.92 2.505 8.92 2.505 17 2 C11.49756101 5.66829266 5.39456234 5.12789125 -1 5 C-0.67 3.35 -0.34 1.7 0 0 Z " fill="#A5A5A5" transform="translate(472,315)"/>
<path d="M0 0 C0 0.66 0 1.32 0 2 C-0.680625 2.391875 -1.36125 2.78375 -2.0625 3.1875 C-5.95679506 5.59036291 -8.86162112 8.69882337 -12 12 C-12 7.97802227 -10.7067141 6.92040205 -8 4 C-2.59459459 0 -2.59459459 0 0 0 Z " fill="#C9D7E2" transform="translate(420,330)"/>
<path d="M0 0 C0.103125 0.639375 0.20625 1.27875 0.3125 1.9375 C0.539375 2.618125 0.76625 3.29875 1 4 C1.99 4.33 2.98 4.66 4 5 C2.68 6.98 1.36 8.96 0 11 C-0.66 10.67 -1.32 10.34 -2 10 C-1.54177532 6.53058454 -1.10868317 3.32604951 0 0 Z " fill="#5681A4" transform="translate(436,304)"/>
<path d="M0 0 C-1.32 0.99 -2.64 1.98 -4 3 C-3.67 3.66 -3.34 4.32 -3 5 C-4.98 4.34 -6.96 3.68 -9 3 C-9 2.34 -9 1.68 -9 1 C-2.25 -1.125 -2.25 -1.125 0 0 Z " fill="#628AAA" transform="translate(190,381)"/>
<path d="M0 0 C-1.875 3.875 -1.875 3.875 -3 5 C-3.23075082 6.34747084 -3.41153063 7.70377565 -3.5625 9.0625 C-3.706875 10.361875 -3.85125 11.66125 -4 13 C-4.33 13 -4.66 13 -5 13 C-5.08121924 11.39667209 -5.13929134 9.79215974 -5.1875 8.1875 C-5.22230469 7.29417969 -5.25710937 6.40085938 -5.29296875 5.48046875 C-5 3 -5 3 -3.61328125 1.17578125 C-2 0 -2 0 0 0 Z " fill="#628AAA" transform="translate(178,177)"/>
<path d="M0 0 C0.66 0.33 1.32 0.66 2 1 C0.02 3.31 -1.96 5.62 -4 8 C-4.66 7.67 -5.32 7.34 -6 7 C-4.625 5 -4.625 5 -3 3 C-2.34 3 -1.68 3 -1 3 C-0.67 2.01 -0.34 1.02 0 0 Z " fill="#3D3D3D" transform="translate(195,332)"/>
</svg>
