<?xml version="1.0" encoding="UTF-8"?>
<svg version="1.1" xmlns="http://www.w3.org/2000/svg" width="414" height="417">
<path d="M0 0 C2.44201145 2.24412431 4.74469937 4.57022052 7 7 C7.78375 7.78375 8.5675 8.5675 9.375 9.375 C10.24125 10.24125 11.1075 11.1075 12 12 C12.89912109 12.81210938 12.89912109 12.81210938 13.81640625 13.640625 C47.91876478 45.54485729 62.90954047 94.40856554 65.1875 139.73046875 C65.93023846 178.58497451 54.43624784 218.19215129 32 250 C31.28199219 251.02222656 30.56398438 252.04445313 29.82421875 253.09765625 C23.00561892 262.4838283 15.20808512 270.81873869 7 279 C6.4121875 279.62261719 5.824375 280.24523437 5.21875 280.88671875 C-26.38265513 313.99637276 -74.74817503 330.57290984 -119.61328125 332.125 C-167.55429492 332.89591077 -212.78320877 316.20412051 -249 285 C-249.81887695 284.29496338 -249.81887695 284.29496338 -250.65429688 283.57568359 C-256.58837093 278.42171953 -262.03419271 273.08711862 -267 267 C-267.65935547 266.20916016 -267.65935547 266.20916016 -268.33203125 265.40234375 C-275.31531052 257.01872352 -281.68213483 248.56063846 -287 239 C-287.64001953 237.85917969 -287.64001953 237.85917969 -288.29296875 236.6953125 C-300.8301982 214.14937046 -308.99460026 190.72063032 -312 165 C-312.11085938 164.0925 -312.22171875 163.185 -312.3359375 162.25 C-316.94582516 117.39703902 -305.17873867 69.24183925 -278 33 C-277.56864746 32.41750488 -277.13729492 31.83500977 -276.69287109 31.23486328 C-271.71713599 24.56240069 -266.42922079 18.2046156 -260.8125 12.0625 C-260.3498877 11.55509277 -259.88727539 11.04768555 -259.41064453 10.52490234 C-197.26720501 -56.02463573 -86.80754636 -64.43134451 0 0 Z M-91.52734375 51.93359375 C-103.91958709 67.30154166 -111.77957325 84.76842244 -119 103 C-122 103 -122 103 -123.91015625 101.3125 C-124.62042969 100.549375 -125.33070313 99.78625 -126.0625 99 C-139.29591937 85.38238458 -154.82557794 75.31199538 -174.25 74.5625 C-186.47538402 75.19731894 -198.39460788 79.91913531 -207.44140625 88.25 C-214.66679292 96.36271485 -218.68804361 106.6391268 -218.28125 117.50390625 C-216.61315811 132.30822181 -207.90764815 142.70466127 -198 153 C-196.63436311 154.48956479 -195.27832662 155.98806371 -193.9375 157.5 C-193.41027344 158.0878125 -192.88304687 158.675625 -192.33984375 159.28125 C-188.09514261 164.72634767 -188.30045937 170.31849017 -189 177 C-191.40023809 182.50054562 -195.54347623 185.70971995 -201 188 C-209.63804803 190.07669886 -216.28644121 188.45497854 -224 184.4375 C-226 183 -226 183 -227 181 C-227.47288021 177.02780627 -226.962043 174.68887787 -225 171.3125 C-222.31740806 166.32096286 -222.17713391 161.54798374 -223 156 C-224.89991927 151.74418083 -226.30820848 150.38432862 -230.375 148.125 C-235.52771548 146.5258814 -238.31378881 146.14036292 -243.1875 148.625 C-247.14970336 151.97086061 -248.67713163 154.517501 -249.3515625 159.703125 C-249.81913206 169.30060541 -246.91149538 176.07389443 -240.5625 183.1875 C-229.04784318 193.89981726 -213.18814946 197.79673439 -197.83984375 197.2890625 C-192.58032654 196.89312733 -187.92545749 195.8601892 -183 194 C-182.30777344 193.74476563 -181.61554688 193.48953125 -180.90234375 193.2265625 C-171.67572787 189.22775085 -163.36363872 181.04176399 -159.0390625 171.98828125 C-155.50932506 162.96964017 -155.96824512 153.60754598 -159.6171875 144.71484375 C-163.89621937 136.31391959 -170.22645767 129.50703325 -176.59375 122.6484375 C-183.447434 115.10493466 -187.39092835 110.11858662 -187.28125 99.7265625 C-186.77070378 94.77710054 -184.15758698 92.22568034 -180.875 88.75 C-174.25371728 84.71965399 -167.29801695 84.45350747 -159.8515625 86.12109375 C-149.65902047 89.26263068 -141.91235379 95.0389193 -134 102 C-132.94643575 102.85456133 -131.89038811 103.70606894 -130.83203125 104.5546875 C-129.80369577 105.41026776 -128.77632486 106.2670089 -127.75 107.125 C-126.81671875 107.89070313 -125.8834375 108.65640625 -124.921875 109.4453125 C-123 112 -123 112 -123.28198242 115.24438477 C-123.95110799 118.7442687 -124.70548477 122.18717201 -125.56640625 125.64453125 C-125.88686702 126.95305065 -126.20665803 128.26173421 -126.52587891 129.57055664 C-126.69452454 130.25924835 -126.86317017 130.94794006 -127.03692627 131.65750122 C-130.50677865 145.88486307 -133.45473261 160.16481192 -136.125 174.5625 C-150.44493736 251.41834878 -150.44493736 251.41834878 -172.4296875 266.6875 C-178.41671642 270.14231013 -183.03529886 271.25795189 -190 271 C-190.66 270.67 -191.32 270.34 -192 270 C-192.4375 267.3125 -192.4375 267.3125 -192 264 C-190.34072547 262.51057247 -188.57195252 261.40356679 -186.6953125 260.203125 C-184.18397381 258.42088464 -183.56000751 257.01004034 -183 254 C-183 247.90974029 -184.2723631 244.93286342 -188.33203125 240.4453125 C-192.50724411 236.82744655 -196.18209152 236.61258747 -201.54296875 236.76171875 C-208.14982883 237.40244763 -211.48303485 241.28486181 -215.58203125 246.0625 C-218.67730388 250.29185324 -218.56330918 254.97920081 -218 260 C-216.10685491 266.54762921 -211.6568179 271.34894923 -206 275 C-200.31295287 277.79887352 -195.10022933 278.51973453 -188.8125 278.4375 C-187.97952393 278.42847656 -187.14654785 278.41945313 -186.28833008 278.41015625 C-168.49620957 277.91578763 -153.90879042 268.57558747 -141 257 C-140.37867188 256.44957031 -139.75734375 255.89914062 -139.1171875 255.33203125 C-105.20167582 223.38835164 -95.51715308 171.97716224 -89 128 C-89 127.01 -89 126.02 -89 125 C-88.41766602 125.16008545 -87.83533203 125.3201709 -87.23535156 125.48510742 C-72.7006358 128.8330449 -55.05438896 125.3026714 -42.41015625 117.76953125 C-37.31288928 114.02712941 -33.35798767 109.60733633 -30.4375 104 C-29.73426981 99.17785012 -29.55201458 94.43018531 -32.1171875 90.125 C-33.87203397 87.96518896 -35.49494273 86.25252864 -38 85 C-43.69941954 84.45197889 -46.56532643 85.39038198 -51 89 C-53.49455917 92.74183875 -53.37606522 94.56243036 -53 99 C-52.01642648 101.00812926 -51.01691264 103.00854609 -50 105 C-49.3125 108.0625 -49.3125 108.0625 -50 111 C-57.49673591 118.03182206 -67.31508884 118.29866048 -77 118.125 C-77.96550781 118.11597656 -78.93101562 118.10695313 -79.92578125 118.09765625 C-82.28412099 118.07430635 -84.64192286 118.04156047 -87 118 C-74.94069189 50.1623578 -74.94069189 50.1623578 -59 37 C-53.52775943 33.50642269 -48.43376994 31.85540341 -41.9375 31.875 C-41.08027344 31.87242188 -40.22304688 31.86984375 -39.33984375 31.8671875 C-37 32 -37 32 -34 33 C-33.12894496 35.9035168 -32.60667284 38.07726566 -33.82421875 40.93359375 C-34.19160156 41.59488281 -34.55898438 42.25617188 -34.9375 42.9375 C-37.05857726 46.79668224 -37.58912184 49.53950605 -37 54 C-35.09334197 58.55479418 -32.38773175 60.80613412 -28 63 C-23.71409798 63.68030191 -20.19499935 63.50455528 -16.1875 61.8125 C-11.82120865 58.19471573 -9.18229721 54.58904136 -8 49 C-7.698946 43.00122032 -9.0971288 38.50105728 -12.921875 33.859375 C-22.48730656 25.30083098 -33.87784747 24.41410476 -46.05078125 24.87255859 C-64.21685883 26.06027058 -80.03372812 38.83706501 -91.52734375 51.93359375 Z " fill="#040404" transform="translate(335,65)"/>
<path d="M0 0 C0.66 0.33 1.32 0.66 2 1 C-4.27 7.27 -10.54 13.54 -17 20 C-17.66 19.67 -18.32 19.34 -19 19 C-13.30628533 12.54790121 -7.63191855 6.50639713 -1 1 C-0.67 0.67 -0.34 0.34 0 0 Z " fill="#666666" transform="translate(89,63)"/>
<path d="M0 0 C0.66 0 1.32 0 2 0 C0.34908222 4.29238623 -2.73754566 6.8793915 -6 10 C-6.66 9.67 -7.32 9.34 -8 9 C-6.71520959 7.49410612 -5.42195918 5.99542625 -4.125 4.5 C-3.04605469 3.24703125 -3.04605469 3.24703125 -1.9453125 1.96875 C-1.30335938 1.3190625 -0.66140625 0.669375 0 0 Z " fill="#606060" transform="translate(276,101)"/>
<path d="M0 0 C0.66 0.33 1.32 0.66 2 1 C1.21625 1.7425 0.4325 2.485 -0.375 3.25 C-2.56504531 5.54433318 -3.82731386 7.12158858 -5 10 C-5.3125 7.25 -5.3125 7.25 -5 4 C-2.5 1.625 -2.5 1.625 0 0 Z " fill="#797979" transform="translate(147,325)"/>
</svg>
