<?xml version="1.0" encoding="UTF-8"?>
<svg version="1.1" xmlns="http://www.w3.org/2000/svg" width="512" height="512">
<path d="M0 0 C2.27046715 0.01611299 4.53915551 0.00001561 6.80957031 -0.01904297 C20.21987979 -0.03908908 33.54509224 1.58130753 46.27050781 6.01611328 C47.37096436 6.39352661 47.37096436 6.39352661 48.49365234 6.77856445 C70.72559288 14.75383955 87.5487461 29.52030441 103.89013672 46.10083008 C121.72773077 64.16443653 138.43699824 79.42316257 165.20800781 79.82861328 C185.86448303 79.68980454 201.72227068 69.76022931 216.14550781 55.76611328 C219.63399097 52.20886074 222.47124274 48.50253386 225.27050781 44.39111328 C225.60050781 44.39111328 225.93050781 44.39111328 226.27050781 44.39111328 C224.84673706 67.64603555 210.15298746 91.22999364 194.27050781 107.39111328 C193.59761719 108.07689453 192.92472656 108.76267578 192.23144531 109.46923828 C170.03462049 130.58531882 138.94401269 135.93086153 109.43847656 135.60595703 C78.00114393 134.80875896 49.8043809 124.31222008 26.78051758 102.72875977 C24.41839692 100.52884679 22.01617344 98.3851948 19.59863281 96.24658203 C13.37798721 90.66075481 7.57487518 84.68923135 1.77050781 78.67626953 C-12.08161004 64.58606841 -28.22756931 55.89652252 -48.22949219 55.14111328 C-67.15905286 55.45660596 -84.00173622 63.76087792 -97.31494141 76.96337891 C-100.56323084 80.34427224 -103.6449242 83.86051891 -106.72949219 87.39111328 C-107.7176591 88.40280798 -108.71135988 89.4095805 -109.72949219 90.39111328 C-109.17874643 84.71906499 -108.10662271 79.74138203 -106.16699219 74.39111328 C-105.90378174 73.66053711 -105.64057129 72.92996094 -105.36938477 72.17724609 C-95.349066 45.1894197 -78.29225187 22.43014742 -51.76464844 10.14111328 C-35.11596637 2.77182838 -18.10884424 -0.15201139 0 0 Z " fill="#43A8B3" transform="translate(141.7294921875,263.60888671875)"/>
<path d="M0 0 C1.60060986 1.42884923 3.18637242 2.87463395 4.75170898 4.34204102 C7.11382964 6.54195399 9.51605312 8.68560598 11.93359375 10.82421875 C18.15423935 16.41004598 23.95735138 22.38156943 29.76171875 28.39453125 C43.63561353 42.5068836 59.79408134 51.18180899 79.82421875 51.9296875 C100.83137941 51.64279153 117.8573578 41.20289631 132.26171875 26.6796875 C134.51264377 24.02389312 136.66553391 21.326958 138.765625 18.55078125 C139.25933594 17.93332031 139.75304687 17.31585938 140.26171875 16.6796875 C140.59171875 16.6796875 140.92171875 16.6796875 141.26171875 16.6796875 C140.71097299 22.35173579 139.63884928 27.32941875 137.69921875 32.6796875 C137.4360083 33.41026367 137.17279785 34.14083984 136.90161133 34.89355469 C126.88129256 61.88138108 109.82447844 84.64065336 83.296875 96.9296875 C66.64819293 104.2989724 49.6410708 107.22281217 31.53222656 107.07080078 C29.26175941 107.05468779 26.99307105 107.07078517 24.72265625 107.08984375 C11.31234677 107.10988987 -2.01286568 105.48949325 -14.73828125 101.0546875 C-15.47191895 100.80307861 -16.20555664 100.55146973 -16.96142578 100.29223633 C-39.19336632 92.31696123 -56.01651954 77.55049637 -72.35791016 60.9699707 C-90.22931803 42.87212199 -106.96238882 27.57010987 -133.80078125 27.3046875 C-155.69448292 27.54400029 -171.8375593 38.2771144 -186.79296875 53.52734375 C-189.39921911 56.41096613 -191.55277947 59.46973176 -193.73828125 62.6796875 C-194.06828125 62.6796875 -194.39828125 62.6796875 -194.73828125 62.6796875 C-194.24112315 55.74748295 -192.72113475 50.00371492 -190.17578125 43.5546875 C-189.81790527 42.63816406 -189.4600293 41.72164063 -189.09130859 40.77734375 C-178.4917407 14.2203887 -161.58395854 -6.29021053 -135.37890625 -18.7578125 C-91.62042137 -37.53827811 -36.43987981 -30.87772983 0 0 Z " fill="#44A8B3" transform="translate(338.73828125,157.3203125)"/>
</svg>
